<?xml version="1.0" encoding="utf-8"?>
<!-- Generator: Adobe Illustrator 16.0.0, SVG Export Plug-In . SVG Version: 6.00 Build 0)  -->
<!DOCTYPE svg PUBLIC "-//W3C//DTD SVG 1.1//EN" "http://www.w3.org/Graphics/SVG/1.1/DTD/svg11.dtd" [
	<!ENTITY ns_flows "http://ns.adobe.com/Flows/1.0/">
	<!ENTITY ns_extend "http://ns.adobe.com/Extensibility/1.0/">
	<!ENTITY ns_ai "http://ns.adobe.com/AdobeIllustrator/10.0/">
	<!ENTITY ns_graphs "http://ns.adobe.com/Graphs/1.0/">
]>
<svg version="1.1" id="Layer_1" xmlns:x="&ns_extend;" xmlns:i="&ns_ai;" xmlns:graph="&ns_graphs;"
	 xmlns="http://www.w3.org/2000/svg" xmlns:xlink="http://www.w3.org/1999/xlink" xmlns:a="http://ns.adobe.com/AdobeSVGViewerExtensions/3.0/"
	 x="0px" y="0px" width="13px" height="13px" viewBox="0 0 13 13" enable-background="new 0 0 13 13" xml:space="preserve">
<g>
	<defs>
		<circle id="SVGID_1_" cx="6.5" cy="6.5" r="6.5"/>
	</defs>
	<clipPath id="SVGID_2_">
		<use xlink:href="#SVGID_1_"  overflow="visible"/>
	</clipPath>
	<g clip-path="url(#SVGID_2_)">
		<g>
			<defs>
				<rect id="SVGID_3_" width="17.5" height="13.104"/>
			</defs>
			<clipPath id="SVGID_4_">
				<use xlink:href="#SVGID_3_"  overflow="visible"/>
			</clipPath>
			<g transform="scale(.9376 .9375)" clip-path="url(#SVGID_4_)">
				<path fill="#B01F24" d="M0,0h27.999v9.286H0V0z"/>
				<path fill="#429F46" d="M0,9.286h27.999v4.692H0V9.286z"/>
				<path fill="#FFFFFF" d="M0,0h3.1v13.978H0V0z"/>
				<g>
					<path fill="#B01F24" d="M0.147,0.238h0.147v0.236H0.147V0.238z M0.59,0.238h0.443v0.236H0.59V0.238z M0.738,0h0.148v0.238
						H0.738V0z M1.476,0h0.148v0.238H1.476V0z M2.066,0.238h0.443v0.236H2.066V0.238z M2.214,0h0.148v0.238H2.214V0z"/>
					<path fill="#B01F24" d="M0.443,0.474h0.296v0.238H0.443V0.474z M0.886,0.474h0.295v0.238H0.886V0.474z M1.919,0.474h0.296
						v0.238H1.919V0.474z M2.362,0.474h0.295v0.238H2.362V0.474z M0.295,0.711H0.59v0.236H0.295V0.711z M1.033,0.711h0.295v0.236
						H1.033V0.711z M1.771,0.711h0.296v0.236H1.771V0.711z M2.509,0.711h0.295v0.236H2.509V0.711z M2.804,0.238h0.148v0.236H2.804
						V0.238z M0.147,0.948h0.295v0.238H0.147V0.948z M1.181,0.948h0.295v0.238H1.181V0.948z M2.657,0.948h0.295v0.238H2.657V0.948z
						 M0.295,1.659H0.59v0.236H0.295V1.659z M0.443,1.895h0.296v0.237H0.443V1.895z M1.033,1.659h0.295v0.236H1.033V1.659z
						 M0.886,1.895h0.295v0.237H0.886V1.895z M0.59,2.133h0.443v0.236H0.59V2.133z"/>
					<path fill="#B01F24" d="M0.738,2.369h0.148v0.237H0.738V2.369z M1.771,1.659h0.296v0.236H1.771V1.659z M1.919,1.895h0.296
						v0.237H1.919V1.895z M2.509,1.659h0.295v0.236H2.509V1.659z M2.362,1.895h0.295v0.237H2.362V1.895z M2.066,2.133h0.443v0.236
						H2.066V2.133z"/>
					<path fill="#B01F24" d="M2.214,2.369h0.148v0.237H2.214V2.369z M1.476,2.133h0.148v0.236H1.476V2.133z M0,2.133h0.147v0.236H0
						V2.133z M2.952,2.133H3.1v0.236H2.952V2.133z M0.738,3.317h0.148v0.237H0.738V3.317z"/>
					<path fill="#B01F24" d="M0.59,3.554h0.443v0.236H0.59V3.554z M0.443,3.791h0.738v0.238H0.443V3.791z M2.214,3.317h0.148v0.237
						H2.214V3.317z"/>
					<path fill="#B01F24" d="M2.066,3.554h0.443v0.236H2.066V3.554z M1.919,3.791h0.738v0.238H1.919V3.791z M2.066,4.975h0.738
						v0.237H2.066V4.975z M1.771,4.028h1.034v0.236H1.771V4.028z M0.295,4.028h1.034v0.236H0.295V4.028z M0.443,5.213h0.443V5.45
						H0.443V5.213z M0.295,4.975h0.738v0.237H0.295V4.975z M2.362,4.502H3.1v0.236H2.362V4.502z M2.214,5.213h0.443V5.45H2.214
						V5.213z"/>
					<path fill="#B01F24" d="M0.59,5.449h0.148v0.238H0.59V5.449z M2.362,5.449H2.51v0.238H2.362V5.449z M0,4.502h0.738v0.236H0
						V4.502z M1.329,4.975h0.443v0.237H1.329V4.975z M1.476,5.213h0.148V5.45H1.476V5.213z M1.033,4.502h1.034v0.236H1.033V4.502z
						 M1.623,0.948h0.295v0.238H1.623V0.948z"/>
					<path fill="#B01F24" d="M1.329,1.185h0.443v0.236H1.329V1.185z"/>
					<path fill="#B01F24" d="M1.181,1.421h0.295v0.237H1.181V1.421z M1.623,1.421h0.295v0.237H1.623V1.421z M0,1.185h0.295v0.236H0
						V1.185z"/>
					<path fill="#B01F24" d="M0.147,1.421h0.295v0.237H0.147V1.421z M2.804,1.185H3.1v0.236H2.804V1.185z M2.657,1.421h0.295v0.237
						H2.657V1.421z M0,3.554h0.147v0.236H0V3.554z M2.952,3.554H3.1v0.236H2.952V3.554z M1.329,5.449h0.443v0.238H1.329V5.449z"/>
					<path fill="#B01F24" d="M1.181,5.686h0.295v0.237H1.181V5.686z M1.623,5.686h0.295v0.237H1.623V5.686z M1.033,5.923h0.295V6.16
						H1.033V5.923z M1.771,5.923h0.296V6.16H1.771V5.923z"/>
					<path fill="#B01F24" d="M0.886,6.16h0.295v0.236H0.886V6.16z M1.919,6.16h0.296v0.236H1.919V6.16z M0.738,6.396h0.295v0.237
						H0.738V6.396z M2.066,6.396h0.295v0.237H2.066V6.396z"/>
					<path fill="#B01F24" d="M0.443,6.634h0.443V6.87H0.443V6.634z M2.214,6.634h0.443V6.87H2.214V6.634z"/>
					<path fill="#B01F24" d="M2.509,6.396h0.295v0.237H2.509V6.396z M2.657,6.16h0.295v0.236H2.657V6.16z"/>
					<path fill="#B01F24" d="M2.804,5.923H3.1V6.16H2.804V5.923z M0.295,6.396H0.59v0.237H0.295V6.396z M0.147,6.16h0.295v0.236
						H0.147V6.16z"/>
					<path fill="#B01F24" d="M0,5.923h0.295V6.16H0V5.923z M0.59,6.87h0.148v0.238H0.59V6.87z M2.362,6.87H2.51v0.238H2.362V6.87z
						 M1.476,6.16h0.148v0.236H1.476V6.16z M1.033,6.87h0.148v0.238H1.033V6.87z M1.919,6.87h0.148v0.238H1.919V6.87z M1.476,6.87
						h0.148v0.238H1.476V6.87z M0,6.87h0.147v0.238H0V6.87z M2.952,6.87H3.1v0.238H2.952V6.87z M1.476,3.554h0.148v0.236H1.476
						V3.554z M0.738,1.185h0.148v0.236H0.738V1.185z M2.214,1.185h0.148v0.236H2.214V1.185z M1.329,2.843h0.443v0.237H1.329V2.843z"
						/>
					<path fill="#B01F24" d="M1.033,3.081h0.443v0.236H1.033V3.081z"/>
					<path fill="#B01F24" d="M1.181,3.317h0.148v0.237H1.181V3.317z M0.886,2.843h0.295v0.237H0.886V2.843z"/>
					<path fill="#B01F24" d="M1.033,2.607h0.443v0.236H1.033V2.607z"/>
					<path fill="#B01F24" d="M1.181,2.369h0.148v0.237H1.181V2.369z M1.623,2.607h0.443v0.236H1.623V2.607z"/>
					<path fill="#B01F24" d="M1.771,2.369h0.148v0.237H1.771V2.369z M1.919,2.843h0.296v0.237H1.919V2.843z"/>
					<path fill="#B01F24" d="M1.623,3.081h0.443v0.236H1.623V3.081z"/>
					<path fill="#B01F24" d="M1.771,3.317h0.148v0.237H1.771V3.317z M2.362,2.843h0.295v0.237H2.362V2.843z"/>
					<path fill="#B01F24" d="M2.509,2.607h0.443v0.236H2.509V2.607z"/>
					<path fill="#B01F24" d="M2.804,2.843H3.1v0.237H2.804V2.843z"/>
					<path fill="#B01F24" d="M2.509,3.081h0.443v0.236H2.509V3.081z"/>
					<path fill="#B01F24" d="M2.657,3.317h0.148v0.237H2.657V3.317z M2.657,2.369h0.148v0.237H2.657V2.369z M0,2.843h0.295v0.237H0
						V2.843z"/>
					<path fill="#B01F24" d="M0.147,2.607H0.59v0.236H0.147V2.607z"/>
					<path fill="#B01F24" d="M0.443,2.843h0.296v0.237H0.443V2.843z"/>
					<path fill="#B01F24" d="M0.147,3.081H0.59v0.236H0.147V3.081z"/>
					<path fill="#B01F24" d="M0.295,3.317h0.148v0.237H0.295V3.317z M0.295,2.369h0.148v0.237H0.295V2.369z M0.147,4.265h0.591
						v0.238H0.147V4.265z M0.886,4.265h0.59v0.238h-0.59V4.265z M1.623,4.265h0.591v0.238H1.623V4.265z M2.362,4.265h0.591v0.238
						H2.362V4.265z M1.181,4.739h0.738v0.237H1.181V4.739z M0.147,4.739h0.738v0.237H0.147V4.739z M2.214,4.739h0.738v0.237H2.214
						V4.739z M2.952,5.686H3.1v0.237H2.952V5.686z M0,5.686h0.147v0.237H0V5.686z M0.147,13.742h0.147v-0.238H0.147V13.742z
						 M0.59,13.742h0.443v-0.238H0.59V13.742z"/>
					<path fill="#B01F24" d="M0.738,13.978h0.148v-0.238H0.738V13.978z M1.476,13.978h0.148v-0.238H1.476V13.978z M2.066,13.742
						h0.443v-0.238H2.066V13.742z"/>
					<path fill="#B01F24" d="M2.214,13.978h0.148v-0.238H2.214V13.978z M0.443,13.504h0.296v-0.238H0.443V13.504z M0.886,13.504
						h0.295v-0.238H0.886V13.504z M1.919,13.504h0.296v-0.238H1.919V13.504z M2.362,13.504h0.295v-0.238H2.362V13.504z
						 M1.033,13.267h0.295V13.03H1.033V13.267z M1.771,13.267h0.296V13.03H1.771V13.267z M2.509,13.267h0.295V13.03H2.509V13.267z
						 M2.804,13.742h0.148v-0.238H2.804V13.742z M0.147,13.03h0.295v-0.236H0.147V13.03z"/>
					<path fill="#B01F24" d="M1.181,13.03h0.295v-0.236H1.181V13.03z M2.657,13.03h0.295v-0.236H2.657V13.03z M0.295,12.32H0.59
						v-0.238H0.295V12.32z M0.443,12.082h0.296v-0.236H0.443V12.082z M1.033,12.32h0.295v-0.238H1.033V12.32z M0.886,12.082h0.295
						v-0.236H0.886V12.082z M0.59,11.845h0.443v-0.235H0.59V11.845z"/>
					<path fill="#B01F24" d="M0.738,11.609h0.148v-0.236H0.738V11.609z M1.771,12.32h0.296v-0.238H1.771V12.32z M1.919,12.082h0.296
						v-0.236H1.919V12.082z M2.509,12.32h0.295v-0.238H2.509V12.32z M2.362,12.082h0.295v-0.236H2.362V12.082z M2.066,11.845h0.443
						v-0.235H2.066V11.845z"/>
					<path fill="#B01F24" d="M2.214,11.609h0.148v-0.236H2.214V11.609z M1.476,11.845h0.148v-0.235H1.476V11.845z M0,11.845h0.147
						v-0.235H0V11.845z M2.952,11.845H3.1v-0.235H2.952V11.845z M0.738,10.661h0.148v-0.236H0.738V10.661z"/>
					<path fill="#B01F24" d="M0.59,10.425h0.443v-0.237H0.59V10.425z M0.443,10.188h0.738V9.951H0.443V10.188z M2.214,10.661h0.148
						v-0.236H2.214V10.661z"/>
					<path fill="#B01F24" d="M2.066,10.425h0.443v-0.237H2.066V10.425z M1.919,10.188h0.738V9.951H1.919V10.188z M2.066,9.003h0.738
						V8.767H2.066V9.003z M1.771,9.951h1.034V9.714H1.771V9.951z M0.295,9.951h1.034V9.714H0.295V9.951z M0.443,8.767h0.443V8.529
						H0.443V8.767z M0.295,9.003h0.738V8.767H0.295V9.003z M2.362,9.477H3.1V9.24H2.362V9.477z M2.214,8.767h0.443V8.529H2.214
						V8.767z M0,9.477h0.738V9.24H0V9.477z M1.329,9.003h0.443V8.767H1.329V9.003z M1.476,8.767h0.148V8.529H1.476V8.767z
						 M1.033,9.477h1.034V9.24H1.033V9.477z M1.623,13.03h0.295v-0.236H1.623V13.03z M1.329,12.794h0.443v-0.238H1.329V12.794z
						 M1.181,12.556h0.295v-0.238H1.181V12.556z M1.623,12.556h0.295v-0.238H1.623V12.556z M0,12.794h0.295v-0.238H0V12.794z
						 M0.147,12.556h0.295v-0.238H0.147V12.556z M2.804,12.794H3.1v-0.238H2.804V12.794z M2.657,12.556h0.295v-0.238H2.657V12.556z
						 M0,10.425h0.147v-0.237H0V10.425z M2.952,10.425H3.1v-0.237H2.952V10.425z M1.181,8.293h0.295V8.055H1.181V8.293z
						 M1.623,8.293h0.295V8.055H1.623V8.293z M1.033,8.055h0.295V7.818H1.033V8.055z M1.771,8.055h0.296V7.818H1.771V8.055z
						 M0.886,7.818h0.295V7.581H0.886V7.818z M1.919,7.818h0.296V7.581H1.919V7.818z"/>
					<path fill="#B01F24" d="M0.738,7.581h0.295V7.344H0.738V7.581z M2.066,7.581h0.295V7.344H2.066V7.581z M0.443,7.344h0.443
						V7.108H0.443V7.344z M2.214,7.344h0.443V7.108H2.214V7.344z M2.509,7.581h0.295V7.344H2.509V7.581z"/>
					<path fill="#B01F24" d="M2.657,7.818h0.295V7.581H2.657V7.818z M2.804,8.055H3.1V7.818H2.804V8.055z M0.295,7.581H0.59V7.344
						H0.295V7.581z"/>
					<path fill="#B01F24" d="M0.147,7.818h0.295V7.581H0.147V7.818z M0,8.055h0.295V7.818H0V8.055z M0.59,7.108h0.148V6.87H0.59
						V7.108z M1.476,7.818h0.148V7.581H1.476V7.818z M1.476,10.425h0.148v-0.237H1.476V10.425z M0.738,12.794h0.148v-0.238H0.738
						V12.794z M2.214,12.794h0.148v-0.238H2.214V12.794z M1.329,11.135h0.443v-0.236H1.329V11.135z M1.033,10.899h0.443v-0.238
						H1.033V10.899z M1.181,10.661h0.148v-0.236H1.181V10.661z M0.886,11.135h0.295v-0.236H0.886V11.135z"/>
					<path fill="#B01F24" d="M1.033,11.373h0.443v-0.238H1.033V11.373z M1.181,11.609h0.148v-0.236H1.181V11.609z M1.623,11.373
						h0.443v-0.238H1.623V11.373z M1.771,11.609h0.148v-0.236H1.771V11.609z"/>
					<path fill="#B01F24" d="M1.919,11.135h0.296v-0.236H1.919V11.135z M1.623,10.899h0.443v-0.238H1.623V10.899z M1.771,10.661
						h0.148v-0.236H1.771V10.661z M2.362,11.135h0.295v-0.236H2.362V11.135z"/>
					<path fill="#B01F24" d="M2.509,11.373h0.443v-0.238H2.509V11.373z"/>
					<path fill="#B01F24" d="M2.804,11.135H3.1v-0.236H2.804V11.135z M2.509,10.899h0.443v-0.238H2.509V10.899z M2.657,10.661h0.148
						v-0.236H2.657V10.661z M2.657,11.609h0.148v-0.236H2.657V11.609z M0,11.135h0.295v-0.236H0V11.135z"/>
					<path fill="#B01F24" d="M0.147,11.373H0.59v-0.238H0.147V11.373z"/>
					<path fill="#B01F24" d="M0.443,11.135h0.296v-0.236H0.443V11.135z M0.147,10.899H0.59v-0.238H0.147V10.899z M0.295,10.661
						h0.148v-0.236H0.295V10.661z M0.295,11.609h0.148v-0.236H0.295V11.609z M0.147,9.714h0.591V9.477H0.147V9.714z M0.886,9.714
						h0.59V9.477h-0.59V9.714z M1.623,9.714h0.591V9.477H1.623V9.714z M2.362,9.714h0.591V9.477H2.362V9.714z M1.181,9.24h0.738
						V9.003H1.181V9.24z M0.147,9.24h0.738V9.003H0.147V9.24z M2.214,9.24h0.738V9.003H2.214V9.24z M2.952,8.293H3.1V8.055H2.952
						V8.293z M0,8.293h0.147V8.055H0V8.293z M1.329,7.108h0.147v0.236H1.329V7.108z M1.623,7.108h0.148v0.236H1.623V7.108z
						 M1.623,6.634h0.148V6.87H1.623V6.634z M1.329,6.634h0.147V6.87H1.329V6.634z M0.295,13.03H0.59v0.238H0.295V13.03z
						 M2.362,8.529H2.51V8.292H2.362V8.529z M0.59,8.529h0.148V8.292H0.59V8.529z M1.329,8.292h0.443v0.238H1.329V8.292z"/>
				</g>
			</g>
		</g>
	</g>
</g>
</svg>
