<?xml version="1.0" encoding="utf-8"?>
<!-- Generator: Adobe Illustrator 16.0.0, SVG Export Plug-In . SVG Version: 6.00 Build 0)  -->
<!DOCTYPE svg PUBLIC "-//W3C//DTD SVG 1.1//EN" "http://www.w3.org/Graphics/SVG/1.1/DTD/svg11.dtd" [
	<!ENTITY ns_flows "http://ns.adobe.com/Flows/1.0/">
	<!ENTITY ns_extend "http://ns.adobe.com/Extensibility/1.0/">
	<!ENTITY ns_ai "http://ns.adobe.com/AdobeIllustrator/10.0/">
	<!ENTITY ns_graphs "http://ns.adobe.com/Graphs/1.0/">
]>
<svg version="1.1" id="Layer_1" xmlns:x="&ns_extend;" xmlns:i="&ns_ai;" xmlns:graph="&ns_graphs;"
	 xmlns="http://www.w3.org/2000/svg" xmlns:xlink="http://www.w3.org/1999/xlink" xmlns:a="http://ns.adobe.com/AdobeSVGViewerExtensions/3.0/"
	 x="0px" y="0px" width="16px" height="16px" viewBox="0 0 16 16" enable-background="new 0 0 16 16" xml:space="preserve">
<path fill="#505050" d="M15.623,11.872c-0.214-0.194-0.484-0.284-0.759-0.252c-0.243,0.028-0.526,0.077-0.832,0.136V4.004
	c0-0.527-0.423-0.957-0.944-0.957h-1.51V2.12c0-1.168-0.938-2.12-2.09-2.12s-2.09,0.951-2.09,2.12v0.927H5.888
	c-0.52,0-0.943,0.43-0.943,0.957v4.965C4.279,9.087,3.427,9.353,2.74,9.948c-0.227,0.196-0.408,0.382-0.552,0.551
	c-0.152-0.193-0.386-0.317-0.649-0.317H0.355C0.159,10.182,0,10.343,0,10.542v5.097c0,0.096,0.038,0.188,0.104,0.255
	C0.171,15.962,0.261,16,0.355,16h1.184c0.458,0,0.831-0.378,0.831-0.843V14.88c0.354,0.022,1.156,0.111,2.854,0.435
	c2.005,0.382,3.256,0.512,4.241,0.512c0.707,0,1.277-0.066,1.89-0.154c0.758-0.108,1.712-0.382,2.553-0.624
	c0.39-0.112,0.757-0.217,1.083-0.3C15.869,14.523,16,13.962,16,13.647v-0.919C16,12.406,15.859,12.085,15.623,11.872z M8.11,2.12
	c0-0.771,0.618-1.398,1.378-1.398c0.76,0,1.378,0.627,1.378,1.398v0.927H8.11V2.12L8.11,2.12z M5.656,4.004
	c0-0.13,0.104-0.235,0.232-0.235h1.511v0.796c0,0.2,0.159,0.361,0.356,0.361c0.196,0,0.355-0.161,0.355-0.361V3.769h2.757v0.796
	c0,0.2,0.159,0.361,0.355,0.361s0.356-0.161,0.356-0.361V3.769h1.51c0.128,0,0.232,0.105,0.232,0.235v7.861
	c0,0.012,0,0.023,0.001,0.035c-0.054,0.011-0.107,0.022-0.162,0.034c-0.863,0.181-1.756,0.367-2.439,0.411
	c-0.59,0.038-1.665-0.119-1.983-0.288c-0.215-0.114-0.335-0.254-0.402-0.378h1.325c0.546,0,0.991-0.451,0.991-1.005v-0.79
	c0-0.554-0.445-1.005-0.991-1.005H6.029C5.993,8.877,5.857,8.874,5.656,8.886V4.004L5.656,4.004z M1.659,15.157
	c0,0.067-0.054,0.121-0.12,0.121H0.711v-4.375h0.828c0.066,0,0.12,0.054,0.12,0.121V15.157L1.659,15.157z M15.289,13.648
	c0,0.076,0,0.28-0.471,0.4c-0.335,0.086-0.708,0.193-1.103,0.306c-0.82,0.235-1.749,0.502-2.459,0.604
	c-1.399,0.2-2.566,0.283-5.901-0.352C3.64,14.279,2.789,14.18,2.37,14.158v-2.679c0.013-0.016,0.024-0.033,0.035-0.052
	c0.091-0.168,0.315-0.514,0.796-0.93C4.298,9.548,5.993,9.599,6.009,9.6c0.005,0,0.009,0,0.014,0h3.637
	c0.154,0,0.28,0.127,0.28,0.284v0.79c0,0.157-0.125,0.284-0.28,0.284H6.023c-0.197,0-0.356,0.161-0.356,0.36
	s0.159,0.361,0.356,0.361h1.557c0.073,0.296,0.275,0.724,0.828,1.017c0.505,0.269,1.759,0.407,2.358,0.369
	c0.733-0.047,1.651-0.239,2.538-0.424c0.623-0.13,1.211-0.253,1.641-0.303c0.09-0.01,0.161,0.034,0.205,0.073
	c0.085,0.078,0.139,0.2,0.139,0.318V13.648L15.289,13.648z"/>
</svg>
