<?xml version="1.0" encoding="utf-8"?>
<!-- Generator: Adobe Illustrator 16.0.0, SVG Export Plug-In . SVG Version: 6.00 Build 0)  -->
<!DOCTYPE svg PUBLIC "-//W3C//DTD SVG 1.1//EN" "http://www.w3.org/Graphics/SVG/1.1/DTD/svg11.dtd" [
	<!ENTITY ns_flows "http://ns.adobe.com/Flows/1.0/">
	<!ENTITY ns_extend "http://ns.adobe.com/Extensibility/1.0/">
	<!ENTITY ns_ai "http://ns.adobe.com/AdobeIllustrator/10.0/">
	<!ENTITY ns_graphs "http://ns.adobe.com/Graphs/1.0/">
]>
<svg version="1.1" id="Layer_1" xmlns:x="&ns_extend;" xmlns:i="&ns_ai;" xmlns:graph="&ns_graphs;"
	 xmlns="http://www.w3.org/2000/svg" xmlns:xlink="http://www.w3.org/1999/xlink" xmlns:a="http://ns.adobe.com/AdobeSVGViewerExtensions/3.0/"
	 x="0px" y="0px" width="12.99px" height="16px" viewBox="0 0 12.99 16" enable-background="new 0 0 12.99 16" xml:space="preserve"
	>
<path fill="#505050" d="M12.977,15.466L11.92,5.028c-0.022-0.22-0.212-0.388-0.439-0.388H9.505V2.938C9.505,1.317,8.153,0,6.493,0
	C4.832,0,3.48,1.317,3.48,2.938v1.703H1.504c-0.227,0-0.417,0.167-0.439,0.388L0.002,15.527c-0.012,0.121,0.028,0.242,0.112,0.332
	C0.198,15.949,0.317,16,0.441,16h12.103c0.001,0,0.003,0,0.004,0c0.244,0,0.441-0.193,0.441-0.431
	C12.99,15.534,12.985,15.5,12.977,15.466z M4.364,2.938c0-1.145,0.955-2.076,2.129-2.076s2.129,0.931,2.129,2.076v1.703H4.364V2.938
	z M1.904,5.501H3.48v0.872c0,0.237,0.198,0.43,0.442,0.43c0.244,0,0.441-0.193,0.441-0.43V5.501h4.258v0.872
	c0,0.237,0.198,0.43,0.441,0.43c0.244,0,0.442-0.193,0.442-0.43V5.501h1.576l0.804,7.937H1.101L1.904,5.501z M0.929,15.139
	l0.085-0.839h10.958l0.085,0.839H0.929z"/>
</svg>
