<?xml version="1.0" encoding="utf-8"?>
<!-- Generator: Adobe Illustrator 16.0.0, SVG Export Plug-In . SVG Version: 6.00 Build 0)  -->
<!DOCTYPE svg PUBLIC "-//W3C//DTD SVG 1.1//EN" "http://www.w3.org/Graphics/SVG/1.1/DTD/svg11.dtd" [
	<!ENTITY ns_flows "http://ns.adobe.com/Flows/1.0/">
	<!ENTITY ns_extend "http://ns.adobe.com/Extensibility/1.0/">
	<!ENTITY ns_ai "http://ns.adobe.com/AdobeIllustrator/10.0/">
	<!ENTITY ns_graphs "http://ns.adobe.com/Graphs/1.0/">
]>
<svg version="1.1" id="Layer_1" xmlns:x="&ns_extend;" xmlns:i="&ns_ai;" xmlns:graph="&ns_graphs;"
	 xmlns="http://www.w3.org/2000/svg" xmlns:xlink="http://www.w3.org/1999/xlink" xmlns:a="http://ns.adobe.com/AdobeSVGViewerExtensions/3.0/"
	 x="0px" y="0px" width="17px" height="17px" viewBox="0 0 17 17" enable-background="new 0 0 17 17" xml:space="preserve">
<path fill="#505050" d="M16.293,5.653L8.5,1.779L0.707,5.653L0,4.229l8.489-4.221L8.492,0L8.5,0.004L8.508,0l0.003,0.01L17,4.229
	L16.293,5.653z M15.867,7.233c0,0.027,0,0.504,0,1.235v8.229H9.764C9.556,16.874,9.061,17,8.479,17c-0.579,0-1.073-0.126-1.28-0.305
	H1.133V8.467c0-0.731,0-1.207,0-1.235c4.003-1.724,6.929-0.031,7.439,0.457C8.96,7.331,12.026,5.542,15.867,7.233z M8.028,9.215
	c0-1.226-1.629-1.886-3.641-1.886c-0.968,0-1.844,0.228-2.495,0.603v8.022c3.289-2.068,6.136-0.173,6.136,0.151V9.215z
	 M15.153,7.932c-0.649-0.375-1.526-0.603-2.494-0.603c-2.01,0-3.64,0.66-3.64,1.886v6.891c0-0.324,2.848-2.22,6.134-0.151V7.932z"/>
</svg>
