<?xml version="1.0" encoding="utf-8"?>
<!-- Generator: Adobe Illustrator 16.0.0, SVG Export Plug-In . SVG Version: 6.00 Build 0)  -->
<!DOCTYPE svg PUBLIC "-//W3C//DTD SVG 1.1//EN" "http://www.w3.org/Graphics/SVG/1.1/DTD/svg11.dtd" [
	<!ENTITY ns_flows "http://ns.adobe.com/Flows/1.0/">
	<!ENTITY ns_extend "http://ns.adobe.com/Extensibility/1.0/">
	<!ENTITY ns_ai "http://ns.adobe.com/AdobeIllustrator/10.0/">
	<!ENTITY ns_graphs "http://ns.adobe.com/Graphs/1.0/">
]>
<svg version="1.1" id="Layer_1" xmlns:x="&ns_extend;" xmlns:i="&ns_ai;" xmlns:graph="&ns_graphs;"
	 xmlns="http://www.w3.org/2000/svg" xmlns:xlink="http://www.w3.org/1999/xlink" xmlns:a="http://ns.adobe.com/AdobeSVGViewerExtensions/3.0/"
	 x="0px" y="0px" width="15px" height="16px" viewBox="0 0 15 16" enable-background="new 0 0 15 16" xml:space="preserve">
<path fill="#505050" d="M14.525,6.46c-0.469-0.479-0.993-0.568-1.45-0.478l0.035-0.196c0-0.192,0-0.482-0.189-0.674
	c-0.188-0.193-0.377-0.289-0.66-0.289H0.849c-0.283,0-0.472,0.096-0.661,0.289C0,5.305,0,5.498,0,5.787l0.754,4.24
	c0.377,2.312,2.358,4.047,4.716,4.047H7.64c2.349,0,4.322-1.627,4.709-4.022c0.167,0.042,0.324,0.071,0.478,0.071
	c0.754,0,1.415-0.385,1.792-1.06C15.186,8.195,15.091,7.039,14.525,6.46z M7.64,13.206H5.471c-1.887,0-3.49-1.349-3.773-3.276
	l-0.66-4.047h11.036l-0.661,4.047C11.13,11.856,9.526,13.206,7.64,13.206z M13.771,8.484c-0.163,0.333-0.537,0.662-1.241,0.562
	l0.376-2.115c0.208-0.127,0.509-0.255,0.864,0.107C14.054,7.328,14.054,8.002,13.771,8.484z"/>
<path fill="#505050" d="M3.867,2.991c0,0.578,0.283,0.964,0.283,1.06c0.095,0.096,0.189,0.193,0.377,0.193c0.094,0,0.094,0,0.283,0
	c0.283-0.193,0.283-0.482,0.189-0.675c0,0-0.189-0.289-0.189-0.578s0.189-0.578,0.189-0.578s0.283-0.482,0.283-1.06
	S4.999,0.39,4.999,0.293C4.81,0.004,4.527,0.004,4.339,0.101C4.056,0.293,4.056,0.583,4.15,0.775c0,0,0.189,0.289,0.189,0.578
	S4.15,1.931,4.15,1.931S3.867,2.413,3.867,2.991z"/>
<path fill="#505050" d="M5.942,2.991c0,0.578,0.283,1.06,0.283,1.06c0.094,0.096,0.188,0.193,0.377,0.193c0.094,0,0.188,0,0.283,0
	c0.283-0.193,0.283-0.482,0.189-0.675c0,0-0.189-0.289-0.189-0.578s0.189-0.578,0.189-0.578s0.283-0.482,0.283-1.06
	S7.074,0.39,7.074,0.293C6.885,0.004,6.603,0.004,6.414,0.101C6.131,0.293,6.131,0.583,6.225,0.775c0,0,0.188,0.289,0.188,0.578
	S6.225,1.931,6.225,1.931S5.942,2.413,5.942,2.991z"/>
<path fill="#505050" d="M8.017,2.991c0,0.578,0.283,1.06,0.283,1.06c0.094,0.096,0.188,0.193,0.377,0.193c0.094,0,0.188,0,0.283,0
	c0.283-0.193,0.283-0.482,0.188-0.675c0,0-0.188-0.289-0.188-0.578s0.188-0.578,0.188-0.578s0.283-0.482,0.283-1.06
	S9.149,0.39,9.149,0.293C8.96,0.004,8.772-0.092,8.489,0.101C8.206,0.293,8.206,0.583,8.3,0.775c0,0,0.188,0.289,0.188,0.578
	S8.3,1.931,8.3,1.931S8.017,2.413,8.017,2.991z"/>
<path fill="#505050" d="M12.733,15.036H0.472C0.188,15.036,0,15.229,0,15.518S0.188,16,0.472,16h12.262
	c0.283,0,0.472-0.193,0.472-0.482S13.016,15.036,12.733,15.036z"/>
</svg>
