<?xml version="1.0" encoding="utf-8"?>
<!-- Generator: Adobe Illustrator 16.0.0, SVG Export Plug-In . SVG Version: 6.00 Build 0)  -->
<!DOCTYPE svg PUBLIC "-//W3C//DTD SVG 1.1//EN" "http://www.w3.org/Graphics/SVG/1.1/DTD/svg11.dtd" [
	<!ENTITY ns_flows "http://ns.adobe.com/Flows/1.0/">
	<!ENTITY ns_extend "http://ns.adobe.com/Extensibility/1.0/">
	<!ENTITY ns_ai "http://ns.adobe.com/AdobeIllustrator/10.0/">
	<!ENTITY ns_graphs "http://ns.adobe.com/Graphs/1.0/">
]>
<svg version="1.1" id="Layer_1" xmlns:x="&ns_extend;" xmlns:i="&ns_ai;" xmlns:graph="&ns_graphs;"
	 xmlns="http://www.w3.org/2000/svg" xmlns:xlink="http://www.w3.org/1999/xlink" xmlns:a="http://ns.adobe.com/AdobeSVGViewerExtensions/3.0/"
	 x="0px" y="0px" width="16px" height="15.01px" viewBox="0 0 16 15.01" enable-background="new 0 0 16 15.01" xml:space="preserve"
	>
<path fill="#505150" d="M15.157,12.429c-0.187-3.333-2.666-6.065-5.884-6.644C9.319,5.65,9.345,5.504,9.345,5.354
	C9.345,4.612,8.742,4.01,8,4.01S6.655,4.612,6.655,5.354c0,0.151,0.025,0.296,0.072,0.432c-3.218,0.579-5.696,3.311-5.883,6.644
	C0.348,12.634,0,13.111,0,13.666c0,0.741,0.621,1.344,1.385,1.344h13.23c0.764,0,1.385-0.603,1.385-1.344
	C16,13.111,15.652,12.634,15.157,12.429z M7.681,5.354c0-0.176,0.144-0.319,0.319-0.319s0.319,0.143,0.319,0.319
	S8.176,5.672,8,5.672S7.681,5.529,7.681,5.354z M8,6.697c3.214,0,5.86,2.479,6.121,5.625H1.879C2.14,9.177,4.786,6.697,8,6.697z
	 M14.615,13.985H1.385c-0.195,0-0.359-0.146-0.359-0.319s0.165-0.319,0.359-0.319h13.23c0.195,0,0.359,0.146,0.359,0.319
	S14.81,13.985,14.615,13.985z"/>
<path fill="#505150" d="M12.689,5.882c0.06,0.089,0.161,0.138,0.264,0.138c0.059,0,0.118-0.016,0.17-0.048
	c0.146-0.09,0.188-0.276,0.093-0.415c-0.009-0.014-0.977-1.481-0.156-2.481c0.454-0.553,0.533-1.249,0.229-2.014
	c-0.217-0.546-0.557-0.938-0.571-0.954c-0.111-0.127-0.31-0.144-0.442-0.038c-0.133,0.106-0.151,0.295-0.04,0.422
	c0.015,0.018,1.092,1.282,0.329,2.212C11.468,4.042,12.639,5.808,12.689,5.882z"/>
<path fill="#505150" d="M14.798,5.882c0.061,0.089,0.161,0.138,0.264,0.138c0.059,0,0.118-0.016,0.17-0.048
	c0.146-0.09,0.188-0.276,0.093-0.415c-0.009-0.014-0.977-1.481-0.156-2.481c0.454-0.553,0.533-1.249,0.229-2.014
	c-0.217-0.546-0.557-0.938-0.571-0.954c-0.111-0.127-0.31-0.144-0.442-0.038c-0.133,0.106-0.151,0.295-0.04,0.422
	c0.011,0.013,1.093,1.281,0.329,2.212C13.577,4.042,14.748,5.808,14.798,5.882z"/>
<path fill="#505150" d="M1.605,6.021c0.06,0.089,0.161,0.138,0.264,0.138c0.059,0,0.118-0.016,0.17-0.048
	c0.146-0.09,0.188-0.276,0.093-0.415c-0.01-0.015-0.977-1.481-0.156-2.481C2.43,2.662,2.509,1.965,2.206,1.201
	c-0.217-0.546-0.556-0.937-0.57-0.954C1.524,0.12,1.326,0.103,1.192,0.209c-0.133,0.106-0.15,0.295-0.04,0.422
	c0.011,0.013,1.093,1.281,0.329,2.211C0.384,4.182,1.555,5.947,1.605,6.021z"/>
<path fill="#505150" d="M3.714,6.021c0.06,0.089,0.161,0.138,0.264,0.138c0.059,0,0.118-0.016,0.17-0.048
	c0.146-0.09,0.188-0.276,0.093-0.415c-0.01-0.015-0.977-1.481-0.156-2.481c0.454-0.553,0.533-1.249,0.229-2.014
	C4.098,0.655,3.758,0.264,3.744,0.247C3.633,0.12,3.435,0.103,3.301,0.209c-0.133,0.106-0.15,0.295-0.04,0.422
	c0.011,0.013,1.093,1.281,0.329,2.211C2.493,4.182,3.664,5.947,3.714,6.021z"/>
</svg>
