<?xml version="1.0" encoding="utf-8"?>
<!-- Generator: Adobe Illustrator 21.0.0, SVG Export Plug-In . SVG Version: 6.00 Build 0)  -->
<svg version="1.1" id="Layer_1" xmlns="http://www.w3.org/2000/svg" xmlns:xlink="http://www.w3.org/1999/xlink" x="0px" y="0px"
	 viewBox="0 0 16 16" style="enable-background:new 0 0 16 16;" xml:space="preserve">
<style type="text/css">
	.st0{fill:none;stroke:#848484;stroke-miterlimit:10;}
	.st1{fill:#848484;}
</style>
<circle class="st0" cx="8" cy="8" r="7.4"/>
<path class="st1" d="M10.9,8.3H5.1c-0.1,0-0.2-0.1-0.2-0.2V7.9c0-0.1,0.1-0.2,0.2-0.2h5.9c0.1,0,0.2,0.1,0.2,0.2v0.1
	C11.2,8.2,11.1,8.3,10.9,8.3z"/>
<path class="st1" d="M11,6.7H5.1C5,6.7,4.9,6.6,4.9,6.5V6.4c0-0.1,0.1-0.2,0.2-0.2H11c0.1,0,0.2,0.1,0.2,0.2v0.1
	C11.2,6.6,11.1,6.7,11,6.7z"/>
<path class="st1" d="M11,9.9H5.1C5,9.9,4.9,9.8,4.9,9.6V9.5c0-0.1,0.1-0.2,0.2-0.2H11c0.1,0,0.2,0.1,0.2,0.2v0.1
	C11.2,9.8,11.1,9.9,11,9.9z"/>
</svg>
