<svg
        xmlns="http://www.w3.org/2000/svg"
        xmlns:xlink="http://www.w3.org/1999/xlink"
        width="35px" height="35px">
    <path fill-rule="evenodd"  fill="rgb(172, 172, 172)"
          d="M34.816,29.181 L29.739,21.528 C28.620,19.841 26.946,18.718 25.133,18.398 C26.311,16.472 26.942,14.207 26.942,11.820 C26.942,5.302 22.132,0.000 16.218,0.000 C10.305,0.000 5.494,5.302 5.494,11.820 C5.494,14.103 6.086,16.320 7.206,18.229 C8.185,19.898 9.521,21.260 11.095,22.204 C11.386,23.502 12.446,24.477 13.694,24.507 L20.100,24.664 C20.267,24.668 20.371,24.767 20.419,24.826 C20.466,24.885 20.544,25.011 20.528,25.193 C20.507,25.441 20.316,25.633 20.091,25.633 C20.088,25.633 20.086,25.633 20.084,25.633 L12.724,25.507 C12.319,25.500 11.922,25.340 11.609,25.056 L5.093,19.147 C3.849,18.020 2.013,18.153 0.914,19.450 C0.354,20.110 0.063,20.971 0.092,21.874 C0.122,22.776 0.470,23.611 1.071,24.225 L9.356,32.679 C10.380,33.725 11.713,34.328 13.109,34.380 L25.413,34.832 C25.425,34.833 25.437,34.833 25.450,34.833 C26.035,34.833 26.519,34.321 26.538,33.673 C26.558,33.010 26.087,32.454 25.485,32.431 L13.182,31.979 C12.310,31.947 11.477,31.569 10.837,30.916 L2.552,22.463 C2.379,22.286 2.280,22.046 2.271,21.786 C2.262,21.527 2.346,21.280 2.507,21.090 C2.823,20.717 3.350,20.679 3.708,21.003 L10.225,26.911 C10.918,27.539 11.793,27.894 12.691,27.909 L20.050,28.035 C20.063,28.035 20.077,28.035 20.090,28.035 C21.432,28.035 22.574,26.893 22.699,25.416 C22.766,24.622 22.528,23.824 22.046,23.228 C21.565,22.632 20.873,22.280 20.149,22.263 L13.743,22.105 C13.454,22.098 13.214,21.843 13.196,21.525 C13.184,21.296 13.284,21.141 13.345,21.068 C13.406,20.996 13.539,20.874 13.747,20.871 L23.980,20.707 C24.032,20.706 24.084,20.706 24.136,20.707 C25.629,20.732 27.066,21.569 27.979,22.946 L33.057,30.599 C33.412,31.135 34.094,31.251 34.580,30.859 C35.065,30.468 35.171,29.716 34.816,29.181 ZM13.716,18.468 C12.971,18.481 12.254,18.833 11.747,19.434 C11.674,19.520 11.607,19.611 11.545,19.706 C10.546,18.986 9.691,18.041 9.036,16.926 C8.145,15.405 7.673,13.640 7.673,11.820 C7.673,6.627 11.507,2.403 16.218,2.403 C20.930,2.403 24.763,6.627 24.763,11.820 C24.763,14.276 23.924,16.570 22.393,18.330 L16.944,18.417 L16.944,17.981 C18.360,17.616 19.418,16.216 19.418,14.546 C19.418,12.877 18.360,11.476 16.944,11.112 L16.944,7.344 C17.546,7.648 17.965,8.318 17.965,9.094 C17.965,9.536 18.290,9.895 18.691,9.895 C19.093,9.895 19.418,9.536 19.418,9.094 C19.418,7.425 18.360,6.023 16.944,5.659 L16.944,5.104 C16.944,4.662 16.619,4.304 16.218,4.304 C15.817,4.304 15.491,4.662 15.491,5.104 L15.491,5.659 C14.076,6.023 13.018,7.425 13.018,9.094 C13.018,10.763 14.076,12.164 15.491,12.528 L15.491,16.296 C14.890,15.992 14.471,15.322 14.471,14.546 C14.471,14.104 14.146,13.746 13.744,13.746 C13.343,13.746 13.018,14.104 13.018,14.546 C13.018,16.216 14.076,17.616 15.491,17.981 L15.491,18.440 L13.716,18.468 ZM15.491,10.844 C14.890,10.540 14.471,9.870 14.471,9.094 C14.471,8.318 14.890,7.648 15.491,7.344 L15.491,10.844 ZM16.944,12.796 C17.546,13.100 17.965,13.771 17.965,14.546 C17.965,15.322 17.546,15.992 16.944,16.296 L16.944,12.796 Z"/>
</svg>