<svg
        xmlns="http://www.w3.org/2000/svg"
        xmlns:xlink="http://www.w3.org/1999/xlink"
        width="51px" height="63px">
    <path fill-rule="evenodd"  fill="rgb(20, 151, 24)"
          d="M48.309,63.000 L2.807,63.000 C1.236,63.000 0.004,61.815 0.004,60.550 L0.004,11.168 C0.004,9.902 1.236,9.100 2.807,9.100 L9.565,9.100 C9.565,7.687 10.997,6.533 12.751,6.533 L19.184,6.533 C19.056,6.121 18.979,5.694 18.979,5.250 C18.979,2.355 21.904,0.000 25.498,0.000 C29.094,0.000 32.017,2.355 32.017,5.250 C32.017,5.694 31.942,6.121 31.813,6.533 L38.247,6.533 C39.999,6.533 41.433,7.687 41.433,9.100 L48.308,9.100 C49.879,9.100 50.994,9.902 50.994,11.168 L50.994,60.550 C50.994,61.815 49.879,63.000 48.309,63.000 ZM25.498,2.800 C23.820,2.800 22.456,3.899 22.456,5.250 C22.456,5.722 22.631,6.159 22.919,6.533 C22.975,6.606 23.038,6.674 23.101,6.741 C23.135,6.777 23.170,6.810 23.206,6.843 C23.298,6.930 23.400,7.011 23.507,7.087 C23.574,7.136 23.644,7.184 23.719,7.229 C23.780,7.265 23.845,7.298 23.909,7.330 C24.009,7.380 24.111,7.425 24.218,7.466 C24.260,7.481 24.299,7.500 24.342,7.514 C24.495,7.565 24.657,7.604 24.821,7.634 C24.865,7.643 24.912,7.650 24.958,7.657 C25.135,7.682 25.313,7.700 25.498,7.700 C25.683,7.700 25.863,7.682 26.039,7.656 C26.085,7.649 26.131,7.643 26.177,7.634 C26.342,7.603 26.501,7.564 26.656,7.514 C26.698,7.500 26.737,7.481 26.780,7.465 C26.885,7.425 26.988,7.380 27.087,7.330 C27.153,7.297 27.218,7.264 27.279,7.228 C27.354,7.184 27.421,7.135 27.491,7.086 C27.598,7.010 27.699,6.929 27.792,6.842 C27.827,6.810 27.863,6.777 27.895,6.741 C27.959,6.674 28.023,6.606 28.078,6.533 C28.367,6.159 28.540,5.722 28.540,5.250 C28.540,3.899 27.175,2.800 25.498,2.800 ZM47.807,11.666 L41.433,11.666 L41.433,14.233 L38.247,14.233 L12.751,14.233 L9.565,14.233 L9.565,11.666 L3.192,11.666 L3.192,60.433 L47.807,60.433 L47.807,11.666 ZM44.621,46.434 L6.378,46.434 L6.378,43.633 L44.621,43.633 L44.621,46.434 ZM44.621,51.566 L6.378,51.566 L6.378,48.767 L44.621,48.767 L44.621,51.566 ZM44.621,56.700 L6.378,56.700 L6.378,53.900 L44.621,53.900 L44.621,56.700 Z"/>
    <path fill-rule="evenodd"  fill="rgb(20, 151, 24)"
          d="M34.362,22.085 C33.714,21.516 32.730,21.568 32.160,22.215 L23.640,31.671 L19.368,27.563 C18.746,26.968 17.762,26.994 17.166,27.614 C16.571,28.235 16.597,29.217 17.218,29.811 L22.656,35.030 C22.941,35.315 23.330,35.470 23.744,35.470 C23.770,35.470 23.770,35.470 23.796,35.470 C24.210,35.444 24.624,35.263 24.883,34.954 L34.465,24.307 C35.061,23.636 35.009,22.653 34.362,22.085 Z"/>
</svg>