<svg
        xmlns="http://www.w3.org/2000/svg"
        xmlns:xlink="http://www.w3.org/1999/xlink"
        width="14px" height="13px">
    <path fill-rule="evenodd"  fill="rgb(255, 255, 255)"
          d="M12.817,11.841 L9.608,8.623 C10.434,7.678 10.886,6.488 10.886,5.249 C10.886,2.354 8.444,0.000 5.442,0.000 C2.441,0.000 -0.001,2.354 -0.001,5.249 C-0.001,8.143 2.441,10.498 5.442,10.498 C6.569,10.498 7.643,10.170 8.561,9.548 L11.794,12.790 C11.929,12.925 12.111,13.000 12.306,13.000 C12.490,13.000 12.665,12.932 12.798,12.809 C13.080,12.547 13.089,12.113 12.817,11.841 ZM5.442,1.370 C7.661,1.370 9.466,3.110 9.466,5.249 C9.466,7.388 7.661,9.129 5.442,9.129 C3.224,9.129 1.419,7.388 1.419,5.249 C1.419,3.110 3.224,1.370 5.442,1.370 Z"/>
</svg>