<svg
        xmlns="http://www.w3.org/2000/svg"
        xmlns:xlink="http://www.w3.org/1999/xlink"
        width="51px" height="46px">
    <path fill-rule="evenodd"  fill="rgb(255, 255, 255)"
          d="M39.726,45.486 C33.915,45.486 29.117,41.054 28.511,35.381 L23.417,35.381 C22.811,41.054 18.013,45.486 12.202,45.486 C5.981,45.486 0.920,40.407 0.920,34.166 C0.920,27.924 5.981,22.846 12.202,22.846 C13.253,22.846 14.269,22.994 15.235,23.265 L18.244,19.564 C16.054,17.498 14.683,14.567 14.683,11.319 C14.683,5.078 19.743,-0.000 25.964,-0.000 C32.185,-0.000 37.246,5.079 37.246,11.319 C37.246,14.567 35.874,17.498 33.684,19.564 L36.693,23.265 C37.659,22.994 38.675,22.846 39.726,22.846 C45.947,22.846 51.008,27.924 51.008,34.166 C51.008,40.408 45.947,45.486 39.726,45.486 ZM12.202,25.004 C7.167,25.004 3.070,29.113 3.070,34.166 C3.070,39.218 7.167,43.328 12.202,43.328 C17.237,43.328 21.333,39.218 21.333,34.166 C21.333,29.113 17.237,25.004 12.202,25.004 ZM35.095,11.319 C35.095,6.268 30.999,2.158 25.964,2.158 C20.929,2.158 16.833,6.268 16.833,11.319 C16.833,16.372 20.929,20.482 25.964,20.482 C30.999,20.482 35.095,16.372 35.095,11.319 ZM32.205,20.744 C30.417,21.940 28.271,22.639 25.964,22.639 C23.658,22.639 21.511,21.940 19.723,20.744 L17.100,23.970 C20.681,25.709 23.211,29.294 23.461,33.485 L28.467,33.485 C28.717,29.294 31.247,25.709 34.828,23.970 L32.205,20.744 ZM39.726,25.004 C34.692,25.004 30.596,29.113 30.596,34.166 C30.596,39.218 34.692,43.328 39.726,43.328 C44.762,43.328 48.858,39.218 48.858,34.166 C48.858,29.113 44.761,25.004 39.726,25.004 ZM43.559,36.039 C43.559,38.216 41.954,39.679 39.565,39.679 C38.364,39.679 37.075,39.265 36.119,38.573 C35.901,38.414 35.831,38.120 35.956,37.880 L36.449,36.933 C36.525,36.787 36.661,36.683 36.821,36.651 C36.981,36.618 37.147,36.659 37.273,36.763 C37.899,37.279 38.704,37.573 39.481,37.573 C40.668,37.573 41.376,37.015 41.376,36.082 C41.376,35.195 40.734,34.746 39.468,34.746 L38.255,34.746 C37.956,34.746 37.713,34.502 37.713,34.202 L37.713,33.481 C37.713,33.346 37.763,33.217 37.853,33.117 L39.924,30.815 L36.875,30.815 C36.576,30.815 36.333,30.572 36.333,30.272 L36.333,29.197 C36.333,28.896 36.576,28.652 36.875,28.652 L42.553,28.652 C42.852,28.652 43.095,28.896 43.095,29.197 L43.095,29.959 C43.095,30.094 43.045,30.223 42.955,30.324 L40.625,32.922 C42.425,33.198 43.559,34.378 43.559,36.039 ZM26.768,16.812 L25.655,16.812 C25.355,16.812 25.113,16.569 25.113,16.268 L25.113,7.991 L23.655,7.991 C23.355,7.991 23.113,7.746 23.113,7.447 L23.113,6.372 C23.113,6.070 23.355,5.827 23.655,5.827 L26.768,5.827 C27.067,5.827 27.310,6.070 27.310,6.372 L27.310,16.268 C27.310,16.569 27.067,16.812 26.768,16.812 ZM15.646,39.679 L8.867,39.679 C8.567,39.679 8.325,39.436 8.325,39.136 L8.325,38.202 C8.325,38.067 8.376,37.934 8.468,37.834 L12.161,33.805 C12.166,33.800 12.172,33.794 12.177,33.789 C13.002,32.961 13.371,32.186 13.371,31.784 C13.371,30.960 12.593,30.787 11.939,30.787 C11.187,30.787 10.322,31.189 9.626,31.864 C9.504,31.983 9.335,32.036 9.167,32.011 C9.000,31.986 8.854,31.883 8.773,31.733 L8.281,30.828 C8.161,30.607 8.208,30.331 8.395,30.163 C9.462,29.203 10.806,28.652 12.081,28.652 C14.199,28.652 15.623,29.849 15.623,31.629 C15.623,32.913 14.595,34.286 13.731,35.210 L11.562,37.516 L15.646,37.516 C15.945,37.516 16.188,37.760 16.188,38.061 L16.188,39.136 C16.188,39.436 15.945,39.679 15.646,39.679 Z"/>
</svg>