<svg
        xmlns="http://www.w3.org/2000/svg"
        xmlns:xlink="http://www.w3.org/1999/xlink"
        width="30px" height="30px">
    <path fill-rule="evenodd"  fill="rgb(20, 151, 24)"
          d="M15.000,30.000 C6.729,30.000 0.000,23.271 0.000,15.000 C0.000,6.729 6.729,-0.000 15.000,-0.000 C23.271,-0.000 30.000,6.729 30.000,15.000 C30.000,23.271 23.271,30.000 15.000,30.000 ZM15.000,1.967 C7.814,1.967 1.967,7.814 1.967,15.000 C1.967,22.185 7.814,28.032 15.000,28.032 C22.186,28.032 28.033,22.185 28.033,15.000 C28.033,7.814 22.186,1.967 15.000,1.967 ZM15.983,16.321 L15.983,18.866 C15.983,19.408 15.543,19.849 15.000,19.849 C14.457,19.849 14.016,19.408 14.016,18.866 L14.016,15.439 C14.016,14.895 14.457,14.455 15.000,14.455 C16.554,14.455 17.817,13.192 17.817,11.638 C17.817,10.085 16.554,8.821 15.000,8.821 C13.446,8.821 12.183,10.085 12.183,11.638 C12.183,12.181 11.742,12.622 11.199,12.622 C10.656,12.622 10.215,12.181 10.215,11.638 C10.215,9.000 12.362,6.854 15.000,6.854 C17.638,6.854 19.784,9.000 19.784,11.638 C19.784,13.939 18.151,15.865 15.983,16.321 ZM15.000,20.531 C15.682,20.531 16.235,21.083 16.235,21.765 C16.235,22.447 15.682,23.000 15.000,23.000 C14.319,23.000 13.765,22.447 13.765,21.765 C13.765,21.083 14.319,20.531 15.000,20.531 Z"/>
</svg>