<svg
        xmlns="http://www.w3.org/2000/svg"
        xmlns:xlink="http://www.w3.org/1999/xlink"
        width="16px" height="16px">
    <path fill-rule="evenodd"  fill="rgb(132, 132, 132)"
          d="M15.737,14.574 L11.797,10.613 C12.810,9.450 13.365,7.984 13.365,6.460 C13.365,2.898 10.367,0.000 6.682,0.000 C2.997,0.000 -0.001,2.898 -0.001,6.460 C-0.001,10.022 2.997,12.920 6.682,12.920 C8.065,12.920 9.384,12.517 10.511,11.751 L14.481,15.742 C14.647,15.908 14.870,16.000 15.109,16.000 C15.335,16.000 15.550,15.917 15.713,15.765 C16.059,15.442 16.071,14.908 15.737,14.574 ZM6.682,1.685 C9.406,1.685 11.622,3.828 11.622,6.460 C11.622,9.093 9.406,11.236 6.682,11.236 C3.958,11.236 1.742,9.093 1.742,6.460 C1.742,3.828 3.958,1.685 6.682,1.685 Z"/>
</svg>