<svg
        xmlns="http://www.w3.org/2000/svg"
        xmlns:xlink="http://www.w3.org/1999/xlink"
        width="30px" height="23px">
    <path fill-rule="evenodd"  fill="rgb(20, 151, 24)"
          d="M19.269,22.655 L29.654,12.306 C29.885,12.075 30.000,11.730 30.000,11.500 C30.000,11.155 29.885,10.925 29.654,10.695 L19.269,0.345 C19.038,0.115 18.808,-0.001 18.462,-0.001 C18.115,-0.001 17.885,0.115 17.654,0.345 L16.038,1.955 C15.577,2.415 15.577,3.105 16.038,3.565 L20.654,8.165 C21.000,8.510 20.769,9.200 20.192,9.200 L1.154,9.200 C0.462,9.200 0.000,9.660 0.000,10.350 L0.000,12.650 C0.000,13.341 0.462,13.800 1.154,13.800 L20.308,13.800 C20.769,13.800 21.115,14.375 20.769,14.835 L16.154,19.434 C15.692,19.896 15.692,20.585 16.154,21.046 L17.769,22.655 C18.000,22.885 18.231,23.000 18.577,23.000 C18.808,23.000 19.038,22.885 19.269,22.655 Z"/>
</svg>