<svg
        xmlns="http://www.w3.org/2000/svg"
        xmlns:xlink="http://www.w3.org/1999/xlink"
        width="9px" height="15px">
    <path fill-rule="evenodd"  fill="rgb(22, 152, 26)"
          d="M7.650,-0.000 L1.350,-0.000 C0.607,-0.000 -0.000,0.632 -0.000,1.406 L-0.000,13.594 C-0.000,14.367 0.607,15.000 1.350,15.000 L7.650,15.000 C8.392,15.000 9.000,14.367 9.000,13.594 L9.000,1.406 C9.000,0.632 8.392,-0.000 7.650,-0.000 ZM2.700,0.704 L6.300,0.704 L6.300,1.172 L2.700,1.172 L2.700,0.704 ZM4.500,14.063 C4.003,14.063 3.600,13.643 3.600,13.125 C3.600,12.607 4.003,12.188 4.500,12.188 C4.997,12.188 5.400,12.607 5.400,13.125 C5.400,13.643 4.997,14.063 4.500,14.063 ZM8.100,11.250 L0.900,11.250 L0.900,1.875 L8.100,1.875 L8.100,11.250 Z"/>
</svg>