<svg xmlns="http://www.w3.org/2000/svg" width="49" height="45" viewBox="0 0 49 45">
  <metadata><?xpacket begin="﻿" id="W5M0MpCehiHzreSzNTczkc9d"?>
<x:xmpmeta xmlns:x="adobe:ns:meta/" x:xmptk="Adobe XMP Core 5.6-c138 79.159824, 2016/09/14-01:09:01        ">
   <rdf:RDF xmlns:rdf="http://www.w3.org/1999/02/22-rdf-syntax-ns#">
      <rdf:Description rdf:about=""/>
   </rdf:RDF>
</x:xmpmeta>
                                                                                                    
                                                                                                    
                                                                                                    
                                                                                                    
                                                                                                    
                                                                                                    
                                                                                                    
                                                                                                    
                                                                                                    
                                                                                                    
                                                                                                    
                                                                                                    
                                                                                                    
                                                                                                    
                                                                                                    
                                                                                                    
                                                                                                    
                                                                                                    
                                                                                                    
                                                                                                    
                           
<?xpacket end="w"?></metadata>
<defs>
    <style>
      .cls-1 {
        fill: #149718;
        fill-rule: evenodd;
      }
    </style>
  </defs>
  <path id="icon-ad4" class="cls-1" d="M1186.14,1398.87a1.194,1.194,0,0,0-.65-0.94l-9.45-4.83a1.148,1.148,0,0,0-1.08,0l-9.45,4.83a1.2,1.2,0,0,0-.65,1.07h0v8.05l-13.18,6.47a1.187,1.187,0,0,0-.68,1.02,1.222,1.222,0,0,0,.57,1.09l8.32,5.03v8.79a1.2,1.2,0,0,0,.65,1.07l14.42,7.35a1.187,1.187,0,0,0,1.08,0l14.42-7.35a1.2,1.2,0,0,0,.65-1.07v-8.79l8.31-5.03a1.21,1.21,0,0,0,.58-1.09,1.187,1.187,0,0,0-.68-1.02l-13.18-6.47v-8.18Zm1.15,11.46-1.15.58v-1.17Zm-11.79-14.82,6.82,3.49-6.82,3.49-6.82-3.49Zm-10.64,14.23v1.17l-1.15-.58Zm-10.16,4.98,6.36-3.05,12.06,6.11-6.39,4.23Zm19.61,20.13-12.04-6.14v-6.61l3.88,2.35a1.194,1.194,0,0,0,.61.17,1.129,1.129,0,0,0,.65-0.2l6.9-4.55v14.98Zm1.19-18.55-8.26-4.18v-11.17l7.72,3.95a1.187,1.187,0,0,0,1.08,0l7.72-3.95v11.17Zm13.24,12.41-12.05,6.14v-14.98l6.9,4.56a1.2,1.2,0,0,0,.65.19,1.1,1.1,0,0,0,.61-0.17l3.89-2.35v6.61Zm-4.47-6.7-6.39-4.23,12.06-6.11,6.36,3.05Z" transform="translate(-1151 -1393)"/>
</svg>
