<svg
        xmlns="http://www.w3.org/2000/svg"
        xmlns:xlink="http://www.w3.org/1999/xlink"
        width="15px" height="15px">
    <path fill-rule="evenodd" fill="#16981A" d="M7.500,15.000 C3.774,15.000 0.001,13.966 0.001,11.990 C0.001,10.644 1.753,9.735 4.049,9.293 C4.283,9.678 4.538,10.079 4.815,10.496 C2.488,10.851 1.298,11.612 1.298,11.990 C1.298,12.495 3.408,13.676 7.500,13.676 C11.592,13.676 13.702,12.495 13.702,11.990 C13.702,11.612 12.512,10.851 10.185,10.496 C10.462,10.079 10.717,9.678 10.951,9.293 C13.247,9.735 14.999,10.644 14.999,11.990 C14.999,13.966 11.227,15.000 7.500,15.000 ZM7.500,11.864 C7.163,11.864 6.846,11.700 6.646,11.423 C5.370,9.645 3.115,6.251 3.115,4.478 C3.115,2.005 5.078,0.000 7.500,0.000 C9.923,0.000 11.886,2.005 11.886,4.478 C11.886,6.251 9.630,9.645 8.354,11.423 C8.155,11.700 7.838,11.864 7.500,11.864 ZM9.324,4.389 C9.324,3.361 8.508,2.527 7.500,2.527 C6.492,2.527 5.676,3.361 5.676,4.389 C5.676,5.418 6.492,6.252 7.500,6.251 C8.508,6.251 9.324,5.418 9.324,4.389 Z"/>
</svg>