<svg
        xmlns="http://www.w3.org/2000/svg"
        xmlns:xlink="http://www.w3.org/1999/xlink"
        width="40px" height="40px">
    <path fill-rule="evenodd"  fill="rgb(80, 80, 80)"
          d="M20.000,40.000 C8.941,40.000 0.000,31.059 0.000,20.000 C0.000,8.941 8.941,-0.000 20.000,-0.000 C31.059,-0.000 40.000,8.941 40.000,20.000 C40.000,31.059 31.059,40.000 20.000,40.000 ZM20.000,2.353 C10.353,2.353 2.353,10.353 2.353,20.000 C2.353,29.647 10.353,37.647 20.000,37.647 C29.647,37.647 37.647,29.647 37.647,20.000 C37.647,10.353 29.647,2.353 20.000,2.353 ZM26.118,16.941 C25.412,16.941 24.941,16.470 24.941,15.765 C24.941,14.374 23.257,13.160 21.177,12.814 L21.177,18.911 C24.623,19.320 27.294,21.485 27.294,24.235 C27.294,26.986 24.624,29.148 21.177,29.560 L21.177,30.588 C21.177,31.294 20.706,31.765 20.000,31.765 C19.294,31.765 18.823,31.294 18.823,30.588 L18.823,29.560 C15.377,29.151 12.706,26.986 12.706,24.235 C12.706,23.529 13.177,23.059 13.882,23.059 C14.588,23.059 15.059,23.530 15.059,24.235 C15.059,25.626 16.744,26.840 18.824,27.186 L18.824,21.089 C15.377,20.680 12.706,18.515 12.706,15.765 C12.706,13.014 15.377,10.852 18.824,10.440 L18.824,9.412 C18.824,8.706 19.294,8.235 20.000,8.235 C20.706,8.235 21.177,8.706 21.177,9.412 L21.177,10.440 C24.624,10.849 27.294,13.014 27.294,15.765 C27.294,16.470 26.824,16.941 26.118,16.941 ZM21.177,27.186 C23.257,26.840 24.941,25.626 24.941,24.235 C24.941,22.845 23.257,21.630 21.177,21.285 L21.177,27.186 ZM18.824,12.814 C16.744,13.160 15.059,14.374 15.059,15.765 C15.059,17.155 16.744,18.369 18.824,18.715 L18.824,12.814 Z"/>
</svg>