<svg
        xmlns="http://www.w3.org/2000/svg"
        xmlns:xlink="http://www.w3.org/1999/xlink"
        width="13px" height="13px">
    <path fill-rule="evenodd"  fill="rgb(20, 151, 24)"
          d="M8.270,10.886 C8.361,10.144 8.201,9.569 7.789,9.162 L11.043,5.889 C11.259,6.103 11.527,6.207 11.846,6.202 C12.165,6.196 12.434,6.082 12.655,5.861 C12.875,5.639 12.987,5.370 12.989,5.051 C12.993,4.733 12.886,4.467 12.670,4.253 L8.679,0.303 C8.463,0.089 8.195,-0.015 7.876,-0.010 C7.557,-0.004 7.288,0.109 7.067,0.331 C6.847,0.553 6.735,0.823 6.732,1.141 C6.729,1.459 6.836,1.725 7.052,1.939 L3.798,5.212 C3.387,4.804 2.809,4.649 2.065,4.746 C1.322,4.842 0.689,5.153 0.168,5.677 C0.058,5.788 0.002,5.923 0.001,6.082 C-0.000,6.241 0.053,6.374 0.161,6.481 L2.680,8.974 L0.072,12.543 C-0.022,12.679 -0.012,12.802 0.100,12.914 L0.106,12.920 C0.156,12.969 0.217,12.993 0.288,12.992 C0.359,12.990 0.425,12.968 0.484,12.926 L3.871,10.153 L6.546,12.801 C6.654,12.908 6.788,12.960 6.948,12.957 C7.107,12.954 7.242,12.898 7.352,12.787 C7.873,12.263 8.179,11.630 8.270,10.886 ZM5.398,6.390 C5.339,6.449 5.272,6.480 5.196,6.481 C5.121,6.482 5.054,6.454 4.996,6.396 C4.937,6.339 4.909,6.273 4.909,6.197 C4.910,6.122 4.940,6.054 4.999,5.995 L7.846,3.132 C7.906,3.072 7.973,3.041 8.049,3.040 C8.124,3.038 8.191,3.067 8.249,3.124 C8.307,3.182 8.336,3.249 8.335,3.324 C8.335,3.399 8.305,3.467 8.245,3.526 L5.398,6.390 Z"/>
</svg>