<svg
        xmlns="http://www.w3.org/2000/svg"
        xmlns:xlink="http://www.w3.org/1999/xlink"
        width="25px" height="25px">
    <path fill-rule="evenodd"  fill="rgb(20, 151, 24)"
          d="M24.512,19.126 L24.219,19.126 L24.219,22.902 C24.219,24.059 23.343,25.001 22.266,25.001 L1.953,25.001 C0.876,25.001 0.000,24.059 0.000,22.902 L0.000,5.280 C0.000,4.123 0.876,3.182 1.953,3.182 L8.203,3.182 C8.238,3.182 8.272,3.187 8.304,3.197 L20.466,0.035 C21.093,-0.129 21.727,0.286 21.879,0.960 L22.380,3.185 C23.404,3.250 24.219,4.165 24.219,5.280 L24.219,8.636 L24.219,12.412 L24.512,12.412 C24.781,12.412 25.000,12.648 25.000,12.937 L25.000,18.602 C25.000,18.891 24.781,19.126 24.512,19.126 ZM23.437,5.280 C23.437,4.702 23.073,4.215 22.579,4.067 L22.774,4.932 C23.017,5.003 23.242,5.123 23.437,5.281 L23.437,5.280 ZM23.437,6.958 C23.437,6.323 22.998,5.797 22.428,5.712 C22.413,5.711 22.397,5.709 22.382,5.706 C22.344,5.701 22.305,5.699 22.266,5.699 L21.875,5.699 C21.660,5.699 21.485,5.512 21.485,5.279 C21.485,5.048 21.660,4.860 21.875,4.860 L21.954,4.860 L21.120,1.158 C21.069,0.934 20.858,0.795 20.650,0.850 L5.228,4.860 L20.313,4.860 C20.528,4.860 20.703,5.048 20.703,5.279 C20.703,5.511 20.528,5.699 20.313,5.699 L1.969,5.699 C1.964,5.699 1.959,5.699 1.954,5.699 L1.953,5.699 C1.953,5.699 1.953,5.699 1.953,5.699 C1.940,5.699 1.926,5.698 1.914,5.697 C1.913,5.697 1.913,5.697 1.913,5.697 C1.900,5.695 1.888,5.694 1.876,5.690 C1.875,5.690 1.874,5.690 1.873,5.690 C1.861,5.687 1.850,5.684 1.839,5.681 C1.838,5.680 1.836,5.679 1.834,5.678 C1.824,5.676 1.814,5.672 1.805,5.667 C1.802,5.666 1.800,5.665 1.797,5.664 C1.788,5.659 1.779,5.655 1.771,5.650 C1.768,5.649 1.766,5.647 1.763,5.646 C1.755,5.640 1.746,5.636 1.738,5.629 C1.736,5.628 1.734,5.627 1.731,5.624 C1.723,5.618 1.715,5.613 1.708,5.606 C1.706,5.604 1.704,5.602 1.702,5.600 C1.694,5.594 1.687,5.586 1.680,5.579 C1.678,5.578 1.676,5.576 1.674,5.573 C1.667,5.565 1.661,5.558 1.654,5.550 C1.652,5.548 1.651,5.545 1.649,5.543 C1.643,5.535 1.637,5.527 1.632,5.518 C1.630,5.515 1.628,5.512 1.626,5.509 C1.621,5.501 1.617,5.493 1.613,5.485 C1.610,5.481 1.608,5.476 1.606,5.472 C1.603,5.464 1.599,5.457 1.596,5.450 C1.594,5.444 1.592,5.438 1.589,5.432 C1.587,5.425 1.585,5.419 1.583,5.412 C1.580,5.405 1.578,5.397 1.577,5.390 C1.576,5.387 1.574,5.383 1.573,5.379 C1.573,5.377 1.573,5.374 1.572,5.372 C1.571,5.365 1.570,5.358 1.568,5.350 C1.567,5.343 1.566,5.336 1.565,5.329 C1.565,5.323 1.564,5.317 1.564,5.311 C1.563,5.302 1.563,5.293 1.563,5.286 C1.563,5.283 1.562,5.282 1.562,5.279 C1.562,5.276 1.563,5.273 1.563,5.269 C1.563,5.260 1.563,5.251 1.564,5.244 C1.565,5.237 1.565,5.232 1.566,5.226 C1.567,5.219 1.568,5.211 1.569,5.204 C1.570,5.197 1.572,5.189 1.573,5.182 C1.575,5.177 1.576,5.171 1.578,5.166 C1.580,5.157 1.582,5.150 1.585,5.142 C1.586,5.137 1.588,5.132 1.589,5.128 C1.592,5.119 1.596,5.112 1.599,5.103 C1.601,5.100 1.602,5.095 1.604,5.091 C1.608,5.083 1.612,5.075 1.617,5.067 C1.619,5.063 1.621,5.060 1.623,5.057 C1.627,5.049 1.632,5.041 1.637,5.034 C1.640,5.031 1.642,5.026 1.645,5.023 C1.650,5.017 1.655,5.009 1.660,5.003 C1.663,4.999 1.666,4.996 1.669,4.993 C1.675,4.986 1.680,4.981 1.686,4.974 C1.689,4.971 1.693,4.967 1.696,4.964 C1.702,4.958 1.709,4.954 1.715,4.947 C1.718,4.944 1.722,4.941 1.726,4.939 C1.733,4.934 1.740,4.928 1.747,4.924 C1.750,4.921 1.753,4.919 1.757,4.917 C1.765,4.912 1.773,4.907 1.782,4.903 C1.784,4.901 1.787,4.900 1.790,4.899 C1.800,4.894 1.809,4.890 1.819,4.886 C1.821,4.886 1.823,4.885 1.825,4.884 C1.836,4.879 1.847,4.876 1.858,4.873 C1.859,4.873 1.860,4.873 1.861,4.872 L1.869,4.870 C1.871,4.870 1.873,4.869 1.875,4.869 L5.134,4.021 L1.953,4.021 C1.307,4.021 0.781,4.585 0.781,5.280 C0.781,5.974 1.307,6.538 1.953,6.538 L22.266,6.538 C22.705,6.538 23.111,6.696 23.437,6.959 L23.437,6.958 ZM23.437,8.636 C23.437,7.942 22.912,7.377 22.266,7.377 L1.953,7.377 C1.514,7.377 1.108,7.222 0.781,6.957 L0.781,22.902 C0.781,23.597 1.307,24.161 1.953,24.161 L22.266,24.161 C22.912,24.161 23.437,23.597 23.437,22.902 L23.437,19.126 L17.725,19.126 C17.429,19.126 17.188,18.867 17.188,18.548 L17.188,12.990 C17.188,12.672 17.429,12.412 17.725,12.412 L23.437,12.412 L23.437,8.636 ZM24.219,13.252 L23.834,13.252 C23.832,13.252 23.830,13.252 23.828,13.252 C23.826,13.252 23.824,13.252 23.822,13.252 L17.969,13.252 L17.969,18.288 L24.219,18.288 L24.219,13.252 ZM20.313,14.510 C20.528,14.510 20.703,14.699 20.703,14.930 C20.703,15.162 20.528,15.350 20.313,15.350 C20.097,15.350 19.922,15.538 19.922,15.769 C19.922,16.001 20.097,16.190 20.313,16.190 C20.528,16.190 20.703,16.001 20.703,15.769 C20.703,15.538 20.878,15.350 21.094,15.350 C21.309,15.350 21.484,15.538 21.484,15.769 C21.484,16.463 20.959,17.028 20.313,17.028 C19.666,17.028 19.141,16.463 19.141,15.769 C19.141,15.076 19.666,14.510 20.313,14.510 Z"/>
</svg>