<svg
        xmlns="http://www.w3.org/2000/svg"
        xmlns:xlink="http://www.w3.org/1999/xlink"
        width="51px" height="41px">
    <path fill-rule="evenodd"  fill="rgb(255, 255, 255)"
          d="M0.427,40.936 L0.427,39.131 L50.515,39.131 L50.515,40.936 L0.427,40.936 ZM42.961,0.003 L46.837,0.003 L46.837,37.926 L42.961,37.926 L42.961,0.003 ZM34.910,16.913 C35.161,15.917 35.304,14.887 35.304,13.832 C35.304,12.778 35.160,11.748 34.910,10.753 L34.910,6.191 L38.787,6.191 L38.787,37.927 L34.910,37.927 L34.910,16.913 ZM30.378,37.926 L26.502,37.926 L26.502,25.726 C27.898,25.312 29.204,24.643 30.378,23.752 L30.378,37.926 ZM21.643,37.926 L17.767,37.926 L17.767,25.737 L19.580,25.737 C20.251,25.933 20.939,26.073 21.643,26.152 L21.643,37.926 ZM12.787,37.926 L8.912,37.926 L8.912,34.828 L11.879,31.831 L12.787,31.831 L12.787,37.926 ZM16.914,21.906 L15.145,23.693 C15.314,24.539 15.076,25.452 14.424,26.109 L6.826,33.780 C5.795,34.823 4.122,34.823 3.090,33.780 C2.059,32.740 2.059,31.051 3.090,30.010 L10.690,22.339 C11.341,21.682 12.246,21.441 13.084,21.612 L14.853,19.826 C11.864,15.796 12.182,10.041 15.809,6.379 C19.785,2.364 26.257,2.364 30.234,6.379 C34.211,10.394 34.211,16.927 30.234,20.941 C26.607,24.604 20.906,24.924 16.914,21.906 ZM28.173,8.460 C25.333,5.591 20.710,5.591 17.870,8.460 C15.027,11.327 15.027,15.993 17.870,18.861 C20.710,21.729 25.333,21.729 28.173,18.861 C31.013,15.994 31.014,11.327 28.173,8.460 Z"/>
</svg>