<svg
        xmlns="http://www.w3.org/2000/svg"
        xmlns:xlink="http://www.w3.org/1999/xlink"
        width="16px" height="16px">
    <path fill-rule="evenodd"  fill="#fff"
          d="M4.698,7.257 L4.699,7.255 C4.576,7.122 4.500,6.946 4.500,6.750 C4.500,6.336 4.836,6.000 5.250,6.000 C5.469,6.000 5.664,6.095 5.801,6.245 L5.803,6.243 L8.000,8.640 L10.197,6.243 L10.199,6.245 C10.336,6.095 10.531,6.000 10.750,6.000 C11.164,6.000 11.500,6.336 11.500,6.750 C11.500,6.946 11.424,7.122 11.301,7.255 L11.303,7.257 L8.553,10.257 C8.410,10.412 8.210,10.500 8.000,10.500 C7.790,10.500 7.590,10.412 7.447,10.257 L4.698,7.257 ZM-0.000,8.000 C-0.000,3.582 3.582,0.000 8.000,0.000 C12.418,0.000 16.000,3.582 16.000,8.000 C16.000,12.418 12.418,16.000 8.000,16.000 C3.582,16.000 -0.000,12.418 -0.000,8.000 ZM14.500,8.000 C14.500,4.416 11.584,1.500 8.000,1.500 C4.416,1.500 1.500,4.416 1.500,8.000 C1.500,11.584 4.416,14.500 8.000,14.500 C11.584,14.500 14.500,11.584 14.500,8.000 Z"/>
</svg>