<svg
        xmlns="http://www.w3.org/2000/svg"
        xmlns:xlink="http://www.w3.org/1999/xlink"
        width="50px" height="50px">
    <path fill-rule="evenodd"  fill="rgb(20, 151, 24)"
          d="M25.000,0.000 C38.807,0.000 50.000,11.193 50.000,25.000 C50.000,38.807 38.807,50.000 25.000,50.000 C11.193,50.000 0.000,38.807 0.000,25.000 C0.000,11.193 11.193,0.000 25.000,0.000 Z"/>
    <path fill-rule="evenodd"  fill="rgb(255, 255, 255)"
          d="M37.512,33.126 L37.219,33.126 L37.219,36.902 C37.219,38.059 36.343,39.000 35.266,39.000 L14.953,39.000 C13.876,39.000 13.000,38.059 13.000,36.902 L13.000,19.280 C13.000,18.123 13.876,17.182 14.953,17.182 L21.203,17.182 C21.238,17.182 21.272,17.187 21.304,17.197 L33.466,14.035 C34.093,13.871 34.727,14.287 34.879,14.960 L35.380,17.186 C36.404,17.250 37.219,18.165 37.219,19.280 L37.219,22.636 L37.219,26.413 L37.512,26.413 C37.781,26.413 38.000,26.648 38.000,26.937 L38.000,32.601 C38.000,32.891 37.781,33.126 37.512,33.126 ZM36.437,19.280 C36.437,18.703 36.073,18.215 35.579,18.067 L35.774,18.933 C36.017,19.003 36.242,19.123 36.437,19.281 L36.437,19.280 ZM36.437,20.958 C36.437,20.323 35.998,19.797 35.428,19.712 C35.413,19.711 35.397,19.709 35.382,19.706 C35.344,19.702 35.305,19.699 35.266,19.699 L34.875,19.699 C34.660,19.699 34.485,19.511 34.485,19.280 C34.485,19.048 34.660,18.860 34.875,18.860 L34.954,18.860 L34.119,15.158 C34.069,14.934 33.858,14.796 33.650,14.850 L18.228,18.860 L33.313,18.860 C33.528,18.860 33.703,19.048 33.703,19.280 C33.703,19.511 33.528,19.699 33.313,19.699 L14.969,19.699 C14.964,19.700 14.959,19.699 14.954,19.699 L14.953,19.699 C14.953,19.699 14.953,19.699 14.953,19.699 C14.939,19.699 14.926,19.698 14.913,19.697 C14.913,19.697 14.913,19.697 14.913,19.697 C14.900,19.695 14.888,19.694 14.876,19.691 C14.875,19.691 14.874,19.690 14.873,19.690 C14.861,19.688 14.850,19.685 14.839,19.681 C14.838,19.680 14.836,19.680 14.834,19.679 C14.824,19.676 14.814,19.672 14.804,19.668 C14.802,19.666 14.800,19.666 14.797,19.664 C14.788,19.660 14.779,19.656 14.771,19.651 C14.768,19.649 14.766,19.648 14.763,19.646 C14.755,19.641 14.746,19.636 14.738,19.630 C14.736,19.628 14.734,19.627 14.731,19.625 C14.723,19.619 14.715,19.613 14.708,19.606 C14.706,19.604 14.704,19.602 14.702,19.600 C14.694,19.594 14.687,19.586 14.680,19.579 C14.678,19.577 14.676,19.575 14.674,19.573 C14.667,19.565 14.661,19.558 14.654,19.550 C14.652,19.548 14.651,19.545 14.649,19.542 C14.643,19.535 14.637,19.527 14.632,19.518 C14.630,19.515 14.628,19.512 14.626,19.509 C14.621,19.501 14.617,19.493 14.613,19.485 C14.610,19.481 14.608,19.476 14.606,19.472 C14.603,19.464 14.599,19.457 14.596,19.450 C14.594,19.444 14.591,19.438 14.589,19.432 C14.587,19.425 14.585,19.419 14.583,19.412 C14.580,19.405 14.578,19.398 14.577,19.390 C14.576,19.387 14.574,19.382 14.573,19.378 C14.573,19.377 14.573,19.374 14.572,19.372 C14.571,19.365 14.570,19.358 14.568,19.350 C14.567,19.343 14.566,19.336 14.565,19.329 C14.565,19.323 14.564,19.317 14.564,19.311 C14.563,19.302 14.563,19.294 14.563,19.286 C14.563,19.283 14.562,19.282 14.562,19.280 C14.562,19.276 14.563,19.273 14.563,19.269 C14.563,19.260 14.563,19.252 14.564,19.244 C14.565,19.237 14.565,19.232 14.566,19.226 C14.567,19.219 14.568,19.211 14.569,19.204 C14.570,19.197 14.572,19.189 14.573,19.183 C14.575,19.177 14.576,19.171 14.578,19.166 C14.580,19.157 14.582,19.149 14.585,19.141 C14.586,19.137 14.588,19.132 14.589,19.128 C14.592,19.120 14.596,19.111 14.599,19.103 C14.601,19.099 14.602,19.096 14.604,19.091 C14.608,19.083 14.612,19.075 14.617,19.067 C14.619,19.064 14.621,19.060 14.623,19.056 C14.627,19.049 14.632,19.041 14.637,19.034 C14.640,19.030 14.642,19.027 14.645,19.023 C14.650,19.016 14.655,19.009 14.660,19.003 C14.663,18.999 14.666,18.996 14.669,18.992 C14.675,18.986 14.680,18.980 14.686,18.974 C14.689,18.971 14.693,18.967 14.696,18.964 C14.702,18.958 14.709,18.953 14.715,18.948 C14.718,18.945 14.722,18.942 14.726,18.939 C14.733,18.934 14.740,18.929 14.747,18.924 C14.750,18.922 14.753,18.919 14.757,18.917 C14.765,18.913 14.773,18.907 14.782,18.903 C14.784,18.902 14.787,18.900 14.790,18.899 C14.799,18.894 14.809,18.890 14.819,18.886 C14.821,18.885 14.823,18.884 14.825,18.884 C14.836,18.880 14.847,18.876 14.858,18.873 C14.859,18.873 14.860,18.873 14.861,18.872 L14.869,18.870 C14.871,18.870 14.873,18.869 14.875,18.869 L18.134,18.021 L14.953,18.021 C14.307,18.021 13.781,18.586 13.781,19.280 C13.781,19.974 14.307,20.539 14.953,20.539 L35.266,20.539 C35.705,20.539 36.111,20.695 36.437,20.959 L36.437,20.958 ZM36.437,22.636 C36.437,21.942 35.912,21.378 35.266,21.378 L14.953,21.378 C14.514,21.378 14.108,21.221 13.781,20.957 L13.781,36.902 C13.781,37.596 14.307,38.161 14.953,38.161 L35.266,38.161 C35.912,38.161 36.437,37.596 36.437,36.902 L36.437,33.126 L30.725,33.126 C30.429,33.126 30.187,32.867 30.187,32.549 L30.187,26.990 C30.187,26.672 30.429,26.413 30.725,26.413 L36.437,26.413 L36.437,22.636 ZM37.219,27.252 L36.834,27.252 C36.832,27.252 36.830,27.252 36.828,27.252 C36.826,27.252 36.824,27.252 36.822,27.252 L30.969,27.252 L30.969,32.287 L37.219,32.287 L37.219,27.252 ZM33.313,28.511 C33.528,28.511 33.703,28.698 33.703,28.930 C33.703,29.162 33.528,29.350 33.313,29.350 C33.097,29.350 32.922,29.538 32.922,29.770 C32.922,30.001 33.097,30.189 33.313,30.189 C33.528,30.189 33.703,30.001 33.703,29.770 C33.703,29.538 33.878,29.350 34.094,29.350 C34.309,29.350 34.484,29.538 34.484,29.770 C34.484,30.463 33.959,31.028 33.313,31.028 C32.666,31.028 32.141,30.463 32.141,29.770 C32.141,29.075 32.666,28.511 33.313,28.511 Z"/>
</svg>