<svg xmlns="http://www.w3.org/2000/svg" width="37" height="45" viewBox="0 0 37 45">
  <metadata><?xpacket begin="﻿" id="W5M0MpCehiHzreSzNTczkc9d"?>
<x:xmpmeta xmlns:x="adobe:ns:meta/" x:xmptk="Adobe XMP Core 5.6-c138 79.159824, 2016/09/14-01:09:01        ">
   <rdf:RDF xmlns:rdf="http://www.w3.org/1999/02/22-rdf-syntax-ns#">
      <rdf:Description rdf:about=""/>
   </rdf:RDF>
</x:xmpmeta>
                                                                                                    
                                                                                                    
                                                                                                    
                                                                                                    
                                                                                                    
                                                                                                    
                                                                                                    
                                                                                                    
                                                                                                    
                                                                                                    
                                                                                                    
                                                                                                    
                                                                                                    
                                                                                                    
                                                                                                    
                                                                                                    
                                                                                                    
                                                                                                    
                                                                                                    
                                                                                                    
                           
<?xpacket end="w"?></metadata>
<defs>
    <style>
      .cls-1 {
        fill: #149718;
        fill-rule: evenodd;
      }
    </style>
  </defs>
  <path id="icon-ad3" class="cls-1" d="M924.259,1411.35a1.123,1.123,0,0,0-1.124-1.12h-9.011a1.115,1.115,0,1,0,0,2.23h9.011A1.121,1.121,0,0,0,924.259,1411.35Zm24.617-1.12h-9.011a1.115,1.115,0,1,0,0,2.23h9.011A1.115,1.115,0,1,0,948.876,1410.23Zm-17.376-6.06a1.129,1.129,0,0,0,1.124-1.12v-8.94a1.124,1.124,0,0,0-2.248,0v8.94A1.129,1.129,0,0,0,931.5,1404.17Zm5.911,2.43a1.161,1.161,0,0,0,.8-0.32l6.379-6.33a1.111,1.111,0,0,0,0-1.58,1.126,1.126,0,0,0-1.593,0l-6.379,6.33a1.111,1.111,0,0,0,0,1.58A1.18,1.18,0,0,0,937.411,1406.6Zm-12.618-.32a1.145,1.145,0,0,0,.8.32,1.161,1.161,0,0,0,.8-0.32,1.111,1.111,0,0,0,0-1.58l-6.379-6.33a1.126,1.126,0,0,0-1.593,0,1.111,1.111,0,0,0,0,1.58Zm20.214,12.1a4.706,4.706,0,0,0-3.025-1.12h-6.435v-4.51c0-2.16-.647-3.72-1.93-4.66-2.023-1.47-4.768-.64-4.89-0.61a1.122,1.122,0,0,0-.787,1.06v5.44a5.017,5.017,0,0,1-2.379,4.18,9.887,9.887,0,0,1-2.585,1.29l-0.113.03a2.292,2.292,0,0,0-1.732-.78h-4.272a2.316,2.316,0,0,0-2.314,2.3v13.9a2.308,2.308,0,0,0,2.314,2.29h4.29a2.263,2.263,0,0,0,1.48-.54,4.725,4.725,0,0,0,3.3,1.35H939.35a6.235,6.235,0,0,0,3.447-.93,4.908,4.908,0,0,0,2.089-3.59l1.733-10.69A4.784,4.784,0,0,0,945.007,1418.38Zm-23.792,16.52a0.064,0.064,0,0,1-.066.06h-4.29a0.064,0.064,0,0,1-.065-0.06V1421a0.066,0.066,0,0,1,.065-0.07h4.29a0.066,0.066,0,0,1,.066.07v13.9Zm23.183-12.45-1.732,10.7a0.109,0.109,0,0,1-.01.05c-0.075.64-.318,2.58-3.306,2.58H925.927a2.484,2.484,0,0,1-2.436-2.07c-0.009-.05-0.019-0.1-0.028-0.13v-11.95l0.066-.02c0.018,0,.028-0.01.046-0.01a11.355,11.355,0,0,0,3.241-1.59,7.253,7.253,0,0,0,3.373-6.03v-4.52a3.1,3.1,0,0,1,2.1.42,3.372,3.372,0,0,1,1.011,2.86v5.62a1.13,1.13,0,0,0,1.125,1.12h7.559a2.474,2.474,0,0,1,1.564.58A2.614,2.614,0,0,1,944.4,1422.45Z" transform="translate(-913 -1393)"/>
</svg>
