<svg
        xmlns="http://www.w3.org/2000/svg"
        xmlns:xlink="http://www.w3.org/1999/xlink"
        width="47px" height="45px">
    <path fill-rule="evenodd"  fill="rgb(172, 172, 172)"
          d="M34.250,38.169 L23.500,38.169 C23.086,38.169 22.750,37.805 22.750,37.356 C22.750,36.906 23.086,36.542 23.500,36.542 L34.250,36.542 C34.664,36.542 35.000,36.906 35.000,37.356 C35.000,37.805 34.664,38.169 34.250,38.169 ZM34.250,33.289 L23.500,33.289 C23.086,33.289 22.750,32.925 22.750,32.476 C22.750,32.027 23.086,31.663 23.500,31.663 L34.250,31.663 C34.664,31.663 35.000,32.027 35.000,32.476 C35.000,32.925 34.664,33.289 34.250,33.289 ZM34.250,28.410 L23.500,28.410 C23.086,28.410 22.750,28.046 22.750,27.597 C22.750,27.147 23.086,26.783 23.500,26.783 L34.250,26.783 C34.664,26.783 35.000,27.147 35.000,27.597 C35.000,28.046 34.664,28.410 34.250,28.410 ZM34.250,23.530 L23.500,23.530 C23.086,23.530 22.750,23.166 22.750,22.717 C22.750,22.268 23.086,21.904 23.500,21.904 L34.250,21.904 C34.664,21.904 35.000,22.268 35.000,22.717 C35.000,23.166 34.664,23.530 34.250,23.530 ZM6.750,36.542 L17.500,36.542 C17.914,36.542 18.250,36.906 18.250,37.356 C18.250,37.805 17.914,38.169 17.500,38.169 L6.750,38.169 C6.336,38.169 6.000,37.805 6.000,37.356 C6.000,36.906 6.336,36.542 6.750,36.542 ZM6.000,22.717 C6.000,22.268 6.336,21.904 6.750,21.904 L17.500,21.904 C17.914,21.904 18.250,22.268 18.250,22.717 L18.250,24.886 C18.250,25.335 17.914,25.699 17.500,25.699 C17.086,25.699 16.750,25.335 16.750,24.886 L16.750,23.530 L7.500,23.530 L7.500,31.663 L16.750,31.663 L16.750,28.139 C16.750,27.690 17.086,27.326 17.500,27.326 C17.914,27.326 18.250,27.690 18.250,28.139 L18.250,32.476 C18.250,32.925 17.914,33.289 17.500,33.289 L6.750,33.289 C6.336,33.289 6.000,32.925 6.000,32.476 L6.000,22.717 ZM25.296,13.605 L23.125,11.812 L20.954,13.605 C20.686,13.827 20.314,13.827 20.045,13.605 L17.875,11.812 L15.705,13.605 C15.375,13.877 14.904,13.808 14.653,13.451 C14.402,13.094 14.466,12.583 14.795,12.311 L17.420,10.142 C17.689,9.921 18.061,9.921 18.329,10.142 L20.500,11.935 L22.670,10.142 C22.939,9.921 23.311,9.921 23.579,10.142 L26.205,12.311 C26.534,12.583 26.598,13.094 26.347,13.451 C26.199,13.661 25.976,13.771 25.749,13.771 C25.591,13.771 25.431,13.717 25.296,13.605 ZM35.000,17.838 C35.000,18.287 34.664,18.651 34.250,18.651 L6.750,18.651 C6.336,18.651 6.000,18.287 6.000,17.838 C6.000,17.388 6.336,17.024 6.750,17.024 L34.250,17.024 C34.664,17.024 35.000,17.388 35.000,17.838 ZM43.250,45.000 L3.750,45.000 C1.682,45.000 -0.000,43.176 -0.000,40.934 L-0.000,0.814 C-0.000,0.364 0.336,0.000 0.750,0.000 L31.850,0.000 C31.875,0.000 31.900,0.001 31.925,0.004 C31.943,0.006 31.961,0.009 31.979,0.013 C31.985,0.014 31.992,0.015 31.998,0.016 C32.020,0.021 32.041,0.027 32.062,0.033 C32.064,0.034 32.066,0.035 32.069,0.036 C32.090,0.043 32.111,0.051 32.132,0.060 C32.134,0.061 32.136,0.061 32.138,0.062 C32.157,0.071 32.176,0.081 32.195,0.092 C32.198,0.093 32.201,0.095 32.204,0.096 C32.221,0.106 32.237,0.117 32.253,0.128 C32.258,0.132 32.263,0.134 32.267,0.138 C32.282,0.148 32.296,0.160 32.310,0.172 C32.315,0.176 32.321,0.181 32.326,0.185 C32.341,0.198 32.355,0.212 32.368,0.226 C32.372,0.230 32.377,0.234 32.380,0.238 L40.780,9.347 C40.784,9.351 40.788,9.356 40.791,9.360 C40.805,9.375 40.818,9.390 40.830,9.406 C40.834,9.411 40.837,9.418 40.842,9.423 C40.853,9.438 40.863,9.454 40.873,9.470 C40.876,9.475 40.879,9.480 40.882,9.485 C40.892,9.502 40.902,9.520 40.911,9.538 C40.913,9.541 40.914,9.545 40.916,9.548 C40.925,9.569 40.935,9.589 40.943,9.610 C40.944,9.612 40.944,9.615 40.945,9.616 C40.953,9.639 40.961,9.662 40.967,9.685 C40.968,9.687 40.969,9.690 40.969,9.692 C40.975,9.715 40.981,9.738 40.985,9.762 C40.987,9.768 40.987,9.775 40.988,9.782 C40.991,9.801 40.994,9.821 40.996,9.841 C40.999,9.867 41.000,9.895 41.000,9.922 L41.000,40.121 L43.250,40.121 C43.664,40.121 44.000,40.485 44.000,40.934 C44.000,41.383 43.664,41.747 43.250,41.747 L40.250,41.747 C39.836,41.747 39.500,41.383 39.500,40.934 L39.500,10.735 L31.850,10.735 C31.436,10.735 31.100,10.371 31.100,9.922 L31.100,1.627 L1.500,1.627 L1.500,40.934 C1.500,42.279 2.509,43.374 3.750,43.374 L43.250,43.374 C44.491,43.374 45.500,42.279 45.500,40.934 L45.500,5.964 L40.093,5.964 C39.678,5.964 39.343,5.600 39.343,5.151 C39.343,4.702 39.678,4.338 40.093,4.338 L46.250,4.338 C46.664,4.338 47.000,4.702 47.000,5.151 L47.000,40.934 C47.000,43.176 45.318,45.000 43.250,45.000 ZM32.600,9.109 L38.439,9.109 L32.600,2.777 L32.600,9.109 Z"/>
</svg>