<svg
        xmlns="http://www.w3.org/2000/svg"
        xmlns:xlink="http://www.w3.org/1999/xlink"
        width="14px" height="14px">
    <path fill-rule="evenodd"  fill="rgb(132, 132, 132)"
          d="M10.161,6.322 L7.678,6.322 L7.678,3.386 C7.678,3.012 7.374,2.709 7.000,2.709 C6.626,2.709 6.323,3.012 6.323,3.386 L6.323,7.678 L10.161,7.678 C10.535,7.678 10.839,7.374 10.839,7.000 C10.839,6.625 10.535,6.322 10.161,6.322 ZM7.000,0.000 C3.134,0.000 -0.000,3.134 -0.000,7.000 C-0.000,10.865 3.134,13.999 7.000,13.999 C10.866,13.999 14.000,10.865 14.000,7.000 C14.000,3.134 10.866,0.000 7.000,0.000 ZM7.000,12.645 C3.887,12.645 1.355,10.113 1.355,7.000 C1.355,3.887 3.887,1.355 7.000,1.355 C10.113,1.355 12.645,3.887 12.645,7.000 C12.645,10.113 10.113,12.645 7.000,12.645 Z"/>
</svg>