<svg
        xmlns="http://www.w3.org/2000/svg"
        xmlns:xlink="http://www.w3.org/1999/xlink"
        width="63px" height="61px">
    <path fill-rule="evenodd"  fill="rgb(20, 151, 24)"
          d="M57.319,38.508 C54.485,38.508 52.147,36.410 51.721,33.678 L44.650,32.972 C44.830,32.098 44.937,31.191 44.937,30.261 C44.937,30.210 44.928,30.158 44.928,30.105 L52.000,30.807 C52.803,28.625 54.875,27.062 57.319,27.062 C60.457,27.062 63.000,29.623 63.000,32.782 C63.000,35.947 60.457,38.508 57.319,38.508 ZM46.413,11.451 C45.872,11.451 45.351,11.348 44.847,11.204 L39.756,19.833 C38.998,19.253 38.177,18.755 37.304,18.357 L42.377,9.751 C41.360,8.714 40.737,7.295 40.737,5.725 C40.737,2.562 43.275,0.001 46.413,0.001 C49.563,0.001 52.106,2.562 52.106,5.725 C52.106,8.889 49.563,11.451 46.413,11.451 ZM41.688,30.261 C41.688,35.682 37.324,40.078 31.943,40.078 C26.560,40.078 22.196,35.682 22.196,30.261 C22.196,24.841 26.560,20.445 31.943,20.445 C37.324,20.445 41.688,24.841 41.688,30.261 ZM21.587,22.392 L17.760,18.748 C16.886,19.296 15.861,19.629 14.753,19.629 C11.614,19.629 9.067,17.066 9.067,13.903 C9.067,10.740 11.613,8.179 14.753,8.179 C17.895,8.179 20.438,10.740 20.438,13.903 C20.438,14.901 20.161,15.826 19.714,16.642 L23.547,20.291 C22.817,20.914 22.165,21.618 21.587,22.392 ZM10.438,35.996 L19.244,33.026 C19.450,33.980 19.765,34.893 20.163,35.756 L11.328,38.739 C11.341,38.868 11.367,38.987 11.367,39.119 C11.367,42.284 8.820,44.846 5.683,44.846 C2.541,44.846 0.000,42.284 0.000,39.119 C0.000,35.959 2.541,33.397 5.683,33.397 C7.672,33.397 9.421,34.434 10.438,35.996 ZM35.007,50.224 L33.424,43.259 C34.392,43.147 35.323,42.920 36.217,42.610 L37.796,49.572 C40.856,49.663 43.312,52.174 43.304,55.281 C43.304,58.437 40.765,60.999 37.628,60.999 C34.478,60.999 31.939,58.441 31.939,55.281 C31.939,53.071 33.192,51.179 35.007,50.224 Z"/>
</svg>