<svg
        xmlns="http://www.w3.org/2000/svg"
        xmlns:xlink="http://www.w3.org/1999/xlink"
        width="50px" height="50px">
    <path fill-rule="evenodd"  fill="rgb(20, 151, 24)"
          d="M25.000,0.000 C38.807,0.000 50.000,11.193 50.000,25.000 C50.000,38.807 38.807,50.000 25.000,50.000 C11.193,50.000 -0.000,38.807 -0.000,25.000 C-0.000,11.193 11.193,0.000 25.000,0.000 Z"/>
    <path fill-rule="evenodd"  fill="rgb(255, 255, 255)"
          d="M31.203,37.000 C28.575,37.000 26.340,35.155 25.635,32.653 L12.000,32.653 L12.000,14.122 L16.521,14.122 L16.521,12.000 L17.588,12.000 L17.588,14.122 L22.002,14.122 L22.002,12.000 L23.069,12.000 L23.069,14.122 L27.483,14.122 L27.483,12.000 L28.544,12.000 L28.544,14.122 L33.066,14.122 L33.066,25.256 C35.352,26.069 37.005,28.326 37.000,30.969 C37.000,34.285 34.392,37.000 31.203,37.000 ZM32.004,15.206 L28.539,15.206 L28.539,17.541 L27.478,17.541 L27.478,15.206 L23.063,15.206 L23.063,17.541 L22.002,17.541 L22.002,15.206 L17.583,15.206 L17.583,17.541 L16.521,17.541 L16.521,15.206 L13.067,15.206 L13.067,20.205 L32.004,20.205 L32.004,15.206 ZM32.004,21.294 L13.067,21.294 L13.067,31.563 L13.067,31.568 L25.441,31.568 C25.421,31.370 25.411,31.172 25.411,30.969 C25.411,27.654 28.019,24.938 31.208,24.938 C31.478,24.938 31.744,24.959 32.004,24.995 L32.004,21.294 ZM31.208,26.017 C28.600,26.017 26.472,28.248 26.472,30.964 C26.472,33.685 28.600,35.911 31.208,35.911 C33.811,35.911 35.944,33.685 35.944,30.964 C35.944,28.243 33.816,26.017 31.208,26.017 ZM28.968,30.208 L30.672,30.208 L30.672,27.018 L31.739,27.018 L31.739,31.292 L28.968,31.292 L28.968,30.208 Z"/>
</svg>