<svg
        xmlns="http://www.w3.org/2000/svg"
        xmlns:xlink="http://www.w3.org/1999/xlink"
        width="35px" height="35px">
    <path fill-rule="evenodd"  fill="rgb(172, 172, 172)"
          d="M33.541,35.000 L1.369,35.000 C0.616,35.000 0.000,34.313 0.000,33.474 L0.000,1.692 C0.000,0.853 0.616,0.167 1.369,0.167 C2.122,0.167 2.738,0.853 2.738,1.692 L2.738,31.949 L33.541,31.949 C34.294,31.949 34.910,32.635 34.910,33.474 C34.910,34.313 34.294,35.000 33.541,35.000 ZM16.177,10.337 C15.630,9.853 14.831,9.930 14.352,10.489 L5.750,20.583 C5.225,21.194 5.248,22.160 5.796,22.745 C6.069,23.025 6.389,23.152 6.731,23.152 C7.096,23.152 7.461,22.999 7.735,22.668 L15.493,13.566 L20.421,17.786 C20.969,18.270 21.768,18.194 22.247,17.608 L31.944,6.142 L31.944,12.880 C31.944,13.719 32.560,14.405 33.313,14.405 C34.066,14.405 34.682,13.719 34.682,12.880 L34.682,2.455 C34.682,1.616 34.066,0.929 33.313,0.929 L24.186,0.929 C23.433,0.929 22.817,1.616 22.817,2.455 C22.817,3.294 23.433,3.980 24.186,3.980 L30.004,3.980 L21.106,14.558 L16.177,10.337 Z"/>
</svg>