<svg
        xmlns="http://www.w3.org/2000/svg"
        xmlns:xlink="http://www.w3.org/1999/xlink"
        width="17px" height="14px">
    <path fill-rule="evenodd"  fill="rgb(132, 132, 132)"
          d="M16.953,5.031 L15.388,2.017 C15.335,1.914 15.245,1.843 15.142,1.815 C15.142,1.814 15.141,1.814 15.140,1.814 L8.620,0.014 C8.552,-0.005 8.481,-0.005 8.413,0.014 L1.860,1.814 C1.859,1.814 1.859,1.814 1.858,1.814 C1.755,1.843 1.665,1.914 1.612,2.017 L0.047,5.031 C-0.004,5.131 -0.014,5.245 0.020,5.352 C0.055,5.456 0.130,5.544 0.228,5.591 L1.590,6.250 L1.590,10.370 C1.590,10.526 1.677,10.669 1.815,10.737 L8.343,13.960 C8.398,13.987 8.457,13.999 8.516,13.999 C8.575,13.999 8.633,13.987 8.687,13.960 C8.688,13.960 8.689,13.960 8.689,13.960 L15.218,10.737 C15.355,10.669 15.443,10.526 15.443,10.370 L15.443,6.250 C15.443,6.245 15.442,6.239 15.442,6.234 L16.772,5.591 C16.870,5.544 16.945,5.456 16.980,5.352 C17.014,5.245 17.004,5.131 16.953,5.031 ZM8.516,0.829 L13.730,2.268 L8.500,4.250 L3.273,2.269 L8.516,0.829 ZM2.152,2.713 L7.965,4.916 L6.684,7.812 L0.945,5.037 L2.152,2.713 ZM2.386,10.114 L2.386,6.635 L6.710,8.726 C6.764,8.751 6.822,8.764 6.880,8.764 C6.927,8.764 6.973,8.756 7.018,8.740 C7.118,8.702 7.199,8.625 7.243,8.525 L8.118,6.546 L8.118,12.943 L2.386,10.114 ZM14.647,10.114 L8.915,12.943 L8.915,6.620 L9.757,8.525 C9.801,8.625 9.882,8.702 9.982,8.740 C10.027,8.756 10.073,8.764 10.120,8.764 C10.178,8.764 10.236,8.751 10.290,8.726 L14.647,6.619 L14.647,10.114 L14.647,10.114 ZM10.316,7.812 L9.035,4.916 L14.848,2.713 L16.054,5.037 L10.316,7.812 Z"/>
</svg>