<svg
        xmlns="http://www.w3.org/2000/svg"
        xmlns:xlink="http://www.w3.org/1999/xlink"
        width="44px" height="44px">
    <path fill-rule="evenodd" fill="rgb(255, 255, 255)"
          d="M22.000,-0.000 C9.849,-0.000 0.000,9.849 0.000,22.000 C0.000,34.151 9.849,44.000 22.000,44.000 C34.151,44.000 44.000,34.151 44.000,22.000 C44.000,9.849 34.151,-0.000 22.000,-0.000 ZM32.527,23.766 L19.404,32.794 C19.039,33.044 18.614,33.172 18.188,33.172 C17.845,33.172 17.505,33.090 17.191,32.927 C16.487,32.554 16.044,31.823 16.044,31.028 L16.044,12.972 C16.044,12.177 16.487,11.446 17.191,11.073 C17.896,10.704 18.747,10.754 19.404,11.206 L32.527,20.234 C33.108,20.634 33.456,21.294 33.456,22.000 C33.456,22.705 33.108,23.366 32.527,23.766 Z"/>
</svg>