<svg
        xmlns="http://www.w3.org/2000/svg"
        xmlns:xlink="http://www.w3.org/1999/xlink"
        width="16px" height="11px">
    <path fill-rule="evenodd"  fill="rgb(22, 152, 26)"
          d="M14.931,11.002 L8.000,11.002 L1.069,11.002 C0.483,11.002 0.003,10.529 0.003,9.953 L0.003,2.242 C0.003,1.665 0.385,1.478 0.853,1.827 L7.149,6.527 C7.384,6.700 7.693,6.786 8.000,6.782 C8.308,6.786 8.616,6.700 8.851,6.527 L15.147,1.827 C15.615,1.478 15.997,1.665 15.997,2.242 L15.997,9.953 C15.997,10.529 15.517,11.002 14.931,11.002 ZM8.970,5.130 C8.709,5.334 8.349,5.423 8.000,5.407 C7.650,5.423 7.290,5.333 7.029,5.130 L1.267,0.643 C0.807,0.286 0.911,-0.008 1.498,-0.008 L8.000,-0.008 L14.502,-0.008 C15.088,-0.008 15.193,0.286 14.732,0.643 L8.970,5.130 Z"/>
</svg>