<svg
        xmlns="http://www.w3.org/2000/svg"
        xmlns:xlink="http://www.w3.org/1999/xlink"
        width="50px" height="50px">
    <path fill-rule="evenodd"  fill="rgb(20, 151, 24)"
          d="M25.000,0.000 C38.807,0.000 50.000,11.193 50.000,25.000 C50.000,38.807 38.807,50.000 25.000,50.000 C11.193,50.000 0.000,38.807 0.000,25.000 C0.000,11.193 11.193,0.000 25.000,0.000 Z"/>
    <path fill-rule="evenodd"  fill="rgb(255, 255, 255)"
          d="M24.500,37.000 C21.682,37.000 18.998,36.068 16.809,34.355 L16.809,36.263 L15.654,36.263 L15.654,32.548 L19.369,32.548 L19.369,33.703 L17.862,33.703 C19.783,35.094 22.088,35.846 24.500,35.846 C30.756,35.846 35.846,30.756 35.846,24.500 L37.000,24.500 C37.000,31.393 31.393,37.000 24.500,37.000 ZM24.500,16.383 C28.976,16.383 32.617,20.025 32.617,24.500 C32.617,28.976 28.976,32.617 24.500,32.617 C20.025,32.617 16.383,28.976 16.383,24.500 C16.383,20.025 20.025,16.383 24.500,16.383 ZM24.500,31.462 C28.339,31.462 31.462,28.339 31.462,24.500 C31.462,20.661 28.339,17.538 24.500,17.538 C20.661,17.538 17.538,20.661 17.538,24.500 C17.538,28.339 20.661,31.462 24.500,31.462 ZM25.450,26.826 C25.825,26.673 26.039,26.408 26.084,26.037 C26.169,25.341 25.845,25.044 23.858,24.766 C22.981,24.643 22.323,24.116 22.139,23.392 C21.948,22.640 22.295,21.850 23.067,21.281 C23.349,21.072 23.656,20.931 23.981,20.856 L23.981,19.952 L25.135,19.952 L25.135,20.857 C25.300,20.892 25.467,20.940 25.637,21.003 C26.293,21.248 26.749,21.622 26.798,21.664 L26.427,22.106 L26.058,22.549 C26.054,22.546 25.695,22.251 25.207,22.075 C24.632,21.868 24.156,21.912 23.753,22.209 C23.372,22.491 23.187,22.827 23.258,23.109 C23.325,23.373 23.609,23.565 24.018,23.622 C24.839,23.737 25.625,23.867 26.221,24.187 C26.990,24.599 27.338,25.288 27.230,26.177 C27.134,26.960 26.644,27.587 25.885,27.895 C25.649,27.991 25.397,28.053 25.135,28.083 L25.135,29.048 L23.980,29.048 L23.980,28.023 C23.289,27.879 22.587,27.548 21.966,27.049 L22.689,26.149 C23.716,26.974 24.816,27.084 25.450,26.826 ZM29.778,15.413 L31.296,15.413 C29.344,13.948 26.983,13.154 24.500,13.154 C18.244,13.154 13.154,18.244 13.154,24.500 L12.000,24.500 C12.000,17.608 17.607,12.000 24.500,12.000 C27.386,12.000 30.123,12.973 32.338,14.761 L32.338,12.853 L33.492,12.853 L33.492,16.568 L29.778,16.568 L29.778,15.413 Z"/>
</svg>