<svg
        xmlns="http://www.w3.org/2000/svg"
        xmlns:xlink="http://www.w3.org/1999/xlink"
        width="51px" height="43px">
    <path fill-rule="evenodd"  fill="rgb(255, 255, 255)"
          d="M49.325,15.780 L45.316,19.726 L39.552,25.400 L41.128,26.951 C42.496,28.298 42.496,30.489 41.128,31.836 C40.480,32.473 39.641,32.806 38.791,32.840 C38.756,33.676 38.419,34.503 37.772,35.139 C37.125,35.777 36.285,36.108 35.436,36.143 C35.401,36.979 35.064,37.805 34.417,38.442 C33.789,39.060 32.964,39.412 32.082,39.447 C32.046,40.315 31.689,41.127 31.061,41.745 C30.398,42.397 29.517,42.757 28.580,42.757 C27.642,42.757 26.761,42.398 26.098,41.745 L21.817,37.531 L20.030,39.289 C19.426,39.883 18.633,40.181 17.840,40.181 C17.047,40.181 16.253,39.883 15.650,39.289 L15.067,38.715 C14.555,38.212 14.245,37.563 14.175,36.865 C13.464,36.795 12.806,36.490 12.294,35.986 L11.711,35.413 C11.199,34.909 10.888,34.259 10.819,33.560 C10.132,33.493 9.464,33.201 8.939,32.683 L8.356,32.110 C7.844,31.606 7.534,30.957 7.464,30.259 C6.753,30.190 6.095,29.884 5.583,29.381 L5.000,28.807 C4.415,28.231 4.093,27.465 4.093,26.651 C4.093,25.836 4.415,25.070 5.000,24.495 L6.787,22.737 L3.546,19.546 L0.567,16.614 C0.124,16.177 0.124,15.468 0.567,15.032 C1.011,14.595 1.731,14.595 2.175,15.032 L5.153,17.963 L27.706,40.162 C28.188,40.636 28.972,40.636 29.453,40.162 C29.935,39.688 29.935,38.916 29.453,38.442 L23.079,32.168 C22.636,31.730 22.636,31.022 23.079,30.585 C23.523,30.148 24.243,30.148 24.687,30.585 L31.061,36.859 C31.295,37.089 31.605,37.216 31.935,37.216 C32.265,37.216 32.575,37.089 32.809,36.859 C33.291,36.385 33.291,35.613 32.809,35.139 L26.435,28.865 C25.991,28.428 25.991,27.720 26.435,27.282 C26.879,26.846 27.599,26.846 28.043,27.282 L34.416,33.556 C34.898,34.031 35.682,34.031 36.164,33.556 C36.397,33.327 36.526,33.022 36.526,32.696 C36.526,32.372 36.397,32.066 36.164,31.836 L29.790,25.562 C29.346,25.125 29.346,24.417 29.790,23.979 C30.234,23.543 30.954,23.543 31.398,23.979 L37.772,30.253 C38.254,30.729 39.038,30.729 39.519,30.253 C40.001,29.780 40.001,29.008 39.519,28.533 L37.140,26.191 L24.011,13.268 L18.983,12.834 L18.667,14.378 C18.096,17.167 15.327,18.978 12.495,18.416 C9.662,17.854 7.822,15.128 8.393,12.340 L8.910,9.815 C9.927,4.853 14.849,1.627 19.889,2.612 C19.890,2.612 19.891,2.612 19.892,2.612 L31.103,4.588 C31.268,4.134 31.531,3.707 31.899,3.344 L34.296,0.986 C34.941,0.350 35.799,0.000 36.712,0.000 C37.625,0.000 38.483,0.350 39.129,0.986 L49.325,11.022 C50.657,12.334 50.657,14.468 49.325,15.780 ZM8.283,24.429 L6.608,26.077 C6.287,26.393 6.287,26.908 6.608,27.224 L7.191,27.797 C7.512,28.114 8.035,28.114 8.356,27.797 L10.031,26.149 L8.283,24.429 ZM11.639,27.732 L9.963,29.381 C9.642,29.696 9.642,30.211 9.963,30.527 L10.547,31.101 C10.867,31.417 11.390,31.417 11.711,31.101 L13.387,29.452 L11.639,27.732 ZM14.994,31.035 L13.319,32.683 C13.163,32.836 13.077,33.041 13.077,33.257 C13.077,33.473 13.163,33.677 13.319,33.830 L13.902,34.404 C14.223,34.720 14.745,34.720 15.066,34.404 L16.742,32.755 L14.994,31.035 ZM18.350,34.337 L16.674,35.986 C16.353,36.302 16.353,36.817 16.674,37.134 L17.257,37.707 C17.578,38.023 18.101,38.023 18.422,37.707 L20.097,36.058 L18.350,34.337 ZM30.539,6.762 L19.491,4.815 C19.483,4.814 19.475,4.813 19.467,4.811 C15.644,4.051 11.910,6.496 11.139,10.258 L10.622,12.782 C10.466,13.547 10.621,14.325 11.059,14.976 C11.498,15.625 12.167,16.067 12.944,16.222 C14.548,16.540 16.115,15.515 16.438,13.936 L16.955,11.412 C17.063,10.887 17.533,10.513 18.069,10.513 C18.102,10.513 18.135,10.515 18.169,10.518 L24.621,11.073 C24.888,11.096 25.137,11.211 25.326,11.397 L37.944,23.817 L42.905,18.935 L31.899,8.102 L30.539,6.762 ZM47.717,12.604 L37.521,2.568 C37.304,2.355 37.017,2.238 36.712,2.238 C36.406,2.238 36.119,2.355 35.903,2.568 L33.507,4.926 C33.291,5.139 33.172,5.422 33.172,5.723 C33.172,6.023 33.291,6.306 33.507,6.519 L44.512,17.352 L47.717,14.197 C47.933,13.984 48.052,13.702 48.052,13.400 C48.052,13.100 47.933,12.817 47.717,12.604 ZM44.965,14.964 C44.337,14.964 43.828,14.463 43.828,13.845 C43.828,13.227 44.337,12.726 44.965,12.726 C45.593,12.726 46.102,13.227 46.102,13.845 C46.102,14.463 45.593,14.964 44.965,14.964 Z"/>
</svg>