<svg
        xmlns="http://www.w3.org/2000/svg"
        xmlns:xlink="http://www.w3.org/1999/xlink"
        width="50px" height="50px">
    <path fill-rule="evenodd"  fill="rgb(20, 151, 24)"
          d="M25.000,0.000 C38.807,0.000 50.000,11.193 50.000,25.000 C50.000,38.807 38.807,50.000 25.000,50.000 C11.193,50.000 0.000,38.807 0.000,25.000 C0.000,11.193 11.193,0.000 25.000,0.000 Z"/>
    <path fill-rule="evenodd"  fill="rgb(255, 255, 255)"
          d="M30.869,34.999 C26.927,34.999 22.738,33.815 22.738,31.620 L22.738,20.622 C22.738,18.427 26.927,17.243 30.869,17.243 C34.909,17.243 39.000,18.404 39.000,20.622 L39.000,31.620 C39.000,33.839 34.909,34.999 30.869,34.999 ZM23.921,31.620 C23.921,32.511 26.624,33.804 30.864,33.804 C35.103,33.804 37.806,32.511 37.806,31.620 L37.806,29.804 C36.297,30.810 33.572,31.333 30.864,31.333 C28.212,31.333 25.447,30.793 23.921,29.776 L23.921,31.620 ZM23.921,27.954 C23.921,28.845 26.624,30.138 30.864,30.138 C35.103,30.138 37.806,28.845 37.806,27.954 L37.806,26.138 C36.297,27.144 33.572,27.667 30.864,27.667 C28.212,27.667 25.447,27.127 23.921,26.110 L23.921,27.954 ZM23.921,24.288 C23.921,25.179 26.624,26.472 30.864,26.472 C35.103,26.472 37.806,25.179 37.806,24.288 L37.806,22.472 C36.297,23.478 33.572,24.001 30.864,24.001 C28.212,24.001 25.447,23.461 23.921,22.444 L23.921,24.288 ZM30.869,18.438 C26.630,18.438 23.927,19.731 23.927,20.622 C23.927,21.513 26.630,22.805 30.869,22.805 C35.103,22.805 37.806,21.513 37.812,20.622 C37.812,19.731 35.109,18.438 30.869,18.438 ZM32.349,20.593 C32.561,20.731 32.669,20.909 32.663,21.133 C32.663,21.375 32.526,21.582 32.258,21.748 C31.989,21.915 31.618,22.013 31.138,22.053 L31.138,22.432 L30.606,22.432 L30.606,22.064 C30.184,22.036 29.835,21.950 29.572,21.806 C29.309,21.662 29.138,21.455 29.064,21.191 L30.024,21.133 C30.064,21.237 30.138,21.329 30.246,21.409 C30.355,21.484 30.475,21.542 30.606,21.576 L30.606,20.731 C30.126,20.657 29.772,20.547 29.549,20.392 C29.326,20.237 29.212,20.053 29.212,19.835 C29.212,19.611 29.338,19.427 29.595,19.277 C29.852,19.128 30.189,19.042 30.612,19.019 L30.612,18.818 L31.144,18.818 L31.144,19.019 C31.532,19.042 31.846,19.116 32.075,19.237 C32.303,19.358 32.452,19.518 32.515,19.720 L31.584,19.789 C31.526,19.634 31.383,19.524 31.144,19.467 L31.144,20.254 C31.732,20.341 32.138,20.455 32.349,20.593 ZM31.144,21.599 C31.332,21.582 31.481,21.536 31.595,21.461 C31.709,21.386 31.766,21.300 31.761,21.191 C31.761,21.105 31.715,21.024 31.618,20.961 C31.521,20.898 31.366,20.846 31.144,20.812 L31.144,21.599 ZM30.606,19.456 C30.458,19.484 30.344,19.530 30.258,19.593 C30.172,19.657 30.126,19.726 30.126,19.806 C30.126,19.881 30.166,19.944 30.246,20.007 C30.326,20.070 30.446,20.116 30.606,20.156 L30.606,19.456 ZM28.229,16.461 C28.178,16.473 27.687,16.565 27.504,16.031 L26.572,12.364 L20.876,20.817 C20.762,21.030 20.167,21.329 19.830,20.708 L18.025,16.312 L12.071,24.173 C11.751,24.552 11.345,24.368 11.237,24.288 C10.974,24.087 10.922,23.713 11.122,23.449 L17.710,14.766 C18.133,14.290 18.665,14.651 18.733,14.899 L20.510,19.226 L25.727,11.479 L21.636,12.531 C21.316,12.617 20.990,12.422 20.910,12.100 C20.830,11.778 21.019,11.451 21.339,11.370 L26.590,10.020 C26.910,9.934 27.235,10.129 27.315,10.451 L28.658,15.732 C28.738,16.054 28.549,16.381 28.229,16.461 Z"/>
</svg>