<svg
        xmlns="http://www.w3.org/2000/svg"
        xmlns:xlink="http://www.w3.org/1999/xlink"
        width="54px" height="55px">
    <path fill-rule="evenodd"  fill="rgb(20, 151, 24)"
          d="M41.737,29.161 L41.737,4.430 L4.472,4.430 L4.472,50.570 L21.614,50.570 C22.844,50.570 23.850,51.567 23.850,52.785 C23.850,54.003 22.844,55.000 21.614,55.000 L2.236,55.000 C1.006,55.000 -0.000,54.003 -0.000,52.785 L-0.000,2.215 C-0.000,0.997 1.006,0.000 2.236,0.000 L43.973,0.000 C45.203,0.000 46.209,0.997 46.209,2.215 L46.209,29.161 C46.209,30.379 45.203,31.376 43.973,31.376 C42.743,31.376 41.737,30.379 41.737,29.161 ZM53.252,34.550 C52.320,33.738 50.904,33.812 50.084,34.735 L37.824,48.245 L31.675,42.376 C30.781,41.527 29.365,41.564 28.508,42.450 C27.651,43.336 27.688,44.738 28.582,45.588 L36.408,53.044 C36.818,53.450 37.377,53.671 37.973,53.671 C38.010,53.671 38.010,53.671 38.048,53.671 C38.644,53.634 39.240,53.376 39.613,52.933 L53.401,37.725 C54.258,36.765 54.184,35.362 53.252,34.550 ZM33.539,12.920 L13.416,12.920 C12.186,12.920 11.180,13.916 11.180,15.134 C11.180,16.352 12.186,17.349 13.416,17.349 L33.539,17.349 C34.768,17.349 35.774,16.352 35.774,15.134 C35.774,13.916 34.768,12.920 33.539,12.920 ZM35.775,27.316 C35.775,26.098 34.768,25.101 33.539,25.101 L13.416,25.101 C12.186,25.101 11.180,26.098 11.180,27.316 C11.180,28.533 12.186,29.531 13.416,29.531 L33.539,29.531 C34.768,29.531 35.775,28.533 35.775,27.316 ZM13.416,36.913 C12.186,36.913 11.180,37.910 11.180,39.128 C11.180,40.346 12.186,41.342 13.416,41.342 L19.378,41.342 C20.608,41.342 21.614,40.346 21.614,39.128 C21.614,37.910 20.608,36.913 19.378,36.913 L13.416,36.913 Z"/>
</svg>