<svg
        xmlns="http://www.w3.org/2000/svg"
        xmlns:xlink="http://www.w3.org/1999/xlink"
        width="14px" height="13px">
    <path fill-rule="evenodd"  fill="rgb(132, 132, 132)"
          d="M13.511,12.711 C13.332,12.903 13.101,13.000 12.833,13.000 L1.773,13.000 C1.513,13.000 1.282,12.903 1.095,12.703 C0.911,12.505 0.818,12.271 0.818,11.998 L0.818,2.019 C0.818,1.746 0.911,1.513 1.095,1.316 C1.282,1.115 1.513,1.018 1.773,1.018 L4.581,1.018 L4.581,0.455 C4.581,0.199 4.771,0.000 5.015,0.000 C5.260,0.000 5.457,0.199 5.457,0.455 L5.457,1.018 L9.157,1.018 L9.157,0.455 C9.157,0.199 9.346,0.000 9.591,0.000 C9.835,0.000 10.025,0.199 10.025,0.455 L10.025,1.018 L12.833,1.018 C13.101,1.018 13.328,1.119 13.511,1.316 C13.691,1.508 13.787,1.746 13.787,2.019 L13.787,11.998 C13.787,12.271 13.695,12.514 13.511,12.711 ZM12.920,2.019 C12.920,1.961 12.888,1.936 12.833,1.936 L10.025,1.936 L10.025,2.135 C10.025,2.392 9.835,2.598 9.591,2.598 C9.346,2.598 9.157,2.392 9.157,2.135 L9.157,1.936 L5.457,1.936 L5.457,2.135 C5.457,2.392 5.260,2.598 5.015,2.598 C4.771,2.598 4.581,2.392 4.581,2.135 L4.581,1.936 L1.773,1.936 C1.718,1.936 1.686,1.961 1.686,2.019 L1.686,4.361 L12.920,4.361 L12.920,2.019 ZM12.920,5.271 L1.686,5.271 L1.686,11.998 C1.686,12.032 1.734,12.082 1.773,12.082 L12.833,12.082 C12.872,12.082 12.920,12.032 12.920,11.998 L12.920,5.271 ZM10.703,10.187 L5.473,10.187 C5.228,10.187 5.031,9.988 5.031,9.731 C5.031,9.475 5.228,9.268 5.473,9.268 L10.703,9.268 C10.947,9.268 11.137,9.475 11.137,9.731 C11.137,9.988 10.947,10.187 10.703,10.187 ZM10.703,7.985 L5.473,7.985 C5.228,7.985 5.031,7.778 5.031,7.522 C5.031,7.265 5.228,7.067 5.473,7.067 L10.703,7.067 C10.947,7.067 11.137,7.265 11.137,7.522 C11.137,7.778 10.947,7.985 10.703,7.985 ZM3.469,9.268 L4.337,9.268 L4.337,10.187 L3.469,10.187 L3.469,9.268 ZM3.469,7.067 L4.337,7.067 L4.337,7.985 L3.469,7.985 L3.469,7.067 Z"/>
</svg>