<svg
        xmlns="http://www.w3.org/2000/svg"
        xmlns:xlink="http://www.w3.org/1999/xlink"
        width="14px" height="16px">
    <path fill-rule="evenodd"  fill="rgb(132, 132, 132)"
          d="M13.970,6.191 C13.601,9.259 11.376,12.602 7.534,15.856 C7.426,15.947 7.281,15.999 7.130,15.999 L6.740,15.999 C6.595,15.999 6.456,15.952 6.349,15.866 C4.855,14.677 0.489,10.343 0.030,6.181 C0.017,6.089 -0.310,3.606 1.530,1.794 C2.737,0.604 4.568,0.001 6.971,0.001 C9.391,0.001 11.225,0.604 12.441,1.794 C14.292,3.604 13.984,6.085 13.970,6.191 ZM11.568,2.459 C10.581,1.499 9.041,1.012 6.989,1.012 C4.920,1.012 3.384,1.498 2.405,2.458 C0.911,3.922 1.181,6.051 1.184,6.071 C1.594,9.796 5.549,13.778 6.932,14.955 C10.449,11.926 12.482,8.861 12.817,6.080 C12.820,6.054 13.074,3.926 11.568,2.459 ZM7.025,8.681 C5.412,8.681 4.100,7.537 4.100,6.133 C4.100,4.727 5.412,3.585 7.025,3.585 C8.637,3.585 9.949,4.727 9.949,6.133 C9.949,7.538 8.638,8.681 7.025,8.681 ZM7.025,4.595 C6.052,4.595 5.260,5.285 5.260,6.133 C5.260,6.980 6.051,7.670 7.025,7.670 C7.998,7.670 8.789,6.980 8.789,6.133 C8.789,5.285 7.998,4.595 7.025,4.595 Z"/>
</svg>