<svg
        xmlns="http://www.w3.org/2000/svg"
        xmlns:xlink="http://www.w3.org/1999/xlink"
        width="13px" height="13px">
    <defs>
        <filter id="Filter_0">
            <feFlood flood-color="rgb(132, 132, 132)" flood-opacity="1" result="floodOut" />
            <feComposite operator="atop" in="floodOut" in2="SourceGraphic" result="compOut" />
            <feBlend mode="normal" in="compOut" in2="SourceGraphic" />
        </filter>

    </defs>
    <g filter="url(#Filter_0)">
        <path fill-rule="evenodd"  fill="rgb(132, 132, 132)"
              d="M12.481,9.025 C11.796,10.623 10.631,11.793 9.020,12.481 C8.214,12.824 7.371,13.000 6.489,13.000 C5.608,13.000 4.771,12.826 3.966,12.481 C2.368,11.795 1.198,10.626 0.512,9.025 C0.168,8.222 0.000,7.375 0.000,6.493 C0.000,5.611 0.168,4.770 0.512,3.968 C1.198,2.367 2.368,1.205 3.966,0.519 C4.770,0.174 5.608,0.000 6.489,0.000 C7.371,0.000 8.214,0.176 9.020,0.519 C10.631,1.207 11.796,2.370 12.481,3.968 C12.826,4.773 13.000,5.611 13.000,6.493 C13.000,7.375 12.826,8.220 12.481,9.025 ZM11.443,3.634 C10.932,2.759 10.234,2.064 9.354,1.550 C8.479,1.040 7.520,0.782 6.489,0.782 C5.459,0.782 4.506,1.038 3.632,1.550 C2.758,2.062 2.059,2.758 1.550,3.634 C1.042,4.507 0.789,5.462 0.789,6.493 C0.789,7.268 0.935,8.016 1.237,8.719 C1.539,9.424 1.944,10.038 2.452,10.546 C2.960,11.055 3.568,11.457 4.272,11.763 C4.976,12.068 5.715,12.218 6.489,12.218 C7.520,12.218 8.479,11.960 9.354,11.450 C10.234,10.936 10.933,10.242 11.444,9.366 C11.957,8.485 12.211,7.524 12.211,6.493 C12.211,5.462 11.955,4.509 11.443,3.634 ZM8.344,8.996 L6.219,6.870 C6.134,6.784 6.098,6.678 6.113,6.550 C6.113,6.529 6.098,6.500 6.098,6.493 L6.098,2.752 C6.098,2.532 6.283,2.354 6.489,2.354 C6.710,2.354 6.902,2.532 6.902,2.752 L6.902,6.436 L8.892,8.442 C9.045,8.595 9.055,8.833 8.892,8.996 C8.750,9.139 8.487,9.139 8.344,8.996 Z"/>
    </g>
</svg>