<svg
        xmlns="http://www.w3.org/2000/svg"
        xmlns:xlink="http://www.w3.org/1999/xlink"
        width="13px" height="13px">
    <path fill-rule="evenodd"  fill="rgb(132, 132, 132)"
          d="M6.484,-0.000 C2.909,-0.000 0.000,2.916 0.000,6.500 C0.000,10.084 2.909,13.000 6.484,13.000 C10.060,13.000 12.969,10.084 12.969,6.500 C12.969,2.916 10.060,-0.000 6.484,-0.000 ZM10.710,3.066 C11.438,3.963 11.886,5.098 11.923,6.333 C10.575,6.053 9.354,6.086 8.276,6.298 C8.081,5.841 7.879,5.405 7.675,4.993 C8.849,4.486 9.871,3.838 10.710,3.066 ZM9.980,2.321 C9.147,3.083 8.181,3.649 7.192,4.064 C6.467,2.735 5.773,1.733 5.350,1.164 C5.716,1.086 6.095,1.044 6.484,1.044 C7.814,1.044 9.033,1.524 9.980,2.321 ZM4.298,1.504 C4.617,1.919 5.378,2.958 6.195,4.436 C4.142,5.106 2.149,5.219 1.192,5.230 C1.591,3.559 2.758,2.185 4.298,1.504 ZM1.047,6.276 C1.057,6.276 1.067,6.276 1.077,6.276 C1.739,6.276 2.951,6.232 4.378,5.971 C5.193,5.822 5.965,5.622 6.689,5.373 C6.878,5.750 7.065,6.148 7.247,6.564 C6.233,6.892 5.377,7.363 4.700,7.830 C3.563,8.614 2.767,9.485 2.333,10.023 C1.528,9.071 1.041,7.842 1.041,6.500 C1.041,6.425 1.044,6.350 1.047,6.276 ZM3.083,10.755 C3.457,10.283 4.219,9.424 5.321,8.669 C6.069,8.157 6.844,7.775 7.641,7.525 C8.104,8.728 8.499,10.056 8.735,11.466 C8.048,11.780 7.287,11.957 6.484,11.957 C5.198,11.957 4.016,11.506 3.083,10.755 ZM9.692,10.905 C9.450,9.609 9.088,8.391 8.669,7.278 C9.698,7.104 10.762,7.140 11.855,7.386 C11.619,8.825 10.820,10.077 9.692,10.905 Z"/>
</svg>