<svg xmlns="http://www.w3.org/2000/svg" width="46" height="45" viewBox="0 0 46 45">
  <metadata><?xpacket begin="﻿" id="W5M0MpCehiHzreSzNTczkc9d"?>
<x:xmpmeta xmlns:x="adobe:ns:meta/" x:xmptk="Adobe XMP Core 5.6-c138 79.159824, 2016/09/14-01:09:01        ">
   <rdf:RDF xmlns:rdf="http://www.w3.org/1999/02/22-rdf-syntax-ns#">
      <rdf:Description rdf:about=""/>
   </rdf:RDF>
</x:xmpmeta>
                                                                                                    
                                                                                                    
                                                                                                    
                                                                                                    
                                                                                                    
                                                                                                    
                                                                                                    
                                                                                                    
                                                                                                    
                                                                                                    
                                                                                                    
                                                                                                    
                                                                                                    
                                                                                                    
                                                                                                    
                                                                                                    
                                                                                                    
                                                                                                    
                                                                                                    
                                                                                                    
                           
<?xpacket end="w"?></metadata>
<defs>
    <style>
      .cls-1 {
        fill: #149718;
        fill-rule: evenodd;
      }
    </style>
  </defs>
  <path id="icon-ad5" class="cls-1" d="M1418,1403.25a3.389,3.389,0,0,0,3.32-3.38A3.321,3.321,0,1,0,1418,1403.25Zm0-4.99a1.449,1.449,0,0,1,1.46,1.49,1.508,1.508,0,0,1-1.46,1.49A1.49,1.49,0,0,1,1418,1398.26Zm-13.51,23.91a3.386,3.386,0,0,0,0,6.77,3.385,3.385,0,0,0,3.32-3.39A3.319,3.319,0,0,0,1404.49,1422.17Zm0,4.78a1.515,1.515,0,0,1-1.46-1.49,1.455,1.455,0,0,1,1.46-1.49,1.524,1.524,0,0,1,1.47,1.49A1.457,1.457,0,0,1,1404.49,1426.95Zm27.02-8.26a9.39,9.39,0,0,0-7.55,3.77l-5.08-4.71v-5.47a9.68,9.68,0,0,0,8.61-9.62,9.491,9.491,0,1,0-10.37,9.61v5.41l-5.1,4.74a9.41,9.41,0,0,0-7.53-3.74,9.662,9.662,0,1,0,9.49,9.66,9.908,9.908,0,0,0-.96-4.27l4.94-4.62,5.01,4.64a9.846,9.846,0,0,0-.95,4.25A9.491,9.491,0,1,0,1431.51,1418.69Zm-31.29,16.08a3.555,3.555,0,0,1,3.4-2.55h1.76a3.573,3.573,0,0,1,3.4,2.55A7.505,7.505,0,0,1,1400.22,1434.77Zm10.01-1.31a5.523,5.523,0,0,0-4.85-3.03h-1.76a5.355,5.355,0,0,0-4.89,2.98,7.829,7.829,0,0,1-1.86-5.08,7.631,7.631,0,1,1,15.26,0A7.862,7.862,0,0,1,1410.23,1433.46Zm7.77-23.05a7.479,7.479,0,0,1-4.27-1.33,3.555,3.555,0,0,1,3.4-2.55h1.76a3.573,3.573,0,0,1,3.4,2.55A7.515,7.515,0,0,1,1418,1410.41Zm-7.63-7.76a7.631,7.631,0,1,1,15.26,0,7.823,7.823,0,0,1-1.9,5.12,5.514,5.514,0,0,0-4.85-3.04h-1.76a5.355,5.355,0,0,0-4.89,2.98A7.735,7.735,0,0,1,1410.37,1402.65Zm16.86,32.12a3.555,3.555,0,0,1,3.4-2.55h1.76a3.573,3.573,0,0,1,3.4,2.55A7.505,7.505,0,0,1,1427.23,1434.77Zm10.01-1.31a5.523,5.523,0,0,0-4.85-3.03h-1.76a5.355,5.355,0,0,0-4.89,2.98,7.829,7.829,0,0,1-1.86-5.08,7.631,7.631,0,1,1,15.26,0A7.81,7.81,0,0,1,1437.24,1433.46Zm-5.73-11.29a3.386,3.386,0,1,0,3.32,3.38A3.319,3.319,0,0,0,1431.51,1422.17Zm0,4.78a1.524,1.524,0,0,1-1.47-1.49,1.465,1.465,0,1,1,2.93,0A1.449,1.449,0,0,1,1431.51,1426.95Z" transform="translate(-1395 -1393)"/>
</svg>
