<?xml version="1.0" encoding="utf-8"?>
<!-- Generator: Adobe Illustrator 21.0.0, SVG Export Plug-In . SVG Version: 6.00 Build 0)  -->
<svg version="1.1" id="Layer_1" xmlns="http://www.w3.org/2000/svg" xmlns:xlink="http://www.w3.org/1999/xlink" x="0px" y="0px"
	 viewBox="0 0 16 16" style="enable-background:new 0 0 16 16;" xml:space="preserve">
<style type="text/css">
	.st0{fill:#848484;}
	.st1{fill:none;stroke:#848484;stroke-miterlimit:10;}
</style>
<path class="st0" d="M8.5,8L11,5.5c0.1-0.1,0.1-0.4,0-0.5c-0.1-0.1-0.4-0.1-0.5,0L8,7.5L5.4,4.9c-0.1-0.1-0.4-0.1-0.5,0
	c-0.1,0.1-0.1,0.4,0,0.5L7.4,8l-2.5,2.5c-0.1,0.1-0.1,0.4,0,0.5c0.1,0.1,0.2,0.1,0.3,0.1s0.2,0,0.3-0.1L8,8.5l2.5,2.5
	c0.1,0.1,0.2,0.1,0.3,0.1c0.1,0,0.2,0,0.3-0.1c0.1-0.1,0.1-0.4,0-0.5L8.5,8z"/>
<circle class="st1" cx="8" cy="8" r="7.4"/>
</svg>
