<svg
        xmlns="http://www.w3.org/2000/svg"
        xmlns:xlink="http://www.w3.org/1999/xlink"
        width="37px" height="27px">
    <path fill-rule="evenodd"  fill="rgb(20, 151, 24)"
          d="M36.515,16.676 C36.206,16.996 35.827,17.160 35.380,17.168 C34.932,17.176 34.556,17.026 34.253,16.716 L29.685,21.449 C30.263,22.038 30.488,22.870 30.360,23.944 C30.233,25.018 29.803,25.934 29.071,26.692 C28.917,26.852 28.727,26.934 28.503,26.938 C28.280,26.942 28.092,26.867 27.940,26.712 L24.185,22.883 L19.429,26.892 C19.346,26.954 19.254,26.987 19.154,26.989 C19.054,26.990 18.969,26.955 18.899,26.884 L18.890,26.875 C18.733,26.714 18.720,26.536 18.851,26.340 L22.513,21.178 L18.976,17.572 C18.824,17.418 18.749,17.225 18.751,16.995 C18.753,16.764 18.832,16.569 18.986,16.409 C19.718,15.651 20.606,15.203 21.650,15.063 C22.694,14.923 23.505,15.147 24.082,15.737 L28.650,11.004 C28.346,10.694 28.197,10.309 28.201,9.849 C28.205,9.389 28.362,8.998 28.671,8.678 C28.981,8.357 29.359,8.193 29.807,8.184 C30.255,8.177 30.630,8.327 30.934,8.637 L36.537,14.350 C36.840,14.659 36.990,15.044 36.985,15.504 C36.981,15.965 36.825,16.355 36.515,16.676 ZM30.331,12.718 C30.249,12.634 30.155,12.594 30.049,12.595 C29.943,12.597 29.848,12.642 29.765,12.728 L25.768,16.869 C25.685,16.955 25.643,17.052 25.642,17.161 C25.641,17.271 25.681,17.367 25.763,17.449 C25.845,17.533 25.939,17.574 26.045,17.572 C26.151,17.570 26.245,17.526 26.329,17.440 L30.325,13.299 C30.409,13.213 30.451,13.115 30.452,13.006 C30.453,12.897 30.412,12.801 30.331,12.718 ZM24.492,9.803 L0.845,9.803 C0.378,9.803 -0.000,9.438 -0.000,8.986 C-0.000,8.534 0.378,8.169 0.845,8.169 L24.492,8.169 C24.958,8.169 25.336,8.534 25.336,8.986 C25.336,9.438 24.958,9.803 24.492,9.803 ZM24.492,1.634 L0.845,1.634 C0.378,1.634 -0.000,1.269 -0.000,0.817 C-0.000,0.365 0.378,-0.000 0.845,-0.000 L24.492,-0.000 C24.958,-0.000 25.336,0.365 25.336,0.817 C25.336,1.269 24.958,1.634 24.492,1.634 ZM0.845,16.338 L15.202,16.338 C15.668,16.338 16.046,16.703 16.046,17.155 C16.046,17.607 15.668,17.972 15.202,17.972 L0.845,17.972 C0.378,17.972 -0.000,17.607 -0.000,17.155 C-0.000,16.703 0.378,16.338 0.845,16.338 ZM0.845,24.507 L12.668,24.507 C13.134,24.507 13.513,24.872 13.513,25.325 C13.513,25.775 13.134,26.141 12.668,26.141 L0.845,26.141 C0.378,26.141 -0.000,25.775 -0.000,25.325 C-0.000,24.872 0.378,24.507 0.845,24.507 Z"/>
</svg>