<svg
        xmlns="http://www.w3.org/2000/svg"
        xmlns:xlink="http://www.w3.org/1999/xlink"
        width="52px" height="58px">
    <path fill-rule="evenodd"  fill="rgb(20, 151, 24)"
          d="M50.456,57.447 C50.094,57.816 49.619,57.999 49.144,57.999 C48.670,57.999 48.195,57.816 47.832,57.447 L39.665,49.143 C37.198,51.075 34.192,52.122 31.027,52.122 C27.236,52.122 23.673,50.622 20.993,47.896 C19.818,46.703 18.894,45.350 18.218,43.907 L1.855,43.907 C0.831,43.907 -0.000,43.061 -0.000,42.020 L-0.000,1.886 C-0.000,0.845 0.831,0.000 1.855,0.000 L24.995,0.000 C25.487,0.000 25.958,0.199 26.306,0.552 L35.375,9.772 C35.723,10.126 35.919,10.606 35.919,11.106 L35.919,24.145 C37.829,24.857 39.580,25.988 41.061,27.494 C46.150,32.666 46.558,40.823 42.287,46.476 L50.456,54.780 C51.180,55.517 51.180,56.712 50.456,57.447 ZM26.849,6.438 L26.849,9.220 L29.585,9.220 L26.849,6.438 ZM32.209,12.992 L24.994,12.992 C23.970,12.992 23.139,12.148 23.139,11.107 L23.139,3.773 L3.710,3.773 L3.710,40.134 L17.045,40.134 C16.597,37.454 16.894,34.669 17.936,32.128 L6.922,32.128 C6.239,32.128 5.685,31.566 5.685,30.871 C5.685,30.177 6.239,29.614 6.922,29.614 L19.271,29.614 C19.769,28.866 20.342,28.155 20.993,27.494 C21.494,26.984 22.027,26.516 22.587,26.094 L6.922,26.094 C6.239,26.094 5.685,25.531 5.685,24.836 C5.685,24.142 6.239,23.579 6.922,23.579 L28.079,23.579 C29.037,23.374 30.024,23.268 31.027,23.268 C31.424,23.268 31.818,23.285 32.209,23.318 L32.209,12.992 ZM35.239,27.935 C33.928,27.350 32.501,27.040 31.027,27.040 C28.227,27.040 25.596,28.148 23.616,30.161 C22.932,30.856 22.365,31.626 21.910,32.442 L28.837,32.442 C29.520,32.442 30.074,33.005 30.074,33.700 C30.074,34.394 29.520,34.957 28.837,34.957 L20.903,34.957 C20.170,37.778 20.591,40.845 22.165,43.380 L35.239,43.380 L35.239,27.935 ZM38.438,30.161 C38.205,29.924 37.962,29.701 37.712,29.490 L37.712,44.638 C37.712,45.332 37.158,45.895 36.475,45.895 L24.335,45.895 C26.212,47.484 28.554,48.350 31.027,48.350 C33.826,48.350 36.458,47.242 38.438,45.230 C42.525,41.075 42.525,34.315 38.438,30.161 ZM28.997,20.059 L6.922,20.059 C6.239,20.059 5.685,19.496 5.685,18.802 C5.685,18.107 6.239,17.544 6.922,17.544 L28.997,17.544 C29.680,17.544 30.234,18.107 30.234,18.802 C30.234,19.496 29.680,20.059 28.997,20.059 Z"/>
</svg>