<svg
        xmlns="http://www.w3.org/2000/svg"
        xmlns:xlink="http://www.w3.org/1999/xlink"
        width="50px" height="50px">
    <path fill-rule="evenodd"  fill="rgb(20, 151, 24)"
          d="M25.000,0.000 C38.807,0.000 50.000,11.193 50.000,25.000 C50.000,38.807 38.807,50.000 25.000,50.000 C11.193,50.000 -0.000,38.807 -0.000,25.000 C-0.000,11.193 11.193,0.000 25.000,0.000 Z"/>
    <path fill-rule="evenodd"  fill="rgb(255, 255, 255)"
          d="M36.258,27.694 L35.924,27.694 C35.385,29.168 34.450,30.524 33.201,31.631 C33.191,31.640 33.176,31.651 33.165,31.661 C33.160,31.666 33.160,31.666 33.155,31.671 C33.109,31.712 33.063,31.753 33.016,31.793 C32.056,32.660 31.974,33.670 31.968,33.879 L31.968,34.782 C31.968,35.455 31.419,36.000 30.741,36.000 L27.021,36.000 C26.343,36.000 25.793,35.455 25.793,34.782 L25.793,34.573 C25.223,34.598 24.652,34.593 24.082,34.547 L24.082,34.776 C24.082,35.449 23.532,35.995 22.854,35.995 L19.134,35.995 C18.508,35.995 17.979,35.521 17.917,34.904 C17.912,34.883 17.912,34.858 17.912,34.832 C17.912,34.812 17.912,34.797 17.912,34.782 L17.912,34.521 C17.886,33.986 17.711,32.666 16.689,31.620 C15.959,30.876 15.317,29.917 14.778,28.759 C14.454,28.132 14.202,27.465 14.033,26.786 C14.033,26.766 14.028,26.756 14.028,26.756 C14.022,26.745 14.017,26.730 14.017,26.720 C13.858,26.047 13.776,25.354 13.776,24.665 C13.776,24.176 13.817,23.681 13.899,23.202 C13.956,22.865 14.274,22.641 14.608,22.697 C14.947,22.753 15.173,23.069 15.117,23.401 C15.045,23.814 15.009,24.237 15.009,24.660 C15.009,25.262 15.081,25.863 15.225,26.450 C15.225,26.455 15.225,26.455 15.225,26.460 C15.225,26.465 15.230,26.470 15.230,26.475 C15.379,27.072 15.595,27.653 15.882,28.204 C15.887,28.209 15.887,28.214 15.893,28.224 C16.375,29.259 16.941,30.111 17.573,30.758 C18.903,32.115 19.114,33.808 19.145,34.471 C19.145,34.475 19.145,34.486 19.145,34.496 L19.145,34.766 L22.849,34.766 L22.849,33.864 C22.849,33.691 22.926,33.522 23.060,33.405 C23.193,33.287 23.373,33.231 23.548,33.257 C24.061,33.323 24.591,33.359 25.115,33.359 C25.526,33.359 25.937,33.333 26.348,33.293 C26.522,33.272 26.692,33.328 26.826,33.446 C26.959,33.563 27.031,33.726 27.031,33.899 L27.031,34.761 L30.735,34.761 L30.735,33.859 C30.735,33.853 30.735,33.849 30.735,33.843 C30.746,33.446 30.879,32.054 32.194,30.870 C32.200,30.870 32.205,30.866 32.210,30.860 C32.256,30.819 32.302,30.784 32.349,30.743 L32.354,30.738 C32.359,30.733 32.359,30.733 32.364,30.728 C33.576,29.657 34.455,28.336 34.897,26.899 C34.979,26.638 35.215,26.465 35.488,26.465 L36.269,26.465 C36.551,26.465 36.777,26.241 36.777,25.960 L36.777,23.207 C36.777,22.926 36.551,22.702 36.269,22.702 L35.452,22.702 C35.447,22.702 35.447,22.702 35.441,22.702 C35.174,22.702 34.938,22.529 34.856,22.279 C34.352,20.760 33.371,19.378 32.015,18.292 C31.871,18.180 31.789,18.011 31.783,17.833 C31.783,17.827 31.783,17.822 31.783,17.817 C31.491,16.797 31.686,15.706 32.354,14.651 C32.359,14.641 32.374,14.621 32.354,14.590 C32.333,14.559 32.313,14.564 32.297,14.564 C30.607,14.773 29.728,15.594 29.287,16.242 C29.132,16.466 28.850,16.563 28.588,16.482 C27.915,16.272 27.216,16.120 26.507,16.038 C26.168,16.002 25.926,15.696 25.968,15.360 C26.004,15.023 26.312,14.783 26.651,14.824 C27.288,14.901 27.920,15.023 28.531,15.191 C29.179,14.417 30.283,13.580 32.138,13.351 C32.636,13.290 33.114,13.514 33.386,13.932 C33.659,14.350 33.659,14.875 33.392,15.298 C32.909,16.063 32.765,16.797 32.960,17.481 C32.960,17.486 32.960,17.486 32.960,17.486 C34.286,18.597 35.282,19.969 35.868,21.478 L36.258,21.478 C37.219,21.478 38.000,22.253 38.000,23.212 L38.000,25.965 C38.000,26.919 37.219,27.694 36.258,27.694 ZM19.037,22.983 C15.708,22.983 13.000,20.295 13.000,16.991 C13.000,13.687 15.708,11.000 19.037,11.000 C22.366,11.000 25.074,13.687 25.074,16.991 C25.074,20.295 22.366,22.983 19.037,22.983 ZM19.037,12.224 C16.386,12.224 14.233,14.360 14.233,16.991 C14.233,19.622 16.386,21.759 19.037,21.759 C21.688,21.759 23.841,19.622 23.841,16.991 C23.841,14.360 21.688,12.224 19.037,12.224 Z"/>
</svg>