<svg
        xmlns="http://www.w3.org/2000/svg"
        xmlns:xlink="http://www.w3.org/1999/xlink"
        width="16px" height="16px">
    <path fill-rule="evenodd"  fill="rgb(132, 132, 132)"
          d="M9.324,7.997 L15.723,1.598 C16.090,1.231 16.090,0.636 15.723,0.270 C15.357,-0.097 14.762,-0.097 14.395,0.270 L7.996,6.669 L1.595,0.270 C1.229,-0.097 0.633,-0.097 0.267,0.270 C-0.099,0.636 -0.099,1.231 0.267,1.598 L6.667,7.997 L0.267,14.397 C-0.099,14.763 -0.099,15.359 0.267,15.725 C0.450,15.908 0.691,16.000 0.931,16.000 C1.171,16.000 1.411,15.908 1.595,15.725 L7.995,9.325 L14.394,15.725 C14.578,15.908 14.819,16.000 15.058,16.000 C15.299,16.000 15.540,15.908 15.723,15.725 C16.090,15.358 16.090,14.763 15.723,14.397 L9.324,7.997 Z"/>
</svg>