<svg xmlns="http://www.w3.org/2000/svg" width="33" height="45" viewBox="0 0 33 45">
  <metadata><?xpacket begin="﻿" id="W5M0MpCehiHzreSzNTczkc9d"?>
<x:xmpmeta xmlns:x="adobe:ns:meta/" x:xmptk="Adobe XMP Core 5.6-c138 79.159824, 2016/09/14-01:09:01        ">
   <rdf:RDF xmlns:rdf="http://www.w3.org/1999/02/22-rdf-syntax-ns#">
      <rdf:Description rdf:about=""/>
   </rdf:RDF>
</x:xmpmeta>
                                                                                                    
                                                                                                    
                                                                                                    
                                                                                                    
                                                                                                    
                                                                                                    
                                                                                                    
                                                                                                    
                                                                                                    
                                                                                                    
                                                                                                    
                                                                                                    
                                                                                                    
                                                                                                    
                                                                                                    
                                                                                                    
                                                                                                    
                                                                                                    
                                                                                                    
                                                                                                    
                           
<?xpacket end="w"?></metadata>
<defs>
    <style>
      .cls-1 {
        fill: #149718;
        fill-rule: evenodd;
      }
    </style>
  </defs>
  <path id="icon-ad2" class="cls-1" d="M695.806,1409.13a6.877,6.877,0,0,0,7.026.01c2.333-1.39,3.7-4.04,3.834-7.29H708.6a1.02,1.02,0,0,0,0-2.04H694.066c0.4-2.74,2.348-4.78,4.686-4.78h1.385a4.634,4.634,0,0,1,3.926,2.53,1.006,1.006,0,0,0,1.38.38,1.026,1.026,0,0,0,.375-1.39,6.6,6.6,0,0,0-5.68-3.55h-1.386c-3.734,0-6.773,3.49-6.782,7.78C691.835,1404.54,693.232,1407.59,695.806,1409.13Zm8.836-7.28c-0.125,2.54-1.135,4.52-2.842,5.54a4.826,4.826,0,0,1-4.961.01c-1.708-1.02-2.718-3.01-2.843-5.55h10.646Zm-1.309,13.34-1.031,3.3a1.011,1.011,0,1,1-1.928-.61l1.062-3.4a9.736,9.736,0,0,0-2.784-.22,9.26,9.26,0,0,0-1.449.23l2.764,8.83a1.023,1.023,0,0,1-.661,1.28,1.01,1.01,0,0,1-1.268-.66l-2.732-8.73a5.537,5.537,0,0,0-2.951,3.96l-2.161,11.76h9.758a1.015,1.015,0,0,1,0,2.03H688.978a1.007,1.007,0,0,1-.777-0.39,1.061,1.061,0,0,1-.217-0.85l2.383-12.94c0.675-3.67,3.871-6.24,8.141-6.55a10.8,10.8,0,0,1,5.665,1.12,7.655,7.655,0,0,1,3.822,4.36,1.011,1.011,0,1,1-1.915.65A5.615,5.615,0,0,0,703.333,1415.19Zm8.506,10.68a2.915,2.915,0,1,0,2.9,2.91A2.91,2.91,0,0,0,711.839,1425.87Zm0,3.8a0.885,0.885,0,1,1,.877-0.89A0.885,0.885,0,0,1,711.839,1429.67Zm8.15-1.89h-1.708a6.7,6.7,0,0,0-1.174-2.85l1.21-1.22a1.024,1.024,0,0,0,0-1.44,1,1,0,0,0-1.429,0l-1.21,1.21a6.559,6.559,0,0,0-2.828-1.18v-1.71a1.011,1.011,0,1,0-2.022,0v1.71a6.563,6.563,0,0,0-2.829,1.18l-1.209-1.21a1,1,0,0,0-1.43,0,1.023,1.023,0,0,0,0,1.44l1.21,1.22a6.7,6.7,0,0,0-1.174,2.85h-1.708a1.015,1.015,0,0,0,0,2.03H705.4a6.671,6.671,0,0,0,1.175,2.84l-1.21,1.21a1.023,1.023,0,0,0,0,1.44,1,1,0,0,0,1.43,0l1.209-1.22a6.459,6.459,0,0,0,2.828,1.19v1.71a1.011,1.011,0,1,0,2.021,0v-1.71a6.458,6.458,0,0,0,2.829-1.19l1.209,1.22a1,1,0,0,0,1.43,0,1.023,1.023,0,0,0,0-1.44l-1.21-1.21a6.671,6.671,0,0,0,1.175-2.84h1.707A1.015,1.015,0,0,0,719.989,1427.78Zm-3.652,1.09a4.555,4.555,0,0,1-1.271,3.07,0.16,0.16,0,0,0-.049.04c-0.016.02-.031,0.03-0.046,0.05a4.465,4.465,0,0,1-3.043,1.28c-0.029,0-.059-0.01-0.09-0.01s-0.06.01-.09,0.01a4.461,4.461,0,0,1-3.04-1.28c-0.015-.02-0.031-0.03-0.048-0.05s-0.033-.03-0.051-0.05a4.513,4.513,0,0,1-1.269-3.06c0-.03,0-0.06,0-0.09s0-.05,0-0.08a4.55,4.55,0,0,1,1.271-3.07c0.017-.01.033-0.03,0.049-0.04a0.29,0.29,0,0,1,.047-0.05,4.461,4.461,0,0,1,3.04-1.28h0.183a4.466,4.466,0,0,1,3.042,1.28c0.014,0.02.029,0.03,0.045,0.05s0.031,0.03.048,0.04a4.55,4.55,0,0,1,1.272,3.06c0,0.03,0,.06,0,0.09S716.334,1428.84,716.337,1428.87Z" transform="translate(-688 -1393)"/>
</svg>
