<svg xmlns="http://www.w3.org/2000/svg" width="34" height="45" viewBox="0 0 34 45">
  <metadata><?xpacket begin="﻿" id="W5M0MpCehiHzreSzNTczkc9d"?>
<x:xmpmeta xmlns:x="adobe:ns:meta/" x:xmptk="Adobe XMP Core 5.6-c138 79.159824, 2016/09/14-01:09:01        ">
   <rdf:RDF xmlns:rdf="http://www.w3.org/1999/02/22-rdf-syntax-ns#">
      <rdf:Description rdf:about=""/>
   </rdf:RDF>
</x:xmpmeta>
                                                                                                    
                                                                                                    
                                                                                                    
                                                                                                    
                                                                                                    
                                                                                                    
                                                                                                    
                                                                                                    
                                                                                                    
                                                                                                    
                                                                                                    
                                                                                                    
                                                                                                    
                                                                                                    
                                                                                                    
                                                                                                    
                                                                                                    
                                                                                                    
                                                                                                    
                                                                                                    
                           
<?xpacket end="w"?></metadata>
<defs>
    <style>
      .cls-1 {
        fill: #149718;
        fill-rule: evenodd;
      }
    </style>
  </defs>
  <path id="icon-ad1" class="cls-1" d="M482.9,1432.42a0.7,0.7,0,0,1-.707-0.7,0.71,0.71,0,0,1,.707-0.71h8.2a0.709,0.709,0,0,1,.7.71,0.7,0.7,0,0,1-.7.7h-8.2Zm0.91,2.79a0.7,0.7,0,0,1-.7-0.7,0.71,0.71,0,0,1,.7-0.71h6.377a0.709,0.709,0,0,1,.7.71,0.7,0.7,0,0,1-.7.7h-6.377Zm2.525-9.72a0.7,0.7,0,0,1-1.4,0,37.033,37.033,0,0,0-.5-7.22,20.833,20.833,0,0,0-2.42-6.22,0.7,0.7,0,0,1,.272-0.95,0.718,0.718,0,0,1,.956.27,22.025,22.025,0,0,1,2.575,6.63A38.335,38.335,0,0,1,486.337,1425.49Zm2.732,0a0.7,0.7,0,0,1-1.4,0,38.257,38.257,0,0,1,.52-7.49,22.02,22.02,0,0,1,2.574-6.63,0.708,0.708,0,0,1,.955-0.27,0.7,0.7,0,0,1,.272.95,20.833,20.833,0,0,0-2.42,6.22A37.12,37.12,0,0,0,489.069,1425.49Zm-6.655-13.11a0.7,0.7,0,1,1,.429-1.33,8.9,8.9,0,0,1,1.307.56l0.039,0.02c0.612,0.31,1.122.55,1.5,0.24l0.867-.7a0.7,0.7,0,1,1,.886,1.09l-0.867.7c-1.08.88-1.963,0.45-3.027-.08l-0.032-.02A9.035,9.035,0,0,0,482.414,1412.38Zm5.292-15.95a0.706,0.706,0,0,1-1.411,0v-2.73a0.706,0.706,0,0,1,1.411,0v2.73Zm3.453,14.62a0.7,0.7,0,1,1,.429,1.33,7.774,7.774,0,0,0-1.105.49l-0.032.01c-1.063.53-1.947,0.96-3.027,0.08l-0.867-.7a0.7,0.7,0,1,1,.886-1.09l0.867,0.7c0.379,0.31.887,0.07,1.5-.24l0.039-.02A8.971,8.971,0,0,1,491.159,1411.05Zm4.715-7.12a12.479,12.479,0,0,1,1.262,16.22,44.776,44.776,0,0,1-3.161,3.82c-1.468,1.62-2.111,2.33-2.111,4.7a0.7,0.7,0,0,1-.7.7H482.9a0.7,0.7,0,0,1-.707-0.7c0-2.34-.656-3.06-2.114-4.65h0a42.463,42.463,0,0,1-3.212-3.87,12.474,12.474,0,0,1-1.46-12.16l0.013-.03a12.527,12.527,0,0,1,6.785-6.74v-0.01a12.552,12.552,0,0,1,13.669,2.72h0Zm2.264,8.85a11.073,11.073,0,0,0-3.262-7.86,11.11,11.11,0,0,0-7.875-3.25,11.126,11.126,0,0,0-4.258.84h0a11.178,11.178,0,0,0-6.02,5.98l-0.014.04a11.066,11.066,0,0,0,1.3,10.79,40.718,40.718,0,0,0,3.117,3.75h0c1.569,1.71,2.349,2.57,2.471,4.9h6.879c0.121-2.35.886-3.19,2.463-4.93a43.07,43.07,0,0,0,3.067-3.72A11.056,11.056,0,0,0,498.138,1412.78ZM484.723,1438a0.7,0.7,0,0,1-.705-0.7,0.709,0.709,0,0,1,.705-0.71h4.555a0.709,0.709,0,0,1,.7.71,0.7,0.7,0,0,1-.7.7h-4.555Zm10.93-39.07a0.7,0.7,0,0,1-1.218-.7l1.367-2.36a0.7,0.7,0,1,1,1.218.7Zm-16.088-.7a0.7,0.7,0,0,1-1.217.7l-1.366-2.36a0.7,0.7,0,1,1,1.218-.7Zm-6.146,5.61a0.7,0.7,0,1,1-.7,1.21l-2.367-1.36a0.693,0.693,0,0,1-.26-0.95,0.7,0.7,0,0,1,.959-0.26Zm27.863,1.21a0.7,0.7,0,1,1-.7-1.21l2.367-1.36a0.7,0.7,0,0,1,.959.26,0.694,0.694,0,0,1-.258.95Zm-21.608,10.5a0.7,0.7,0,0,1-1.295.55,9.233,9.233,0,0,1-.549-1.78,9.441,9.441,0,0,1-.188-1.85,0.705,0.705,0,1,1,1.41,0,7.913,7.913,0,0,0,.156,1.58,7.539,7.539,0,0,0,.466,1.5h0Zm0-6.17a0.7,0.7,0,0,1-1.295-.54,9.305,9.305,0,0,1,.857-1.58h0a9.227,9.227,0,0,1,2.539-2.53h0a9.379,9.379,0,0,1,1.585-.86,9.207,9.207,0,0,1,3.641-.73,0.7,0.7,0,1,1,0,1.4,8.105,8.105,0,0,0-1.586.16,7.656,7.656,0,0,0-1.51.46,8.029,8.029,0,0,0-1.343.73h0a8.388,8.388,0,0,0-1.18.97,7.9,7.9,0,0,0-.976,1.18h0A7.623,7.623,0,0,0,479.674,1409.38Z" transform="translate(-470 -1393)"/>
</svg>
