<?xml version="1.0" encoding="utf-8"?>
<!-- Generator: Adobe Illustrator 16.0.0, SVG Export Plug-In . SVG Version: 6.00 Build 0)  -->
<!DOCTYPE svg PUBLIC "-//W3C//DTD SVG 1.1//EN" "http://www.w3.org/Graphics/SVG/1.1/DTD/svg11.dtd" [
	<!ENTITY ns_flows "http://ns.adobe.com/Flows/1.0/">
	<!ENTITY ns_extend "http://ns.adobe.com/Extensibility/1.0/">
	<!ENTITY ns_ai "http://ns.adobe.com/AdobeIllustrator/10.0/">
	<!ENTITY ns_graphs "http://ns.adobe.com/Graphs/1.0/">
]>
<svg version="1.1" id="Layer_1" xmlns:x="&ns_extend;" xmlns:i="&ns_ai;" xmlns:graph="&ns_graphs;"
	 xmlns="http://www.w3.org/2000/svg" xmlns:xlink="http://www.w3.org/1999/xlink" xmlns:a="http://ns.adobe.com/AdobeSVGViewerExtensions/3.0/"
	 x="0px" y="0px" width="1200px" height="720px" viewBox="0 0 1200 720" enable-background="new 0 0 1200 720" xml:space="preserve"
	>
<path fill-rule="evenodd" clip-rule="evenodd" fill="#fff" d="M932.02,591.169c-18.957,0-37.906,0.018-56.857-0.006
	c-7.035-0.012-7.127-0.063-6.08-7.207c3.494-23.891,7.074-47.771,10.598-71.65c0.861-5.859,1.781-11.713,2.389-17.597
	c0.445-4.327,2.547-6.819,6.723-7.919c3.436-0.908,6.791-2.095,10.414-1.979c8.305,0.26,12.887,4.836,12.191,13.143
	c-0.689,8.249-2.111,16.429-3.262,24.639c-1.896,13.592-3.709,27.203-5.838,40.77c-0.543,3.453,0.156,4.604,3.732,4.812
	c14.896,0.855,14.77,0.908,16.793-13.837c2.766-20.165,5.871-40.29,8.637-60.456c0.486-3.564,2.037-5.496,5.346-6.595
	c3.609-1.197,7.154-2.493,11.025-2.476c9.092,0.041,14.051,5.634,12.789,14.688c-1.938,13.831-4.01,27.641-6.016,41.459
	c-1.088,7.497-2.105,15.005-3.268,22.49c-0.521,3.309,0.443,4.912,4.037,4.692c3.064-0.186,6.154,0.018,9.238-0.046
	c5.311-0.1,5.426-0.122,6.223-5.445c2.062-13.812,4.01-27.645,6.029-41.465c1.371-9.365,2.811-18.725,4.152-28.096
	c0.279-1.932,0.504-3.719,2.562-4.68c4.779-2.221,9.689-3.945,15.041-3.528c7.641,0.603,11.812,4.94,11.184,12.634
	c-0.748,9.191-2.217,18.326-3.508,27.467c-2.672,18.984-5.438,37.959-8.162,56.938c-0.168,1.17-0.283,2.35-0.492,3.518
	c-1.012,5.634-1.018,5.709-6.635,5.721C971.346,591.192,951.682,591.169,932.02,591.169z"/>
<path fill-rule="evenodd" clip-rule="evenodd" fill="#fff" d="M1049.461,534.601c8.029-7.705,15.822-15.678,24.168-23.012
	c4.945-4.344,8.197-9.164,8.025-15.717c-0.156-5.965,3.295-8.336,8.277-9.614c1.832-0.47,3.66-1.03,5.529-1.278
	c10.533-1.406,16.592,4.101,15.271,14.67c-2.4,19.244-5.293,38.429-7.988,57.639c-1.312,9.371-2.604,18.742-3.984,28.103
	c-0.834,5.662-0.904,5.697-6.613,5.743c-6.393,0.053-12.785,0.07-19.176-0.006c-5.207-0.063-5.26-0.186-4.529-5.17
	c1.885-12.871,3.787-25.744,5.668-38.62c0.094-0.63,0.012-1.289,0.012-2.839c-5.107,4.794-9.74,9.109-14.34,13.459
	c-2.928,2.766-5.658,5.757-8.752,8.32c-6.398,5.297-11.391,11.215-11.049,20.193c0.133,3.529-1.66,4.895-5.305,4.749
	c-6.619-0.261-13.254-0.017-19.883-0.093c-5.535-0.063-5.691-0.209-4.916-5.662c1.799-12.645,3.707-25.279,5.58-37.914
	c2.645-17.782,5.439-35.541,7.846-53.352c0.52-3.895,2.139-5.912,5.662-7.064c3.609-1.18,7.191-2.406,11.045-2.324
	c8.346,0.174,12.986,4.656,12.309,12.963c-0.748,9.182-2.324,18.292-3.539,27.438c-0.348,2.574-0.707,5.154-1.061,7.734
	C1047.252,534.601,1047.922,535.058,1049.461,534.601z"/>
<path fill-rule="evenodd" clip-rule="evenodd" fill="#fff" d="M767.832,587.022c2.412-15.909,4.848-31.816,7.23-47.73
	c2.279-15.214,4.611-30.428,6.67-45.671c0.445-3.286,1.834-5.079,4.814-6.172c4.031-1.476,8.062-2.841,12.418-2.614
	c7.967,0.404,12.264,4.818,11.75,12.801c-0.387,6.127-1.535,12.207-2.35,18.309c-0.248,1.875-0.451,3.761-0.791,5.623
	c-0.586,3.176,0.156,4.871,3.902,4.75c6.623-0.215,13.266-0.174,19.895,0c3.297,0.086,4.484-1.186,4.889-4.438
	c1.162-9.395,2.881-18.719,3.992-28.113c0.393-3.298,1.664-5.154,4.674-6.277c3.568-1.324,7.148-2.539,10.979-2.66
	c9.059-0.29,14.051,4.431,13.271,13.374c-0.852,9.661-2.338,19.269-3.693,28.878c-2.652,18.748-5.4,37.479-8.121,56.216
	c-0.242,1.642-0.566,3.268-0.805,4.903c-0.277,1.91-1.236,2.934-3.266,2.928c-8.059-0.022-16.113,0.023-24.164-0.022
	c-3.436-0.023-2.748-2.413-2.43-4.541c1.529-10.303,3.055-20.599,4.582-30.901c0.139-0.938,0.26-1.875,0.422-2.806
	c0.371-2.083-0.463-3.183-2.598-3.183c-7.578-0.012-15.16,0.006-22.738-0.006c-2.58,0-2.928,1.781-3.205,3.783
	c-1.297,9.377-2.65,18.749-3.975,28.121c-0.104,0.705-0.115,1.416-0.215,2.121c-0.994,7.434-0.994,7.445-8.717,7.451
	c-7.348,0.006-14.688-0.006-22.035-0.012C766.646,589.902,766.756,588.507,767.832,587.022z"/>
<path fill-rule="evenodd" clip-rule="evenodd" fill="#fff" d="M1116.02,559.84c7.758,6.772,16.174,9.237,25.535,8.735
	c4.102-0.221,7.98-1.193,11.256-3.785c3.512-2.782,5.098-7.582,3.934-11.412c-1.193-3.945-3.99-5.947-9.285-6.236
	c-3.777-0.201-7.57-0.108-11.359-0.08c-2.205,0.016-3.744-0.434-3.32-3.182c0.723-4.676,1.381-9.367,2.006-14.058
	c0.277-2.083,1.568-2.729,3.436-2.741c1.656-0.012,3.322,0.041,4.969-0.076c3.102-0.213,6.111-0.885,8.766-2.586
	c3.846-2.452,5.727-6.721,4.615-10.227c-1.168-3.674-3.869-5.334-8.92-5.479c-5.316-0.145-10.303,1.267-15.16,3.245
	c-1.922,0.78-3.803,1.649-6.254,2.72c-1.893-5.988-3.65-11.581-5.438-17.164c-0.625-1.949,0.178-3.199,1.863-4.032
	c15.986-7.86,32.555-11.534,50.141-6.265c10.07,3.014,16.254,9.84,16.863,20.473c0.6,10.609-2.986,19.57-12.797,25.088
	c-1.436,0.811-2.957,1.463-4.482,2.215c0.336,0.383,0.537,0.805,0.867,0.961c15.422,7.393,19.928,22.057,11.391,37.154
	c-2.494,4.414-5.883,7.99-10.123,10.754c-14.521,9.471-44.301,14.006-64.494-1.231c-6.814-5.144-6.895-5.05-1.945-11.923
	C1110.564,567.267,1113.088,563.854,1116.02,559.84z"/>
<path fill-rule="evenodd" clip-rule="evenodd" fill="#fff" d="M701.928,451.868c-6.393,0-12.785-0.082-19.178,0.033
	c-2.922,0.059-4.332-0.86-4.293-4.031c0.123-9.232,0.059-18.465,0.035-27.703c-0.006-2.348,0.33-4.35,3.385-4.102
	c2.854,0.232,2.395,2.471,2.412,4.27c0.053,7.104,0.174,14.207-0.035,21.305c-0.104,3.633,1.053,5.057,4.832,4.976
	c11.961-0.267,9.943,0.988,10.1-9.568c0.08-5.687,0.012-11.366,0.035-17.054c0.012-1.932,0.012-3.916,2.781-3.934
	c2.66-0.011,2.99,1.754,2.984,3.818c-0.006,7.104-0.047,14.207,0.035,21.311c0.057,5.178,0.133,5.334,4.965,5.328
	c11.482-0.006,9.439,1.029,9.613-9.191c0.086-4.969,0.006-9.945,0.023-14.914c0.006-1.423-0.006-2.852,0.145-4.257
	c0.201-1.81,1.568-2.146,3.082-2.089c1.301,0.047,2.377,0.613,2.383,2.025c0.07,10.418,0.135,20.83,0.064,31.248
	c-0.018,2.766-2.314,2.518-4.188,2.523C714.711,451.885,708.32,451.874,701.928,451.868z"/>
<path fill-rule="evenodd" clip-rule="evenodd" fill="#fff" d="M741.391,440.859c4.668-6.78,9.324-13.565,14.016-20.333
	c0.938-1.349,1.793-2.893,3.066-3.848c2.637-1.973,5.906-0.509,5.953,2.736c0.145,9.684,0.053,19.368,0.023,29.051
	c-0.006,1.787-0.486,3.24-2.725,3.355c-2.564,0.127-3.291-1.313-3.297-3.5c-0.018-4.489-0.023-8.978-0.035-13.461
	c0-2.527,0-5.05,0-8.66c-3.305,2.297-4.467,4.865-6,7.053c-3.795,5.414-7.502,10.893-11.188,16.375
	c-1.197,1.795-2.771,2.518-4.83,2.113c-2.65-0.516-2.215-2.709-2.227-4.508c-0.047-8.74-0.018-17.48-0.018-26.216
	c0-0.474,0.023-0.948,0.023-1.418c-0.023-2.192,0.717-3.684,3.232-3.557c2.256,0.115,2.527,1.7,2.533,3.465
	c0.012,4.489,0.018,8.978,0.023,13.461c0.006,2.522,0.006,5.045,0.006,7.566C740.43,440.646,740.91,440.749,741.391,440.859z"/>
<path fill-rule="evenodd" clip-rule="evenodd" fill="#fff" d="M1150.189,440.79c4.691-6.797,9.379-13.6,14.074-20.391
	c0.811-1.169,1.518-2.441,2.512-3.42c1.289-1.26,3.043-1.18,4.691-0.85c1.867,0.363,1.77,1.955,1.77,3.337
	c0.023,9.69,0.012,19.38,0.012,29.069c0,1.822-0.416,3.193-2.689,3.279c-2.574,0.092-3.246-1.267-3.234-3.5
	c0.029-7.26,0.012-14.525-1.133-22.312c-3.674,5.312-7.342,10.622-11.008,15.938c-1.881,2.718-3.75,5.448-5.625,8.173
	c-1.277,1.856-3.117,2.02-5.037,1.458c-1.822-0.531-1.43-2.244-1.436-3.558c-0.053-9.215-0.035-18.43-0.023-27.65
	c0-2.141-0.213-4.483,3.09-4.305c2.754,0.15,2.645,2.164,2.65,4.067c0.018,6.785,0.006,13.577,0.006,20.362
	C1149.271,440.587,1149.732,440.686,1150.189,440.79z"/>
<path fill-rule="evenodd" clip-rule="evenodd" fill="#fff" d="M1086.969,442.745c3.135-7.625,6.34-15.226,9.383-22.885
	c1.221-3.077,2.881-4.812,6.352-3.407c1.139,1.429,0.232,2.661-0.295,3.905c-5.229,12.408-10.4,24.846-15.723,37.219
	c-2.771,6.438-6.316,8.838-11.645,8.439c-1.459-0.109-2.984-0.127-3.025-2.082c-0.035-1.73,0.357-2.893,2.568-3.441
	c7.316-1.817,9.463-6.45,6.543-13.525c-3.695-8.954-7.498-17.863-11.211-26.812c-0.51-1.231-1.539-2.881,0.115-3.726
	c1.695-0.873,3.766-0.902,4.895,1.222c0.883,1.666,1.584,3.43,2.309,5.178c2.781,6.697,5.541,13.408,8.307,20.112
	C1086.016,442.878,1086.494,442.809,1086.969,442.745z"/>
<path fill-rule="evenodd" clip-rule="evenodd" fill="#fff" d="M795.506,432.905c0.527,1.371,1.805,1.614,2.719,2.313
	c5.6,4.315,5.266,10.788-0.711,14.497c-6.289,3.898-19.361,3.402-25.146-0.943c-1.398-1.047-2.703-2.146-1.359-4.043
	c1.098-1.568,2.367-0.955,3.691-0.174c3.533,2.088,7.352,3.188,11.492,3.117c2.426-0.041,4.723-0.497,6.834-1.66
	c1.717-0.948,3.117-2.256,3.135-4.396c0.018-2.505-1.654-3.817-3.725-4.663c-2.465-1-5.104-0.902-7.705-0.972
	c-1.893-0.052-3.797,0.018-5.67-0.179c-1.291-0.139-2.111-1.03-2.023-2.43c0.086-1.354,0.895-2.187,2.236-2.256
	c2.361-0.121,4.732-0.047,7.1-0.168c5.58-0.295,8.873-2.176,9.104-5.113c0.244-3.136-3.535-5.688-9.209-5.912
	c-3.83-0.151-7.578,0.515-10.828,2.748c-1.701,1.168-3.119,1.156-4.102-0.73c-0.92-1.764,0.658-2.498,1.734-3.303
	c5.9-4.408,18.141-4.703,24.367-0.625c5.105,3.35,5.639,8.197,1.305,12.461C797.781,431.419,796.57,432.118,795.506,432.905z"/>
<path fill-rule="evenodd" clip-rule="evenodd" fill="#fff" d="M669.699,434.433c0,4.726,0.006,9.457,0,14.195
	c0,1.886-0.605,3.146-2.816,3.188c-2.182,0.035-2.914-1.122-2.926-3.054c-0.018-2.841-0.146-5.687-0.006-8.517
	c0.143-2.932-0.869-4.528-4.01-4.279c-0.707,0.058-1.424-0.035-2.129,0.006c-3.754,0.213-8.324-1.47-11.061,0.734
	c-2.934,2.365-0.809,7.109-1.26,10.777c-0.146,1.145-0.164,2.395-0.654,3.384c-0.613,1.243-2.008,0.954-3.162,0.833
	c-1.496-0.162-1.912-1.32-1.912-2.528c-0.029-10.169-0.012-20.345,0.012-30.521c0-1.684,0.885-2.551,2.604-2.597
	c2.031-0.052,3.078,0.879,3.09,2.938c0.006,1.18,0.029,2.366,0.035,3.546c0.062,9.104-0.943,8.058,8.584,8.11
	c9.463,0.058,9.463,0.023,9.84-9.713c0.029-0.705,0.023-1.418,0.047-2.129c0.039-1.62,0.699-2.689,2.475-2.765
	c1.943-0.081,3.209,0.647,3.221,2.771c0.018,5.206,0.006,10.413,0.006,15.619C669.682,434.433,669.693,434.433,669.699,434.433z"/>
<path fill-rule="evenodd" clip-rule="evenodd" fill="#fff" d="M988.225,434.438c0,4.737,0,9.475,0,14.213
	c-0.006,1.897-0.619,3.146-2.84,3.152c-2.217,0.006-2.854-1.227-2.854-3.129c-0.018-7.579,0.035-15.162-0.051-22.741
	c-0.059-4.922-0.158-5.136-5.242-5.021c-9.238,0.209-8.855-2.377-10.186,8.775c-0.619,5.178-1.129,10.367-3.09,15.255
	c-1.277,3.188-3.229,5.808-6.676,6.913c-0.875,0.277-1.846,0.497-2.654-0.238c-0.811-0.751-0.902-2.146-0.43-2.598
	c7.811-7.316,6.133-17.457,7.955-26.516c1.312-6.514,1.094-6.566,7.908-6.595c3.789-0.012,7.578-0.023,11.367,0.006
	c6.768,0.046,6.773,0.058,6.809,7.149c0.018,3.789,0.006,7.584,0.006,11.373C988.236,434.438,988.23,434.438,988.225,434.438z"/>
<path fill-rule="evenodd" clip-rule="evenodd" fill="#fff" d="M1106.012,436.179c-0.074-15.67,12.045-24.538,24.123-19.916
	c2.018,0.77,3.812,1.863,5.322,3.412c0.971,1.002,1.041,2.089,0.145,3.131c-0.781,0.901-1.713,1.752-3.025,0.982
	c-1.221-0.711-2.291-1.718-3.557-2.296c-4.947-2.251-10.906-0.874-14.186,3.153c-3.857,4.737-3.986,13.055-0.271,17.92
	c3.447,4.523,9.359,5.936,14.637,3.477c0.635-0.295,1.275-0.665,1.785-1.145c1.684-1.568,3.385-1.903,4.709,0.226
	c1.504,2.412-0.764,3.447-2.191,4.391c-5.867,3.886-12.131,3.828-18.199,0.769C1108.73,446.974,1106.121,441.084,1106.012,436.179z"
	/>
<path fill-rule="evenodd" clip-rule="evenodd" fill="#fff" d="M850.762,434.456c-0.006,4.24,0.053,8.479-0.027,12.72
	c-0.047,1.979,0.6,4.56-2.727,4.651c-3.801,0.115-3.111-2.754-3.123-4.98c-0.059-8.475-0.074-16.961,0.018-25.441
	c0.023-2.135-0.943-5.224,2.758-5.334c4.367-0.133,2.939,3.413,3.045,5.663C850.9,425.969,850.762,430.215,850.762,434.456z"/>
<path fill-rule="evenodd" clip-rule="evenodd" fill="#fff" d="M1049.461,534.601c-0.316,1.18-1.348,2.238-2.227,1.607
	c-1.285-0.919-0.555-2.283,0.484-3.262C1048.299,533.496,1048.883,534.052,1049.461,534.601z"/>
<path fill-rule="evenodd" clip-rule="evenodd" fill="#fff" d="M568.664,497.37c-0.234-0.035-0.472-0.074-0.707-0.074
	c-2.649-0.012-4.302-0.857-4.894-3.889c-1.127-5.761-5.504-8-10.854-8.504c-5.343-0.508-10.285,1.187-15.06,3.408
	c-1.347,0.623-2.506,1.527-2.496,3.141c0.032,5.2-3.417,5.594-7.486,6.195c-13.261,1.979-24.131,8.278-31.726,19.482
	c-6.125,9.037-9.402,19.286-9.157,30.115c0.415,18.379,10.23,28.426,24.908,31.857c1.381,0.322,2.78,0.814,4.168,0.803
	c4.688-0.034,6.553,1.326,5.161,6.636c-0.06,0.226-0.036,0.47-0.077,0.706c-0.463,2.679,0.52,3.991,3.385,3.91
	c3.786-0.109,7.577-0.029,11.368-0.029c0,0.006,0,0.012,0,0.018c2.843,0,5.686,0.018,8.527-0.006
	c5.951-0.04,6.146-0.012,7.122-5.749c0.611-3.594,2.178-4.917,5.888-5.497c23.128-3.603,38.294-19.557,41.481-43.142
	C601.231,514.47,590.933,500.743,568.664,497.37z M525.707,551.972c-0.198,1.377-0.646,2.713-0.986,4.096
	c-5.989-2.366-7.42-5.066-7.208-13.26c0.285-11.071,4.696-18.799,12.576-21.588C528.621,531.581,527.187,541.779,525.707,551.972z
	 M567.713,535.758c-0.473,10.077-4.576,16.942-12.445,20.193c1.696-11.956,3.327-23.45,5.022-35.396
	C568.062,523.8,567.994,529.805,567.713,535.758z"/>
<path fill-rule="evenodd" clip-rule="evenodd" fill="#fff" d="M765.039,582.793c-0.359-1.128-0.822-2.232-1.055-3.386
	c-3.469-17.394-6.891-34.799-10.359-52.193c-1.852-9.279-3.488-18.61-5.752-27.79c-2.602-10.575-10.312-15.631-21.176-14.485
	c-2.107,0.221-4.178,0.805-6.266,1.221c-4.246,0.838-6.861,3.234-8.77,7.289c-14.529,30.809-29.305,61.51-43.945,92.272
	c-0.746,1.567-2.391,3.064-1.059,5.425c7.674,0,15.484-0.098,23.281,0.053c2.789,0.051,4.381-0.937,5.352-3.518
	c1.592-4.205,3.441-8.308,5.072-12.494c0.869-2.221,2.158-3.454,4.715-3.425c7.574,0.087,15.15,0.11,22.725-0.012
	c3.053-0.047,4.158,1.428,4.5,4.199c0.434,3.522,1.26,6.994,1.625,10.517c0.359,3.46,1.834,4.842,5.479,4.755
	c8.514-0.202,17.035,0.006,25.557,0.052C768.607,588.473,765.143,585.622,765.039,582.793z M710.912,548.884
	c4.199-11.066,7.928-20.896,11.666-30.723c0.439,0.029,0.881,0.058,1.32,0.081c1.301,9.851,2.602,19.702,3.934,29.755
	C722.463,549.495,717.326,548.386,710.912,548.884z"/>
<path fill-rule="evenodd" clip-rule="evenodd" fill="#fff" d="M660.318,485.518c-8.041-1.146-16.055-0.429-23.318-0.579
	c-6.908,0.359-13.045,0.66-19.189,1.007c-6.754,0.382-6.697,0.405-7.646,7.23c-2.707,19.433-5.479,38.851-8.192,58.28
	c-1.635,11.709-3.139,23.43-4.835,35.125c-0.498,3.432,0.631,4.697,4.113,4.611c6.856-0.168,13.728-0.215,20.577,0.022
	c3.721,0.128,5.506-0.919,5.945-4.917c0.979-8.919,2.588-17.775,3.592-26.695c0.436-3.812,1.807-5.403,5.787-5.121
	c5.68,0.406,11.361-0.19,16.887-1.636c13.217-3.46,24.062-10.331,29.527-23.294C690.867,512.226,689.166,489.624,660.318,485.518z
	 M647.447,530.116c-2.146,1.094-4.449,1.551-6.611,1.441c-5.041,0.035-5.324-0.213-4.732-4.645
	c0.652-4.912,1.555-9.795,2.076-14.723c0.295-2.816,1.289-4.153,4.305-4.344c6.311-0.388,10.393,1.469,11.65,5.75
	C655.916,519.699,652.82,527.392,647.447,530.116z"/>
<path fill-rule="evenodd" clip-rule="evenodd" fill="#fff" d="M551.679,421.417c-3.32-6.283-9.552-7.705-15.694-4.298
	c-1.159,0.642-1.985,2.181-3.923,1.209c0-3.899,0.02-7.913-0.007-11.935c-0.014-2.123,0.289-4.482-3.082-4.281
	c-2.811,0.174-2.614,2.192-2.624,4.079c-0.023,4.339-0.007,8.683-0.007,13.56c-11.238-7.451-19.164-4.385-22.345,7.826
	c-1.215,4.663-1.063,9.33,0.46,13.981c3.532,10.795,10.14,13.282,20.02,7.45c0.357-0.213,0.884-0.137,1.875-0.265
	c0,4.495,0.026,8.931-0.01,13.368c-0.018,2.227,0.693,3.668,3.226,3.592c2.402-0.068,2.47-1.764,2.48-3.471
	c0.028-4.441,0.009-8.892,0.009-13.219c2.142-0.595,2.902,0.973,4.086,1.609c5.926,3.152,12.046,1.816,15.298-4.044
	C555.997,438.366,556.05,429.694,551.679,421.417z M526.323,434.345c0,1.887,0.052,3.771-0.012,5.652
	c-0.133,3.969-2.939,5.697-6.131,6.884c-3.361,1.244-5.981-0.306-8.064-2.817c-4.017-4.848-3.881-15.734,0.111-20.65
	c2.199-2.707,5.045-3.553,8.206-2.518c3.014,0.984,5.487,2.904,5.81,6.393c0.216,2.332,0.041,4.703,0.041,7.057
	C526.295,434.345,526.31,434.345,526.323,434.345z M546.839,442.872c-1.579,3.344-5.169,4.957-8.175,4.24
	c-3.416-0.814-6.266-3.922-6.56-7.434c-0.176-2.111-0.033-4.252-0.029-6.375c0.005-1.891-0.114-3.789,0.031-5.668
	c0.292-3.818,2.793-5.878,6.175-6.867c3.424-1,6.563,0.342,8.359,3.703C549.867,430.51,549.718,436.774,546.839,442.872z"/>
<path fill-rule="evenodd" clip-rule="evenodd" fill="#fff" d="M899.1,422.151c-2.344-0.26-4.727-0.15-7.094-0.18
	c-9.607-0.121-8.729,1.232-8.734-8.712c-0.006-5.634,0.094-5.668,6.062-5.731c5.211-0.053,10.424-0.023,15.631-0.023
	c2.012,0,3.893-0.15,3.834-2.904c-0.062-2.944-2.279-2.517-4.072-2.528c-7.814-0.046-15.637,0.134-23.443-0.086
	c-3.656-0.099-4.363,1.573-4.299,4.72c0.145,6.623,0.047,13.259,0.047,19.895c0,0,0.006,0,0.01,0c0,7.104-0.021,14.206,0.012,21.316
	c0.012,1.625-0.121,3.73,2.209,3.73c7.551,0.006,15.197,1.25,22.609-0.751c6.969-1.888,10.764-7.868,10.238-15.116
	C911.559,428.282,906.578,422.983,899.1,422.151z M897.848,445.938c-2.289,0.365-4.684,0.063-7.033,0.063c0,0.063,0,0.127,0,0.19
	c-0.467,0-0.938,0.006-1.41,0c-6.092-0.08-6.104-0.08-6.172-6.234c-0.023-2.119-0.029-4.229,0.006-6.347
	c0.08-5.965,0.092-5.981,6.373-6.034c2.586-0.018,5.195-0.139,7.746,0.15c5.084,0.584,8.203,4.043,8.33,8.863
	C905.816,441.327,902.773,445.151,897.848,445.938z"/>
<path fill-rule="evenodd" clip-rule="evenodd" fill="#fff" d="M1042.098,418.524c-1.348,0.746-2.344,1.707-2.848-0.723
	c-0.492-2.361-2.43-1.933-3.984-1.574c-1.816,0.41-1.592,2.106-1.596,3.477c-0.023,14.195-0.012,28.392-0.012,42.587
	c0,1.782,0.277,3.315,2.568,3.442c2.637,0.145,3.164-1.424,3.152-3.586c-0.029-4.489-0.012-8.973-0.012-14.658
	c2.152,1.359,3.082,2.024,4.084,2.567c10.188,5.565,21.09,0.347,23.1-11.112c0.367-2.082,0.461-4.246,0.391-6.363
	C1066.475,417.726,1055.125,411.306,1042.098,418.524z M1059.521,441.102c-3.066,6.583-12.113,9.054-18.975,1.863
	c-2.371-2.487-0.723-5.912-1.174-8.504c0-1.313-0.006-2.256,0-3.204c0.051-6.49,2.26-9.436,7.891-10.528
	c6.016-1.163,10.932,1.48,12.852,7.26C1061.562,432.362,1061.516,436.815,1059.521,441.102z"/>
<path fill-rule="evenodd" clip-rule="evenodd" fill="#fff" d="M595.089,425.923c-3.388-9.822-13.185-13.507-22.296-8.445
	c-1.832,1.013-3.088,3.332-4.95-0.625c-1.141-2.436-4.836-0.683-4.86,2.614c-0.11,14.156-0.06,28.316-0.051,42.478
	c0.001,1.955,0.054,3.899,2.881,3.76c2.628-0.133,2.878-1.908,2.871-3.939c-0.018-4.39-0.006-8.775-0.006-13.05
	c2.341-0.353,3.178,1.063,4.387,1.683c9.129,4.652,19.158,0.649,22.191-9.14C596.817,436.22,596.83,430.974,595.089,425.923z
	 M588.155,441.97c-4.572,7.404-12.953,6.543-18.135,1.295c-2.639-2.678-0.826-6.34-1.34-9.104c0-1.354-0.008-2.297,0.002-3.24
	c0.068-6.131,2.149-8.955,7.473-10.146c5.512-1.232,10.074,0.695,12.472,5.605C591.167,431.592,591.204,437.029,588.155,441.97z"/>
<path fill-rule="evenodd" clip-rule="evenodd" fill="#fff" d="M1024.703,426.78c-0.123-3.934-1.666-7.359-5.275-9.529
	c-5.711-3.436-15.77-2.527-20.77,1.91c-1.094,0.966-2.139,1.851-1.104,3.54c1.018,1.665,2.117,1.417,3.518,0.532
	c1.393-0.88,2.828-1.822,4.373-2.291c8.846-2.66,13.676,1.221,12.975,11.488c-4.5-3.094-8.779-4.143-13.381-3.523
	c-6.316,0.852-10.4,5.352-10.48,11.473c-0.08,5.871,4.211,10.84,10.273,11.73c3.336,0.492,6.605,0.214,9.701-1.33
	c1.781-0.892,3.035-2.129,5.361,0.283c2.246,2.325,4.779,0.666,4.861-2.968C1024.912,440.993,1024.918,433.877,1024.703,426.78z
	 M1009.164,448.113c-5.189-0.11-8.473-3.037-8.484-7.555c-0.012-4.709,3.754-7.892,9.117-7.706c5.719,0.203,9.215,3.078,9.232,7.613
	C1019.051,445.244,1015.186,448.246,1009.164,448.113z"/>
<path fill-rule="evenodd" clip-rule="evenodd" fill="#fff" d="M927.664,435.988c6.611-0.093,13.225-0.081,19.834-0.012
	c2.656,0.029,3.832-0.925,3.734-3.736c-0.256-7.283-4.988-14.034-11.732-16.186c-6.994-2.233-13.219-0.573-18.09,4.737
	c-5.674,6.195-6.346,13.675-3.273,21.178c3.014,7.358,9.197,10.4,16.988,10.36c2.883,0,5.734-0.318,8.244-1.735
	c2.025-1.139,5.842-1.706,4.32-5.045c-1.648-3.62-3.963-0.156-5.779,0.597c-7.098,2.921-14.131,1.249-17.543-4.401
	C921.799,437.51,922.58,436.058,927.664,435.988z M923.002,428.671c0.797-4.461,5.818-8.544,10.725-8.712
	c5.314-0.186,10.436,3.696,11.477,8.631c0.475,2.216-0.533,3.042-2.58,3.048c-2.824,0-5.641,0-8.463,0c0-0.017,0-0.028,0-0.046
	c-3.055,0-6.109,0.058-9.164-0.018C923.135,431.528,922.707,430.308,923.002,428.671z"/>
<path fill-rule="evenodd" clip-rule="evenodd" fill="#fff" d="M631.289,427.235c-0.209-6.691-3.598-10.498-10.135-11.754
	c-4.551-0.873-9.012-0.318-13.084,1.932c-1.898,1.049-5.257,1.857-4.009,4.768c1.591,3.707,3.87,0.538,5.72-0.359
	c1.529-0.746,3.084-1.15,4.75-1.324c8.25-0.856,11.438,2.551,10.441,11.182c-6.676-2.678-9.25-3.239-12.928-2.822
	c-6.387,0.723-10.515,5.021-10.7,11.146c-0.199,6.479,3.913,11.315,10.456,12.165c3.871,0.498,7.545-0.11,10.898-2.25
	c1.123-0.724,2.262-1.833,3.096,0.521c0.762,2.141,2.725,1.544,4.229,1.053c1.758-0.578,1.295-2.331,1.307-3.656
	C631.381,440.97,631.504,434.097,631.289,427.235z M615.625,448.119c-5.045-0.174-8.371-3.159-8.412-7.561
	c-0.047-4.587,3.768-7.908,8.967-7.804c5.812,0.115,9.512,3.273,9.389,8.029C625.453,445.423,621.525,448.321,615.625,448.119z"/>
<path fill-rule="evenodd" clip-rule="evenodd" fill="#fff" d="M830.26,429.614c-1.602-0.307-3.285-0.215-4.934-0.277
	c-3.061-0.115-6.721,0.809-9.035-0.557c-3.164-1.868-1.02-6.056-1.377-9.209c-0.25-2.164-0.643-3.679-3.229-3.534
	c-2.25,0.127-2.568,1.637-2.568,3.413c0,4.726,0,9.446,0,14.167c0.006,4.963,0.006,9.921,0,14.878c0,1.852,0.486,3.338,2.689,3.326
	c6.139-0.023,12.316,0.324,18.395-0.283c5.717-0.566,8.996-5.096,9.008-10.898C839.221,434.819,835.941,430.695,830.26,429.614z
	 M828.438,446.366c-1.838,0.272-3.748,0.053-5.627,0.053c0,0.046,0,0.092,0,0.145c-0.232,0-0.469,0.028-0.701-0.006
	c-2.25-0.301-5.258,1.127-6.59-1.105c-1.549-2.615-0.703-5.93-0.471-8.943c0.109-1.43,1.357-1.799,2.566-1.805
	c3.523-0.029,7.062-0.162,10.57,0.104c3.289,0.25,5.014,2.412,5.088,5.67C833.344,443.734,831.713,445.892,828.438,446.366z"/>
<path fill-rule="evenodd" clip-rule="evenodd" fill="#A9A8A6" d="M197.708,324.87c-11.259-17.134-19.849-34.439-25.551-53.133
	c-4.97-16.29-7.601-32.933-6.826-49.968c1.163-25.565,10.327-48.272,24.969-69.047c16.24-23.042,37.599-40.031,61.989-53.615
	c9.401-5.235,19.066-10.026,27.998-16.081c12.441-8.434,15.562-16.531,6.551-33.198c-4.923-9.102-13.685-12.991-23.972-14.772
	c5.125-3.283,10.393-5.519,15.753-7.501c17.956-6.645,36.504-10.14,55.623-11.615c22.107-1.704,43.159,1.569,63.147,10.974
	c25.702,12.093,44.799,30.945,56.344,57.056c8.881,20.084,11.894,41.259,10.632,63.057c-1.045,18.062-4.91,35.324-15.518,50.516
	c-8.194,11.737-19.09,20.258-31.531,26.988c-16.03,8.668-33.454,13.664-50.69,19.156c-11.264,3.593-22.576,7.104-33.137,12.545
	c-14.453,7.445-24.901,17.958-26.511,35.122c-0.064,0.697-0.254,1.382-0.529,2.832c-2.254-5.828-4.125-11.07-6.296-16.188
	c-4.741-11.171-11.516-20.46-23.825-24.166c-8.44-2.539-17.142-2.42-25.708-1.299c-23.899,3.136-36.775,18.98-44.921,39.968
	C201.753,302.662,199.612,313.303,197.708,324.87z"/>
<path fill-rule="evenodd" clip-rule="evenodd" fill="#72C069" d="M118.875,570.432c4.122-16.73,8.198-33.468,12.376-50.183
	c7.929-31.715,15.918-63.418,23.881-95.127c1.31-5.221,1.304-5.227,6.5-4.416c1.165,0.182,2.327,0.387,3.489,0.584
	c1.416-1.057,2.962-0.541,4.443-0.296c21.182,3.515,42.399,6.804,63.576,10.347c1.729,0.289,3.56,0.381,4.72,2.021
	c10.322,1.654,20.643,3.309,30.964,4.963c1.39-1.055,2.929-0.659,4.433-0.419c19.925,3.152,39.841,6.375,59.733,9.735
	c2.863,0.483,5.956,0.171,8.467,2.111c9.557,2.172,19.282,3.359,28.937,4.951c28.421,4.701,56.857,9.309,85.291,13.938
	c10.954,1.786,21.917,3.521,32.868,5.322c1.229,0.202,3.159-0.274,2.794,2.126c-0.48,1.189-1.502,1.776-2.563,2.334
	c-3.455,1.819-7.023,3.419-10.363,5.464c-0.896,0.546-1.899,0.964-2.694,0.688c3.63-0.358,7.583-0.254,11.53-0.229
	c1.396,0.009,2.875-0.205,4.029,0.923c-1.041,1.218-2.431,0.572-3.629,0.575c-17.717,0.025-35.436,0.058-53.15-0.109
	c-2.92-0.025-3.813,0.997-4.236,3.696c-1.234,7.91-2.744,15.778-4.144,23.661c-1.084-1.295-2.25-1.264-3.704-0.504
	c-3.935,2.055-7.848,4.193-11.942,5.885c-2.304,0.951-2.312,3.355-3.897,4.645c-1.506-0.711-1.198-2.15-1.365-3.395
	c-2.073-15.238-9.509-26.935-24.516-31.4c-21.213-6.311-41.193-3.482-57.518,12.852c-10.607,10.611-14.716,24.264-16.293,38.853
	c-0.809,7.471-0.521,14.841,1.128,22.185c0.563,2.508,2.327,4.729,1.824,7.488c-4.897,3.693-10.639,5.871-15.942,8.836
	c-0.752,0.42-1.832,0.707-2.403-0.52c-0.007-2.096,1.567-3.379,2.554-4.955c5.628-9.004,6.572-18.329,1.835-27.987
	c-1.436-2.921-3.709-5.179-6.384-7.027c-2.228-1.536-2.097-3.246-0.287-4.978c2.048-1.959,4.255-3.711,6.028-5.988
	c4.03-5.18,5.757-11.139,6.069-17.504c0.472-9.701-5.411-17.713-15.261-21.138c-4.723-1.641-9.631-2.56-14.608-2.788
	c-11.953-0.547-23.888,0.332-35.823,0.787c-5.816,0.219-5.951,0.609-6.763,6.342c-4.268,30.116-8.483,60.24-12.698,90.361
	c-0.9,6.441-0.797,6.906,5.917,6.938c15.217,0.072,30.496,2.484,45.641-0.965c0.695-0.16,1.414-0.107,2.098,0.13
	c1.174,0.665,0.697,1.296-0.093,1.833c-1.079,0.732-2.308,1.196-3.472,1.773c-24.142,12.01-47.981,24.609-72.026,36.805
	c-17.083,8.668-34.088,17.49-51.122,26.258c-15.771,8.113-31.544,16.227-47.342,24.289c-1.403,0.715-2.747,1.996-4.586,1.246
	c2.954-12.172,5.864-24.355,8.873-36.516c4.177-16.871,8.496-33.703,12.584-50.595c0.709-2.934,1.868-4.015,4.97-3.886
	c6.268,0.263,12.561-0.068,18.831,0.15c2.628,0.094,3.761-0.872,4.607-3.225c1.644-4.563,3.691-8.98,5.393-13.524
	c0.682-1.821,1.587-2.571,3.606-2.542c8.174,0.107,16.349,0.115,24.521-0.004c2.184-0.031,3.164,0.541,3.447,2.838
	c0.567,4.576,1.548,9.104,2.142,13.678c0.272,2.089,1.107,2.771,3.191,2.748c8.647-0.096,17.296-0.081,25.943-0.012
	c2.051,0.018,2.908-0.144,2.388-2.713c-5.875-29.002-11.519-58.05-17.408-87.048c-2.568-12.648-11.302-18.24-24.08-15.903
	c-0.932,0.172-1.864,0.342-2.794,0.514c-4.833,0.885-7.91,3.311-10.145,8.098c-12.263,26.289-24.953,52.375-37.496,78.533
	C118.325,572.12,118.693,571.224,118.875,570.432z"/>
<path fill-rule="evenodd" clip-rule="evenodd" fill="#5EB052" d="M406.784,523.111c-0.368-2.923,1.138-4.42,3.702-5.564
	c4.309-1.92,8.531-4.061,12.667-6.334c2.492-1.368,3.077-0.472,2.974,1.882c-2.042,12.371-3.533,24.861-7.249,36.887
	c-2.674,8.654-6.825,16.225-16.271,19.199c-1.263,0.399-1.486,1.326-1.643,2.441c-1.064,7.623-2.329,15.218-3.204,22.863
	c-1.145,9.972,6.848,15.949,16.658,12.893c7.151-2.23,10.775-6.002,11.375-13.137c0.244-2.902,1.576-3.803,4.596-3.77
	c15.399,0.18,30.8,0.119,46.199,0.047c2.359-0.012,3.605-0.026,3.051,3.146c-1.043,5.971,0.839,9.41,6.722,13.561
	c-132.312,26.201-264.183,52.314-396.591,78.533c0.567-1.74,0.988-3.023,1.407-4.309c24.922-12.787,49.854-25.553,74.765-38.363
	c9.146-4.701,18.383-9.215,27.481-14.018c15.579-8.225,31.392-15.996,47.085-24.004c9.971-5.09,19.902-10.264,29.852-15.396
	c0.093-1.396,1.293-1.61,2.231-1.859c6.096-1.643,11.426-4.703,16.362-8.551c0.73-0.567,1.538-1.094,2.559-0.967
	c3.893-0.477,6.615-3.406,10.066-4.815c2.71-1.107,5.091-2.944,7.995-3.63c1.351-0.055,1.787,1.041,2.261,1.938
	c4.794,9.068,12.541,14.439,22.192,16.912c21,5.381,40.04,1.742,55.579-14.06c9.737-9.901,13.99-22.558,15.602-36.164
	c0.488-4.106,0.904-8.22,0.762-12.37C405.931,525.05,405.947,523.954,406.784,523.111z"/>
<path fill-rule="evenodd" clip-rule="evenodd" fill="#5BAA4D" d="M341.458,449.753c-8.352-1.244-16.712-2.43-25.054-3.748
	c-14.361-2.273-28.71-4.631-43.065-6.951c-1.503-0.242-3.009-0.484-4.515-0.729c0.054-1.418,0.153-2.834,0.153-4.254
	c0.01-30.321,0.104-60.642-0.059-90.962c-0.042-7.844,3.277-13.409,9.75-17.279c10.601-6.34,22.242-7.624,34.263-6.507
	c6.768,0.626,13.277,2.296,19.109,6.01c6.264,3.986,9.512,9.483,9.489,17.111C341.419,378.213,341.467,413.983,341.458,449.753z"/>
<path fill-rule="evenodd" clip-rule="evenodd" fill="#469747" d="M60.731,489.55c-2.532,1.243-5.044,2.531-7.605,3.713
	c-1.525,0.706-2.071,1.588-1.507,3.32c1.68,5.154,3.324,10.326,4.748,15.553c0.602,2.212,1.418,2.319,3.114,1.174
	c0.759-0.512,1.725-0.713,2.599-1.059c3.188-0.508,2.94,2.054,3.164,3.824c0.687,5.434,0.713,10.89-0.171,16.32
	c-0.112,3.795-0.762,7.516-1.562,11.215c-0.587,1.801-0.714,3.26,1.915,3.223c1.547-0.023,2.386,1.063,2.503,2.463
	c0.458,5.49,1.048,10.969,1.297,16.471c0.09,2.004-0.978,2.779-2.943,2.051c-6.751-0.252-12.631-2.758-17.692-7.129
	c-1.331-1.149-1.886-1.17-2.918,0.313c-3.363,4.848-6.795,9.655-10.417,14.312c-1.095,1.408-0.26,1.707,0.517,2.441
	c7.786,7.346,16.934,11.896,27.538,13.492c1.044,0.159,2.072,0.42,3.109,0.631c0.486,0.435,1.094,0.474,1.672,0.389
	c2.712-0.414,3.458,1.072,3.681,3.443c1.086,11.545,1.951,23.104,2.893,34.662c1.028,12.617,2.018,25.238,3.216,37.842
	c0.303,3.18,0.384,6.377,0.71,9.561c0.153,1.496,0.304,3.582-2.421,3.096c-9.658-8.355-19.336-16.691-28.971-25.078
	c-12.586-10.953-25.114-21.977-37.738-32.893c-1.562-1.348-1.954-2.459-1.279-4.473c16.478-49.13,32.879-98.285,49.33-147.424
	c0.343-1.029,0.236-2.481,1.786-2.794c2.052,0.358,2.109,2.179,2.188,3.552c0.261,4.478,1.053,8.917,0.991,13.416
	C62.452,486.845,62.409,488.528,60.731,489.55z"/>
<path fill-rule="evenodd" clip-rule="evenodd" fill="#5BAA4D" d="M237.861,433.362c-7.872-1.396-15.731-2.867-23.618-4.17
	c-8.009-1.326-16.049-2.447-24.064-3.735c-8.359-1.341-16.705-2.772-25.057-4.167c0.027-17.99,0.171-35.981,0.032-53.97
	c-0.065-8.445,3.435-14.896,10.663-18.669c17.302-9.036,34.814-8.643,51.858,0.761c6.908,3.812,10.153,10.118,10.085,18.268
	c-0.167,20.476-0.058,40.952-0.049,61.431C237.712,430.527,237.809,431.944,237.861,433.362z"/>
<path fill-rule="evenodd" clip-rule="evenodd" fill="#5BAA4D" d="M60.731,489.55c1.146-1.973,0.972-4.218,0.608-6.211
	c-0.919-5.018,0.331-10.322-2.041-15.127c17.289-9.013,34.569-18.037,51.867-27.026c12.581-6.542,25.187-13.038,38.379-19.864
	c-10.556,42.217-20.967,83.861-31.562,126.239c-3.476-7.065-8.878-10.71-15.674-12.312c0.047-1.086,0.786-0.987,1.258-1.158
	c13.94-5.034,21.007-20.957,15.211-34.571c-3.424-8.046-10.228-11.882-18.31-13.72c-13.005-2.952-25.65-1.084-38.056,3.283
	C61.866,489.276,61.292,489.396,60.731,489.55z"/>
<path fill-rule="evenodd" clip-rule="evenodd" fill="#5BAA4D" d="M76.17,680.87c2.133-0.373,1.671-2.031,1.501-3.344
	c-1.014-7.916-1.419-15.879-2.062-23.824c-0.812-10.049-1.849-20.074-2.722-30.119c-0.568-6.545-1.014-13.102-1.514-19.653
	c-0.242-3.157-0.571-6.313-0.702-9.474c-0.129-3.143-3.36-0.872-4.254-2.578c7.34,0.021,14.667,0.006,21.892-1.622
	c7.696-1.733,14.84-4.631,21.552-10.239c-8.992,35.977-17.788,71.152-26.712,106.85C80.458,685.026,78.233,683.054,76.17,680.87z"/>
<path fill-rule="evenodd" clip-rule="evenodd" fill="#5FB152" d="M437.181,567.594c9.354-12.401,11.225-26.454,13.639-40.33
	c0.933-5.366,2.014-10.712,2.816-16.097c0.295-1.987,1.112-2.494,2.994-2.463c6.04,0.102,12.084,0.146,18.12-0.014
	c2.399-0.061,2.71,0.784,2.399,2.907c-2.619,17.919-5.16,35.851-7.676,53.786c-0.189,1.348-0.458,2.23-2.059,2.225
	C457.612,567.579,447.812,567.594,437.181,567.594z"/>
<path fill-rule="evenodd" clip-rule="evenodd" fill="#5BAA4D" d="M66.282,567.817c1.472-0.084,2.405-0.47,2.122-2.341
	c-0.75-4.955-1.235-9.94-1.299-14.959c-0.019-1.556,0.086-3.191-2.117-3.353c-2.858-0.211-2.484-1.748-1.477-3.555
	c-0.212,1.926,0.163,2.997,2.592,2.861c4.01-0.227,8.048-0.128,12.068,0.021c5.248,0.198,8.277,2.229,9.443,6.047
	c1.33,4.357-0.421,9.59-4.354,12.216C78.083,568.213,72.311,568.839,66.282,567.817z"/>
<path fill-rule="evenodd" clip-rule="evenodd" fill="#5BAA4D" d="M65.073,532.396c-0.271-5.41-0.543-10.822-0.813-16.234
	c-0.084-1.662-0.013-3.41-2.182-3.91c5.718-3.154,11.9-4.541,18.346-4.046c6.745,0.515,9.628,7.175,5.712,12.753
	c-2.574,3.667-6.447,4.971-10.675,5.486c-0.816,0.098-1.649,0.061-2.476,0.066C66.697,526.557,66.697,526.557,65.073,532.396z"/>
<path fill-rule="evenodd" clip-rule="evenodd" fill="#73C06B" d="M169.666,516.292c0.894,6.854,1.787,13.707,2.681,20.561
	c0.381,2.923,0.673,5.861,1.178,8.762c0.327,1.874,0.145,2.893-2.151,2.817c-4.01-0.136-8.027-0.087-12.037-0.014
	c-1.86,0.031-2.616-0.302-1.796-2.401c3.852-9.872,7.585-19.789,11.362-29.693C169.158,516.312,169.412,516.304,169.666,516.292z"/>
<path fill-rule="evenodd" clip-rule="evenodd" fill="#62B255" d="M491.287,485.271c-5.367,0-10.732,0-16.868,0
	c5.793-3.882,11.47-6.331,16.929-9.181C491.327,479.151,491.307,482.212,491.287,485.271z"/>
<path fill-rule="evenodd" clip-rule="evenodd" fill="#95CD8C" d="M118.875,570.432c0.175,0.598,0.177,1.292,0.875,1.608
	c-0.479,1.182-0.956,2.363-1.435,3.545c-0.275,0.229-0.549,0.237-0.817-0.018C117.707,573.789,118.021,572.036,118.875,570.432z"/>
<path fill-rule="evenodd" clip-rule="evenodd" fill="#BCDEB3" d="M117.498,575.567c0.272,0.006,0.546,0.012,0.817,0.018
	c-0.27,0.752-0.539,1.506-0.84,2.344C116.447,576.983,116.852,576.268,117.498,575.567z"/>
<path fill-rule="evenodd" clip-rule="evenodd" fill="#73C06A" d="M256.485,548.392c7.615,0,10.742,2.166,11.215,7.771
	c0.538,6.383-3.415,11.248-10.051,12.369c-9.565,1.613-10.333,0.878-8.836-8.419c0.319-1.981,0.605-3.965,0.896-5.949
	C250.553,548.392,250.55,548.392,256.485,548.392z"/>
<path fill-rule="evenodd" clip-rule="evenodd" fill="#73C06B" d="M257.142,525.265c-2.687,0.574-3.542-0.492-2.933-3.428
	c0.814-3.916,1.242-7.911,1.85-11.871c0.156-1.018,0.112-2.056,1.5-2.473c4.352-1.311,10.538,0.783,11.743,4.088
	c1.776,4.869-1.066,10.906-6.027,12.775C261.374,525.071,259.395,525.329,257.142,525.265z"/>
<path fill-rule="evenodd" clip-rule="evenodd" fill="#73C06A" d="M338.549,556.524c-4.301-13.723,1.414-36.25,11.325-44.646
	c8.713-7.381,20.829-4.023,24.071,6.857c2.091,7.018,1.716,14.199,0.268,21.329c-0.661-1.241-0.994-2.239-3.008-1.21
	c-9.686,4.938-19.346,9.928-29.008,14.91C340.791,554.487,339.781,555.626,338.549,556.524z"/>
<path fill-rule="evenodd" clip-rule="evenodd" fill="#5FB152" d="M338.549,556.524c0.049-1.26,0.497-2.164,1.738-2.789
	c10.951-5.521,21.871-11.102,32.807-16.656c0.191-0.098,0.456-0.052,0.877-0.09c0.081,1.031,0.16,2.054,0.241,3.075
	c-0.979,7.979-3.388,15.431-8.528,21.753c-6.074,7.469-16.482,8.632-22.847,2.648C340.532,562.304,339.114,559.638,338.549,556.524z
	"/>
<g>
	<defs>
		<path id="SVGID_1_" d="M197.688,322.866c0,0-58.882-78.832-18.138-154.729c40.74-75.898,112.126-77.072,112.126-103.7
			c-1.915-29.959-29.681-31.275-29.681-31.275s31.661-19.823,85.744-19.753c54.025,0.068,124.72,43.012,115.592,138.632
			C452.694,263.436,308.2,220.001,306.517,293.236c-9.397-27.128-16.385-46.726-54.699-42.897
			C230.083,252.515,205.304,267.826,197.688,322.866L197.688,322.866z"/>
	</defs>
	<clipPath id="SVGID_2_">
		<use xlink:href="#SVGID_1_"  overflow="visible"/>
	</clipPath>
	<path clip-path="url(#SVGID_2_)" fill-rule="evenodd" clip-rule="evenodd" fill="#ACACAC" d="M160.015,170.318
		c0-52.481,0.035-104.96-0.082-157.441c-0.007-3.522,0.765-4.532,4.441-4.528c101.406,0.112,202.813,0.109,304.221,0.007
		c3.509-0.003,4.249,0.994,4.246,4.353c-0.091,105.197-0.091,210.396,0.001,315.593c0.003,3.376-0.764,4.344-4.259,4.341
		c-101.406-0.098-202.813-0.103-304.22,0.012c-3.707,0.003-4.436-1.044-4.428-4.541
		C160.049,275.515,160.015,222.917,160.015,170.318z"/>
</g>
<g>
	<defs>
		<path id="SVGID_3_" d="M193.381,326.547c0,0,0.375-176.9,192.166-182.382c77.728-2.22,77.143-32.351,77.143-32.351l115.142,203.84
			l-92.359,24.926l-161.421-28.062L193.381,326.547L193.381,326.547z"/>
	</defs>
	<defs>
		<path id="SVGID_4_" d="M197.688,322.866c0,0-58.882-78.832-18.138-154.729c40.74-75.898,112.126-77.072,112.126-103.7
			c-1.915-29.959-29.681-31.275-29.681-31.275s31.661-19.823,85.744-19.753c54.025,0.068,124.72,43.012,115.592,138.632
			C452.694,263.436,308.2,220.001,306.517,293.236c-9.397-27.128-16.385-46.726-54.699-42.897
			C230.083,252.515,205.304,267.826,197.688,322.866L197.688,322.866z"/>
	</defs>
	<clipPath id="SVGID_5_">
		<use xlink:href="#SVGID_3_"  overflow="visible"/>
	</clipPath>
	<clipPath id="SVGID_6_" clip-path="url(#SVGID_5_)">
		<use xlink:href="#SVGID_4_"  overflow="visible"/>
	</clipPath>
	<path clip-path="url(#SVGID_6_)" fill-rule="evenodd" clip-rule="evenodd" fill="#8E8D8D" d="M330.784,105.109
		c45.842,0,91.685,0.037,137.528-0.072c3.39-0.009,4.562,0.548,4.556,4.343c-0.136,72.97-0.136,145.94,0,218.908
		c0.005,3.789-1.157,4.35-4.553,4.344c-91.802-0.086-183.608-0.086-275.413,0c-3.389,0.006-4.562-0.546-4.556-4.341
		c0.136-72.968,0.136-145.938,0.001-218.907c-0.007-3.787,1.155-4.356,4.553-4.349C238.861,105.146,284.823,105.109,330.784,105.109
		z"/>
</g>
</svg>
