<?xml version="1.0" encoding="utf-8"?>
<!-- Generator: Adobe Illustrator 16.0.0, SVG Export Plug-In . SVG Version: 6.00 Build 0)  -->
<!DOCTYPE svg PUBLIC "-//W3C//DTD SVG 1.1//EN" "http://www.w3.org/Graphics/SVG/1.1/DTD/svg11.dtd" [
	<!ENTITY ns_flows "http://ns.adobe.com/Flows/1.0/">
	<!ENTITY ns_extend "http://ns.adobe.com/Extensibility/1.0/">
	<!ENTITY ns_ai "http://ns.adobe.com/AdobeIllustrator/10.0/">
	<!ENTITY ns_graphs "http://ns.adobe.com/Graphs/1.0/">
]>
<svg version="1.1" id="Layer_1" xmlns:x="&ns_extend;" xmlns:i="&ns_ai;" xmlns:graph="&ns_graphs;"
	 xmlns="http://www.w3.org/2000/svg" xmlns:xlink="http://www.w3.org/1999/xlink" xmlns:a="http://ns.adobe.com/AdobeSVGViewerExtensions/3.0/"
	 x="0px" y="0px" width="200px" height="200px" viewBox="0 0 200 200" enable-background="new 0 0 200 200" xml:space="preserve">
<g>
	<path fill="#A9A8A6" d="M82.854,92.25c-3.351-5.1-5.908-10.252-7.605-15.815c-1.479-4.85-2.262-9.803-2.032-14.874
		c0.346-7.608,3.075-14.368,7.433-20.552C85.483,34.15,91.84,29.094,99.101,25.05c2.799-1.558,5.675-2.984,8.334-4.787
		c3.703-2.51,4.632-4.921,1.95-9.882c-1.466-2.709-4.073-3.867-7.136-4.396c1.525-0.979,3.094-1.643,4.688-2.234
		c5.346-1.978,10.866-3.018,16.557-3.456c6.581-0.507,12.847,0.466,18.796,3.265c7.651,3.6,13.334,9.212,16.772,16.983
		c2.643,5.979,3.539,12.282,3.164,18.77c-0.312,5.377-1.463,10.514-4.619,15.037c-2.438,3.494-5.683,6.03-9.385,8.034
		c-4.773,2.58-9.959,4.066-15.088,5.702c-3.354,1.069-6.722,2.115-9.864,3.734c-4.303,2.215-7.412,5.345-7.892,10.454
		c-0.019,0.207-0.076,0.411-0.157,0.842c-0.671-1.733-1.228-3.294-1.875-4.817c-1.41-3.325-3.427-6.09-7.091-7.193
		c-2.512-0.757-5.103-0.72-7.652-0.387c-7.114,0.933-10.946,5.65-13.371,11.897C84.058,85.64,83.421,88.807,82.854,92.25z"/>
	<path fill="#72C069" d="M115.354,156.293"/>
	<path fill="#72C069" d="M57.195,173.697c1.227-4.98,4.634-18.316,5.878-23.292c2.36-9.44,4.738-18.877,7.108-28.315
		c0.39-1.554,0.388-1.555,1.935-1.314c0.347,0.054,0.693,0.115,1.038,0.175c0.422-0.315,0.882-0.162,1.323-0.089
		c6.305,1.046,12.621,2.026,18.924,3.081c0.514,0.085,1.059,0.112,1.404,0.602c3.072,0.491,6.145,0.983,9.217,1.477
		c0.414-0.313,0.872-0.196,1.319-0.125c5.931,0.938,11.858,1.897,17.78,2.897c0.853,0.144,1.772,0.051,2.52,0.629
		c2.845,0.646,5.74,0.999,8.613,1.473c8.461,1.399,16.925,2.771,25.388,4.15c3.26,0.53,6.523,1.047,9.784,1.584
		c0.365,0.059,0.938-0.082,0.83,0.632c-0.143,0.354-61.865,42.29-66.231,34.651"/>
	<path fill="#72C069" d="M77.628,170.52"/>
	<path fill="#72C069" d="M104.29,171.488c-0.321,0.218-0.688,0.356-1.033,0.527c-7.187,3.575-14.282,7.325-21.439,10.956
		c-5.084,2.579-10.146,5.206-15.216,7.815c-4.695,2.414-9.39,4.83-14.092,7.229c-0.417,0.213-0.818,0.595-1.366,0.371
		c0.879-3.623,1.746-7.25,2.642-10.869c1.243-5.022,2.529-10.033,3.746-15.06c0.211-0.874,0.556-1.195,1.479-1.157"/>
	<path fill="#5EB052" d="M116.151,165.467"/>
	<path fill="#5EB052" d="M169.692,136.744c0.702-0.003,1.073-0.007,0.908,0.937c-0.312,1.777-3.578,37.675-1.828,38.912
		c-39.383,7.799-78.634,15.57-118.046,23.375c0.168-0.518,0.294-0.9,0.419-1.283c7.418-3.806,14.839-7.605,22.254-11.418
		c2.722-1.399,5.472-2.743,8.18-4.173c4.637-2.448,9.344-4.762,14.015-7.146"/>
	<path fill="#5BAA4D" d="M125.642,129.422c-2.486-0.371-4.974-0.723-7.457-1.116c-4.274-0.676-8.546-1.379-12.818-2.068
		c-0.447-0.071-0.896-0.145-1.344-0.217c0.016-0.422,0.046-0.844,0.046-1.268c0.003-9.023,0.03-18.049-0.018-27.074
		c-0.013-2.335,0.975-3.991,2.901-5.143c3.155-1.888,6.621-2.269,10.199-1.938c2.015,0.187,3.951,0.684,5.688,1.79
		c1.864,1.187,2.831,2.822,2.824,5.093C125.63,108.128,125.645,118.774,125.642,129.422z"/>
	<path fill="#469747" d="M45.369,172.866c0.323,3.438,0.581,6.877,0.861,10.318c0.306,3.755,0.601,7.512,0.958,11.264
		c0.09,0.946,0.114,1.897,0.211,2.846c0.046,0.445,0.091,1.066-0.72,0.921c-2.875-2.486-5.756-4.968-8.624-7.465
		c-3.746-3.259-7.476-6.54-11.233-9.789c-0.465-0.402-0.582-0.732-0.38-1.332c4.905-14.624,9.787-29.256,14.683-43.882
		c0.103-0.307,0.071-0.737,0.532-0.832c0.611,0.107,0.628,0.648,0.651,1.058c0.078,1.332,0.314,2.654,0.295,3.993"/>
	<path fill="#469747" d="M44.225,159.052c0.136,1.633,0.312,3.264,0.386,4.902c0.027,0.597-0.291,0.827-0.875,0.61"/>
	<path fill="#469747" d="M43.426,149.163c0.205,1.617,0.212,3.241-0.051,4.857"/>
	<path fill="#5BAA4D" d="M94.806,124.544c-2.343-0.417-4.682-0.854-7.03-1.243c-2.384-0.395-4.777-0.728-7.163-1.11
		c-2.488-0.4-4.973-0.825-7.458-1.24c0.007-5.355,0.051-10.71,0.01-16.065c-0.02-2.513,1.022-4.434,3.173-5.556
		c5.15-2.69,10.362-2.573,15.436,0.226c2.056,1.135,3.022,3.012,3.001,5.438c-0.049,6.095-0.017,12.189-0.014,18.285
		C94.762,123.698,94.79,124.121,94.806,124.544z"/>
	<path fill="#5BAA4D" d="M45.388,178.361c-0.274-1.495-3.025-42.015-3.732-43.444c5.146-2.683,10.29-5.37,15.438-8.046
		c3.745-1.946,7.497-3.88,11.424-5.912c-3.142,12.565-16.603,66.418-19.757,79.031"/>
	<path fill="#5BAA4D" d="M50.291,171.243c2.291-0.516,4.417-1.378,6.415-3.047c-2.676,10.708-5.294,21.178-7.951,31.804
		c-0.801-0.549-1.463-1.136-2.078-1.785c0.635-0.111,0.497-0.604,0.447-0.994c-0.302-2.357-0.422-4.728-0.614-7.093
		c-0.242-2.99-0.551-5.974-0.811-8.965c-0.169-1.948-0.302-3.9-0.45-5.85c-0.073-0.94-0.17-1.879-0.209-2.821"/>
	<g>
		<g>
			<defs>
				<path id="SVGID_1_" d="M82.848,91.653c0,0-17.526-23.465-5.399-46.055c12.126-22.592,33.375-22.941,33.375-30.867
					c-0.57-8.918-8.835-9.31-8.835-9.31s9.425-5.899,25.523-5.879c16.08,0.021,37.123,12.802,34.405,41.265
					c-3.167,33.158-46.175,20.229-46.676,42.028c-2.797-8.075-4.877-13.909-16.282-12.769C92.491,70.712,85.115,75.27,82.848,91.653
					L82.848,91.653z"/>
			</defs>
			<clipPath id="SVGID_2_">
				<use xlink:href="#SVGID_1_"  overflow="visible"/>
			</clipPath>
			<path clip-path="url(#SVGID_2_)" fill="#ACACAC" d="M71.635,46.247c0-15.622,0.01-31.242-0.024-46.863
				c-0.002-1.049,0.227-1.35,1.321-1.348c30.184,0.034,60.37,0.032,90.554,0.003c1.044-0.001,1.265,0.295,1.263,1.295
				c-0.027,31.312-0.027,62.625,0,93.938c0.002,1.006-0.228,1.293-1.268,1.292c-30.184-0.029-60.368-0.031-90.552,0.004
				c-1.104,0-1.321-0.311-1.318-1.353C71.645,77.56,71.635,61.903,71.635,46.247z"/>
		</g>
	</g>
	<g>
		<g>
			<defs>
				<path id="SVGID_3_" d="M81.566,92.749c0,0,0.112-52.655,57.2-54.286c23.137-0.662,22.962-9.63,22.962-9.63L196,89.507
					l-27.491,7.419l-48.048-8.354L81.566,92.749L81.566,92.749z"/>
			</defs>
			<clipPath id="SVGID_4_">
				<use xlink:href="#SVGID_3_"  overflow="visible"/>
			</clipPath>
		</g>
		<g>
			<defs>
				<path id="SVGID_5_" d="M120.461,88.572l-38.895,4.176l0,0c0,0,0.112-52.655,57.2-54.286c23.137-0.662,22.962-9.63,22.962-9.63
					L174,61"/>
			</defs>
			<defs>
				<path id="SVGID_6_" d="M82.848,91.653c0,0-17.526-23.465-5.399-46.055c12.126-22.592,33.375-22.941,33.375-30.867
					c-0.57-8.918-8.835-9.31-8.835-9.31s9.425-5.899,25.523-5.879c16.08,0.021,37.123,12.802,34.405,41.265
					c-3.167,33.158-46.175,20.229-46.676,42.028c-2.797-8.075-4.877-13.909-16.282-12.769C92.491,70.712,85.115,75.27,82.848,91.653
					L82.848,91.653z"/>
			</defs>
			<clipPath id="SVGID_7_">
				<use xlink:href="#SVGID_5_"  overflow="visible"/>
			</clipPath>
			<clipPath id="SVGID_8_" clip-path="url(#SVGID_7_)">
				<use xlink:href="#SVGID_6_"  overflow="visible"/>
			</clipPath>
			<path clip-path="url(#SVGID_8_)" fill="#8E8D8D" d="M122.465,26.837c13.645,0,27.29,0.012,40.937-0.021
				c1.009-0.003,1.358,0.163,1.355,1.292c-0.04,21.719-0.04,43.44,0,65.158c0.003,1.128-0.344,1.295-1.355,1.293
				c-27.324-0.025-54.651-0.025-81.978,0c-1.009,0.001-1.358-0.163-1.356-1.292c0.04-21.719,0.04-43.438,0-65.158
				c-0.002-1.128,0.344-1.296,1.355-1.295C95.104,26.849,108.784,26.837,122.465,26.837z"/>
		</g>
	</g>
</g>
</svg>
