<?xml version="1.0" encoding="utf-8"?>
<!-- Generator: Adobe Illustrator 16.0.0, SVG Export Plug-In . SVG Version: 6.00 Build 0)  -->
<!DOCTYPE svg PUBLIC "-//W3C//DTD SVG 1.1//EN" "http://www.w3.org/Graphics/SVG/1.1/DTD/svg11.dtd" [
	<!ENTITY ns_flows "http://ns.adobe.com/Flows/1.0/">
	<!ENTITY ns_extend "http://ns.adobe.com/Extensibility/1.0/">
	<!ENTITY ns_ai "http://ns.adobe.com/AdobeIllustrator/10.0/">
	<!ENTITY ns_graphs "http://ns.adobe.com/Graphs/1.0/">
]>
<svg version="1.1" id="Layer_1" xmlns:x="&ns_extend;" xmlns:i="&ns_ai;" xmlns:graph="&ns_graphs;"
	 xmlns="http://www.w3.org/2000/svg" xmlns:xlink="http://www.w3.org/1999/xlink" xmlns:a="http://ns.adobe.com/AdobeSVGViewerExtensions/3.0/"
	 x="0px" y="0px" width="25px" height="19px" viewBox="0 0 25 19" enable-background="new 0 0 25 19" xml:space="preserve">
<path fill="#FFFFFF" d="M23.146,18.057c-0.125,0.021-0.252,0.044-0.379,0.045c-1.244,0.002-2.489-0.001-3.732,0.004
	c-0.173,0.003-0.319-0.08-0.447-0.208c-0.26-0.267-0.528-0.528-0.768-0.824c-0.623-0.775-1.229-1.569-1.847-2.35
	c-0.192-0.243-0.397-0.468-0.601-0.697c-0.104-0.125-0.236-0.152-0.372-0.149c-0.182,0.006-0.333,0.109-0.404,0.32
	c-0.066,0.191-0.12,0.399-0.137,0.603c-0.031,0.369-0.032,0.744-0.039,1.113c-0.005,0.414-0.016,0.83-0.108,1.233
	c-0.042,0.182-0.101,0.358-0.175,0.52c-0.128,0.278-0.331,0.428-0.588,0.434c-1.086,0.032-2.173,0.054-3.258-0.038
	c-0.201-0.017-0.386-0.101-0.565-0.206c-1.012-0.626-1.901-1.454-2.673-2.485c-0.94-1.254-1.794-2.599-2.648-3.942
	C3.256,9.615,2.262,7.675,1.369,5.654c-0.326-0.739-0.641-1.487-0.875-2.28C0.378,2.981,0.378,2.59,0.465,2.195
	c0.025-0.12,0.069-0.231,0.121-0.334C0.66,1.709,0.774,1.625,0.919,1.62c0.052-0.001,0.104-0.003,0.156-0.003
	c1.128,0,2.255,0.006,3.383-0.004c0.223-0.002,0.394,0.092,0.544,0.282C5.28,2.243,5.496,2.651,5.691,3.072
	C5.902,3.53,6.114,3.996,6.301,4.47c0.41,1.052,0.913,2.028,1.446,2.982c0.26,0.466,0.541,0.913,0.811,1.368
	c0.125,0.212,0.299,0.293,0.5,0.299c0.194,0.009,0.274-0.09,0.282-0.335C9.34,8.725,9.34,8.669,9.34,8.61
	c0-1.597,0-3.19-0.001-4.784c0-0.127,0-0.25-0.01-0.374C9.306,3.169,9.186,3,8.96,2.947c-0.102-0.025-0.206-0.037-0.31-0.054
	C8.333,2.84,8.202,2.674,8.169,2.273C8.12,1.67,8.35,1.203,8.801,0.988c0.194-0.09,0.395-0.11,0.601-0.109
	c1.005,0.002,2.011,0,3.016,0.001c0.204,0,0.408-0.013,0.61,0.01c0.212,0.025,0.426,0.061,0.633,0.136
	c0.44,0.158,0.693,0.535,0.745,1.112c0.012,0.137,0.015,0.275,0.015,0.414c0.001,0.969,0.001,1.937,0.001,2.905
	c0,1.027,0,2.053,0.001,3.08c0,0.101,0.008,0.207,0.03,0.301c0.071,0.311,0.342,0.415,0.569,0.217
	c0.67-0.575,1.11-1.382,1.447-2.277c0.313-0.828,0.583-1.684,0.876-2.523c0.235-0.665,0.477-1.328,0.722-1.987
	c0.061-0.165,0.149-0.311,0.23-0.462c0.076-0.134,0.174-0.193,0.312-0.193c1.46,0.005,2.918,0.004,4.377,0.002
	c0.357,0,0.641,0.184,0.863,0.523c0.079,0.123,0.111,0.262,0.132,0.42c0.087,0.719-0.111,1.347-0.385,1.952
	c-0.261,0.574-0.57,1.1-0.908,1.598c-0.697,1.039-1.382,2.084-1.98,3.216c-0.154,0.289-0.286,0.599-0.427,0.901
	c-0.103,0.219-0.09,0.43,0.041,0.625c0.264,0.398,0.519,0.808,0.796,1.187c0.658,0.905,1.333,1.788,1.996,2.686
	c0.212,0.29,0.404,0.602,0.601,0.908c0.064,0.102,0.113,0.221,0.177,0.323C24.388,16.755,23.771,17.956,23.146,18.057z"/>
</svg>
