<?xml version="1.0" encoding="utf-8"?>
<!-- Generator: Adobe Illustrator 16.0.0, SVG Export Plug-In . SVG Version: 6.00 Build 0)  -->
<!DOCTYPE svg PUBLIC "-//W3C//DTD SVG 1.1//EN" "http://www.w3.org/Graphics/SVG/1.1/DTD/svg11.dtd" [
	<!ENTITY ns_flows "http://ns.adobe.com/Flows/1.0/">
	<!ENTITY ns_extend "http://ns.adobe.com/Extensibility/1.0/">
	<!ENTITY ns_ai "http://ns.adobe.com/AdobeIllustrator/10.0/">
	<!ENTITY ns_graphs "http://ns.adobe.com/Graphs/1.0/">
]>
<svg version="1.1" id="Layer_1" xmlns:x="&ns_extend;" xmlns:i="&ns_ai;" xmlns:graph="&ns_graphs;"
	 xmlns="http://www.w3.org/2000/svg" xmlns:xlink="http://www.w3.org/1999/xlink" xmlns:a="http://ns.adobe.com/AdobeSVGViewerExtensions/3.0/"
	 x="0px" y="0px" width="22px" height="23px" viewBox="0 0 22 23" enable-background="new 0 0 22 23" xml:space="preserve">
<path fill="#FFFFFF" d="M14.597,8.97c0.387,0,0.923-0.191,1.478-0.819v0.724h1.277V2.324h-1.277v4.972
	c-0.157,0.187-0.503,0.491-0.752,0.491c-0.273,0-0.339-0.177-0.339-0.441V2.323h-1.278v5.476C13.705,8.446,13.912,8.97,14.597,8.97z
	"/>
<path fill="#FFFFFF" d="M8.911,7.241c0,1.154,0.633,1.755,1.872,1.755c1.028,0,1.836-0.654,1.836-1.755V4.03
	c0-1.026-0.8-1.76-1.836-1.76c-1.126,0-1.872,0.708-1.872,1.76V7.241z M10.226,4.137c0-0.359,0.174-0.625,0.533-0.625
	c0.392,0,0.559,0.258,0.559,0.625v3.048c0,0.357-0.19,0.62-0.535,0.62c-0.353,0-0.557-0.275-0.557-0.62V4.137z"/>
<path fill="#FFFFFF" d="M5.862,8.875h1.439V5.272l1.674-5.279H7.515l-0.923,3.55L5.6-0.007H4.151l1.711,5.279V8.875z"/>
<path fill="#FFFFFF" d="M19.072,10.365H4.012c-1.618,0-2.93,1.251-2.93,2.794v7.055c0,1.542,1.312,2.793,2.93,2.793h15.061
	c1.618,0,2.929-1.25,2.929-2.793v-7.055C22.001,11.616,20.69,10.365,19.072,10.365z M6.019,20.916h-1.37v-7.23H3.229v-1.228h4.207
	v1.228H6.019V20.916z M10.893,20.916H9.676v-0.688c-0.224,0.254-0.458,0.447-0.7,0.58C8.32,21.166,7.42,21.158,7.42,19.892v-5.214
	h1.217v4.782c0,0.251,0.063,0.421,0.323,0.421c0.237,0,0.567-0.29,0.715-0.467v-4.736h1.217V20.916z M15.577,19.624
	c0,0.772-0.302,1.371-1.112,1.371c-0.445,0-0.817-0.155-1.156-0.558v0.479H12.08v-8.458h1.229v2.724
	c0.274-0.319,0.647-0.583,1.081-0.583c0.892,0,1.187,0.718,1.187,1.563V19.624z M20.075,17.943h-2.328v1.177
	c0,0.469,0.042,0.873,0.532,0.873c0.513,0,0.543-0.329,0.543-0.873v-0.434h1.252v0.469c0,1.202-0.542,1.93-1.824,1.93
	c-1.162,0-1.756-0.807-1.756-1.93v-2.8c0-1.084,0.75-1.835,1.848-1.835c1.167,0,1.732,0.706,1.732,1.835V17.943z"/>
<path fill="#FFFFFF" d="M18.292,15.612c-0.451,0-0.544,0.302-0.544,0.731v0.631h1.076v-0.631
	C18.823,15.92,18.728,15.612,18.292,15.612z"/>
<path fill="#FFFFFF" d="M13.56,15.65c-0.085,0.042-0.168,0.104-0.251,0.191v3.887c0.1,0.102,0.195,0.175,0.288,0.22
	c0.198,0.096,0.488,0.104,0.622-0.064c0.071-0.088,0.106-0.23,0.106-0.43v-3.222c0-0.21-0.044-0.371-0.13-0.479
	C14.048,15.568,13.773,15.548,13.56,15.65z"/>
</svg>
