<?xml version="1.0" standalone="no"?>
<!DOCTYPE svg PUBLIC "-//W3C//DTD SVG 20010904//EN"
 "http://www.w3.org/TR/2001/REC-SVG-20010904/DTD/svg10.dtd">
<svg version="1.0" xmlns="http://www.w3.org/2000/svg"
 width="700.000000pt" height="700.000000pt" viewBox="0 0 700.000000 700.000000"
 preserveAspectRatio="xMidYMid meet">
<metadata>
Created by potrace 1.11, written by Peter Selinger 2001-2013
</metadata>
<g transform="translate(0.000000,700.000000) scale(0.100000,-0.100000)"
fill="#000000" stroke="none">
<path d="M4145 6993 c-82 -11 -241 -49 -333 -79 -112 -38 -258 -104 -229 -104
10 0 15 -5 12 -10 -3 -6 0 -12 7 -14 132 -39 191 -81 232 -163 92 -183 49
-251 -269 -424 -331 -179 -523 -332 -689 -544 -161 -205 -263 -430 -300 -660
-22 -138 -14 -357 19 -524 10 -53 56 -202 86 -280 48 -125 204 -419 216 -407
3 2 15 55 29 116 21 100 38 159 64 225 5 11 11 27 14 35 15 39 75 136 111 179
114 136 252 193 454 187 58 -2 113 -5 121 -8 8 -3 29 -9 45 -13 94 -25 180
-124 247 -285 6 -14 14 -34 19 -45 5 -11 14 -33 20 -50 12 -30 12 -29 26 35
20 97 56 161 126 227 89 82 205 136 542 248 157 52 328 114 378 137 313 142
491 346 553 633 24 109 29 160 29 305 0 144 -8 249 -25 327 -27 120 -84 275
-127 345 -13 21 -23 41 -23 45 0 5 -20 35 -45 68 -25 33 -45 62 -45 65 0 12
-157 161 -215 204 -131 98 -312 184 -460 217 -66 15 -121 18 -320 17 -132 0
-253 -3 -270 -5z"/>
<path d="M3885 3816 c-107 -26 -189 -78 -223 -140 -15 -28 -17 -80 -18 -554
-1 -288 -4 -525 -6 -527 -3 -3 -29 -1 -59 5 -63 11 -119 19 -169 26 -65 8 -90
16 -91 27 0 7 -2 174 -3 372 -2 394 -3 401 -62 457 -37 35 -143 82 -216 98
-191 39 -423 -46 -463 -170 -13 -39 -13 -48 -14 -353 l-1 -288 -41 3 c-29 2
-44 -2 -50 -12 -7 -11 -273 -1057 -294 -1153 -2 -10 -7 -27 -10 -37 -3 -10 -8
-27 -10 -37 -2 -10 -60 -243 -129 -518 -69 -275 -141 -567 -160 -650 -20 -82
-40 -166 -46 -185 -25 -90 -30 -115 -20 -118 5 -2 3 -10 -5 -19 -30 -30 -19
-41 33 -31 26 5 58 11 72 14 43 8 434 86 450 89 22 5 331 66 358 71 12 3 249
49 525 104 276 54 513 101 527 104 14 2 36 7 50 10 14 3 36 8 50 10 14 2 36 7
50 10 14 3 36 8 50 10 14 3 39 8 55 11 103 20 234 46 255 50 14 3 48 9 75 15
28 6 61 12 75 15 14 3 36 7 50 10 14 2 40 7 59 10 19 3 37 7 40 9 3 2 22 7 41
10 19 3 116 22 215 42 99 20 189 37 200 39 26 4 87 16 270 54 55 11 116 23
135 26 19 3 125 24 235 46 110 22 207 41 215 42 13 1 15 32 15 211 1 185 9
407 20 516 2 19 6 76 10 125 3 50 8 101 10 115 2 14 7 72 10 130 4 58 9 114
11 125 2 11 6 54 10 97 7 88 17 79 -106 98 -36 5 -76 12 -90 15 -14 2 -41 6
-60 9 -19 2 -66 10 -105 16 -38 7 -79 14 -90 15 -22 3 -445 73 -485 79 -161
28 -311 52 -375 61 -74 9 -247 44 -253 50 -3 3 -5 257 -5 565 0 317 -4 579 -9
605 -17 81 -104 148 -226 174 -68 14 -213 13 -277 -3z"/>
<path d="M2365 2751 c-6 -5 -111 -60 -235 -124 -124 -63 -275 -142 -336 -174
-60 -32 -163 -85 -227 -118 -107 -55 -117 -63 -131 -100 -22 -58 -386 -1143
-397 -1185 -6 -19 -13 -42 -16 -50 -33 -88 -95 -280 -95 -299 0 -16 12 -36 34
-55 20 -17 149 -130 288 -251 140 -121 298 -259 353 -308 55 -48 102 -86 103
-84 2 2 55 210 118 463 295 1178 338 1350 342 1369 2 11 40 164 85 340 44 176
82 327 84 335 2 8 13 53 25 100 35 140 36 170 5 141z"/>
</g>
</svg>
